<?xml version="1.0" encoding="utf-8"?>
<!-- Generator: Adobe Illustrator 16.0.4, SVG Export Plug-In . SVG Version: 6.00 Build 0)  -->
<!DOCTYPE svg PUBLIC "-//W3C//DTD SVG 1.1//EN" "http://www.w3.org/Graphics/SVG/1.1/DTD/svg11.dtd">
<svg version="1.1" id="Layer_1" xmlns="http://www.w3.org/2000/svg" xmlns:xlink="http://www.w3.org/1999/xlink" x="0px" y="0px"
	 width="181px" height="79px" viewBox="0 0 181 79" enable-background="new 0 0 181 79" xml:space="preserve">
<g>
	<g>
		<path d="M20.431,38.216c0-3.058,1.109-5.682,3.33-7.875c2.213-2.194,4.87-3.291,7.971-3.291c3.067,0,5.696,1.106,7.889,3.317
			c2.202,2.212,3.304,4.871,3.304,7.974c0,3.121-1.106,5.768-3.318,7.944c-2.219,2.187-4.9,3.276-8.042,3.276
			c-2.778,0-5.273-0.972-7.483-2.91C21.647,44.508,20.431,41.694,20.431,38.216z M23.705,38.251c0,2.399,0.8,4.371,2.397,5.916
			c1.59,1.544,3.423,2.319,5.506,2.319c2.258,0,4.162-0.79,5.713-2.362c1.552-1.591,2.328-3.53,2.328-5.815
			c0-2.315-0.769-4.252-2.301-5.818c-1.524-1.571-3.41-2.358-5.657-2.358c-2.24,0-4.131,0.787-5.673,2.358
			C24.476,34.046,23.705,35.966,23.705,38.251z"/>
		<path d="M50.256,40.355v8.816h-3.247V27.46h3.678c1.802,0,3.165,0.127,4.083,0.379c0.929,0.253,1.747,0.729,2.451,1.435
			c1.238,1.218,1.855,2.754,1.855,4.61c0,1.988-0.659,3.565-1.978,4.725c-1.32,1.165-3.099,1.747-5.338,1.747H50.256z
			 M50.256,37.316h1.212c2.983,0,4.474-1.157,4.474-3.474c0-2.24-1.538-3.36-4.614-3.36h-1.072V37.316z"/>
		<path d="M74.297,30.539h-8.627v5.217h8.377v3.081h-8.377v7.255h8.627v3.08H62.423V27.46h11.874V30.539z"/>
		<path d="M78.561,49.172v-23.19l15.693,16.565V27.46h3.247v23.032L81.808,33.971v15.201H78.561z"/>
		<path d="M105.905,35.951h9.283V27.46h3.247v21.713h-3.247V39.034h-9.283v10.139h-3.247V27.46h3.247V35.951z"/>
		<path d="M126.838,27.46v13.067c0,1.864,0.303,3.227,0.905,4.088c0.901,1.245,2.169,1.871,3.806,1.871
			c1.644,0,2.917-0.626,3.82-1.871c0.604-0.834,0.903-2.196,0.903-4.088V27.46h3.245v13.978c0,2.287-0.704,4.172-2.114,5.652
			c-1.59,1.651-3.542,2.475-5.854,2.475c-2.313,0-4.261-0.823-5.841-2.475c-1.411-1.48-2.115-3.365-2.115-5.652V27.46H126.838z"/>
		<path d="M144.678,49.172V27.46h3.234c1.441,0,2.588,0.111,3.444,0.336c0.86,0.226,1.59,0.604,2.188,1.141
			c0.603,0.552,1.079,1.243,1.435,2.066c0.362,0.836,0.545,1.678,0.545,2.532c0,1.556-0.59,2.873-1.771,3.952
			c1.144,0.392,2.043,1.081,2.702,2.067c0.67,0.974,1.003,2.108,1.003,3.401c0,1.695-0.594,3.131-1.783,4.304
			c-0.717,0.723-1.52,1.224-2.408,1.503c-0.978,0.273-2.198,0.408-3.664,0.408L144.678,49.172L144.678,49.172z M147.924,36.781
			h1.019c1.209,0,2.095-0.27,2.655-0.808c0.562-0.538,0.845-1.332,0.845-2.385c0-1.022-0.289-1.797-0.864-2.326
			s-1.411-0.795-2.509-0.795h-1.143v6.313H147.924z M147.924,46.092h2.006c1.47,0,2.548-0.291,3.234-0.873
			c0.729-0.628,1.088-1.426,1.088-2.388c0-0.938-0.348-1.725-1.044-2.362c-0.68-0.626-1.895-0.941-3.64-0.941h-1.645V46.092z"/>
	</g>
	<polyline fill="none" stroke="#000000" stroke-width="5.213" stroke-miterlimit="10" points="178,49.451 178,76 3,76 3,3 178,3 
		178,27.197 	"/>
</g>
</svg>
