<?xml version="1.0" encoding="utf-8"?>
<!-- Generator: Adobe Illustrator 16.0.4, SVG Export Plug-In . SVG Version: 6.00 Build 0)  -->
<!DOCTYPE svg PUBLIC "-//W3C//DTD SVG 1.1//EN" "http://www.w3.org/Graphics/SVG/1.1/DTD/svg11.dtd">
<svg version="1.1" id="Layer_1" xmlns="http://www.w3.org/2000/svg" xmlns:xlink="http://www.w3.org/1999/xlink" x="0px" y="0px"
	 width="30px" height="30px" viewBox="0 0 30 30" enable-background="new 0 0 30 30" xml:space="preserve">
<g>
	<g>
		
			<path fill="none" stroke="#174787" stroke-width="0.9633" stroke-linecap="round" stroke-linejoin="round" stroke-miterlimit="10" d="
			M7.789,20.88h-2.85c-0.797,0-1.444-0.647-1.444-1.444V5.227c0-0.798,0.647-1.445,1.444-1.445h16.122
			c0.799,0,1.445,0.647,1.445,1.445v14.208c0,0.797-0.646,1.444-1.445,1.444h-7.827L7.75,26.219L7.789,20.88z"/>
	</g>
	<g>
		<path fill="#174787" d="M13.912,14.592c0,0.504-0.409,0.912-0.912,0.912l0,0c-0.504,0-0.913-0.408-0.913-0.912v-7.85
			c0-0.503,0.409-0.912,0.913-0.912l0,0c0.503,0,0.912,0.408,0.912,0.912V14.592z"/>
		<circle fill="#174787" cx="13" cy="17.969" r="0.948"/>
	</g>
</g>
</svg>
