<?xml version="1.0" encoding="utf-8"?>
<!-- Generator: Adobe Illustrator 16.0.4, SVG Export Plug-In . SVG Version: 6.00 Build 0)  -->
<!DOCTYPE svg PUBLIC "-//W3C//DTD SVG 1.1//EN" "http://www.w3.org/Graphics/SVG/1.1/DTD/svg11.dtd">
<svg version="1.1" xmlns="http://www.w3.org/2000/svg" xmlns:xlink="http://www.w3.org/1999/xlink" x="0px" y="0px" width="160px"
	 height="96px" viewBox="0 0 160 96" enable-background="new 0 0 160 96" xml:space="preserve">
<g id="localHover" display="none">
	<g display="inline">
		<g id="Expanded_33_">
			<path fill="#FFFFFF" d="M78.521,6.396c-5.557,0-10.075,4.52-10.075,10.075c0,5.353,9.167,18.685,9.556,19.25l0.52,0.749
				l0.519-0.749c0.388-0.565,9.557-13.897,9.557-19.25C88.597,10.915,84.077,6.396,78.521,6.396z M78.521,19.619
				c-1.736,0-3.148-1.412-3.148-3.148c0-1.735,1.412-3.147,3.148-3.147c1.735,0,3.147,1.412,3.147,3.147
				C81.669,18.207,80.257,19.619,78.521,19.619z"/>
		</g>
		<g>
			
				<polyline fill="none" stroke="#FFFFFF" stroke-width="2" stroke-linecap="round" stroke-linejoin="round" stroke-miterlimit="10" points="
				66.289,23.961 61.88,23.396 47.937,36.223 47.959,36.275 63.854,73.223 77.797,60.396 94.107,62.486 111.955,53.146 
				96.039,16.146 92.919,17.777 			"/>
			
				<polyline fill="none" stroke="#FFFFFF" stroke-width="1.5" stroke-linecap="round" stroke-linejoin="round" stroke-miterlimit="10" points="
				75.055,37.133 67.349,36.146 53.405,48.973 53.428,49.025 			"/>
			
				<polyline fill="none" stroke="#FFFFFF" stroke-width="1.5" stroke-linecap="round" stroke-linejoin="round" stroke-miterlimit="10" points="
				101.508,28.896 83.66,38.236 81.182,37.918 			"/>
			
				<polyline fill="none" stroke="#FFFFFF" stroke-width="1.5" stroke-linecap="round" stroke-linejoin="round" stroke-miterlimit="10" points="
				106.977,41.646 89.129,50.986 72.817,48.896 58.874,61.723 58.896,61.775 			"/>
			
				<line fill="none" stroke="#FFFFFF" stroke-width="1.5" stroke-linecap="round" stroke-linejoin="round" stroke-miterlimit="10" x1="61.88" y1="23.396" x2="77.797" y2="60.396"/>
			
				<line fill="none" stroke="#FFFFFF" stroke-width="1.5" stroke-linecap="round" stroke-linejoin="round" stroke-miterlimit="10" x1="83.781" y1="38.219" x2="94.107" y2="62.486"/>
		</g>
	</g>
</g>
<g id="local" display="none">
	<g id="Expanded_31_" display="inline">
		<g>
			<g>
				
					<path fill="none" stroke="#000000" stroke-width="2" stroke-linecap="round" stroke-linejoin="round" stroke-miterlimit="10" d="
					M80,35.054l-0.48-0.693c-0.359-0.522-8.841-12.857-8.841-17.81c0-5.14,4.181-9.321,9.321-9.321c5.14,0,9.321,4.182,9.321,9.321
					c0,4.952-8.482,17.287-8.842,17.81L80,35.054z"/>
			</g>
			<g>
				
					<path fill="none" stroke="#000000" stroke-width="2" stroke-linecap="round" stroke-linejoin="round" stroke-miterlimit="10" d="
					M80,13.639c-1.606,0-2.913,1.307-2.913,2.912c0,1.606,1.307,2.913,2.913,2.913c1.605,0,2.912-1.307,2.912-2.913
					C82.912,14.945,81.605,13.639,80,13.639z"/>
			</g>
		</g>
	</g>
	<g display="inline">
		
			<polyline fill="none" stroke="#000000" stroke-width="2" stroke-linecap="round" stroke-linejoin="round" stroke-miterlimit="10" points="
			66.343,23.961 61.934,23.396 47.991,36.223 48.013,36.275 63.908,73.223 77.851,60.396 94.162,62.486 112.01,53.146 
			96.094,16.146 92.973,17.777 		"/>
		
			<polyline fill="none" stroke="#000000" stroke-width="1.5" stroke-linecap="round" stroke-linejoin="round" stroke-miterlimit="10" points="
			75.109,37.133 67.403,36.146 53.459,48.973 53.482,49.025 		"/>
		
			<polyline fill="none" stroke="#000000" stroke-width="1.5" stroke-linecap="round" stroke-linejoin="round" stroke-miterlimit="10" points="
			101.562,28.896 83.715,38.236 81.236,37.918 		"/>
		
			<polyline fill="none" stroke="#000000" stroke-width="1.5" stroke-linecap="round" stroke-linejoin="round" stroke-miterlimit="10" points="
			107.031,41.646 89.184,50.986 72.872,48.896 58.928,61.723 58.951,61.775 		"/>
		
			<line fill="none" stroke="#000000" stroke-width="1.5" stroke-linecap="round" stroke-linejoin="round" stroke-miterlimit="10" x1="61.934" y1="23.396" x2="77.851" y2="60.396"/>
		
			<line fill="none" stroke="#000000" stroke-width="1.5" stroke-linecap="round" stroke-linejoin="round" stroke-miterlimit="10" x1="83.836" y1="38.219" x2="94.162" y2="62.486"/>
	</g>
</g>
<g id="nationalHover" display="none">
	<g display="inline">
		<g>
			<path fill="none" stroke="#FFFFFF" stroke-width="2" stroke-linecap="round" stroke-linejoin="round" stroke-miterlimit="10" d="
				M82.369,18.733c12.61,1.171,22.482,11.783,22.482,24.7c0,13.702-11.107,24.81-24.81,24.81s-24.81-11.107-24.81-24.81
				c0-5.558,1.828-10.688,4.914-14.824"/>
		</g>
		<g id="Expanded_30_">
			<path fill="#FFFFFF" d="M69.605,8.354c-5.557,0-10.075,4.52-10.075,10.075c0,5.353,9.167,18.685,9.556,19.25l0.52,0.749
				l0.519-0.749c0.388-0.565,9.557-13.897,9.557-19.25C79.681,12.874,75.161,8.354,69.605,8.354z M69.605,21.578
				c-1.736,0-3.148-1.412-3.148-3.148c0-1.735,1.412-3.147,3.148-3.147c1.735,0,3.147,1.412,3.147,3.147
				C72.753,20.166,71.341,21.578,69.605,21.578z"/>
		</g>
		
			<path fill="none" stroke="#FFFFFF" stroke-width="1.5" stroke-linecap="round" stroke-linejoin="round" stroke-miterlimit="10" d="
			M63.375,36.5c0,0-4.25,6,0.75,11s7.125-5.625,12.75,0s15.5-5,10.25-10.25c0,0-4.188-3.062-2.125-5.125s5.625-8-3.125-8"/>
		
			<path fill="none" stroke="#FFFFFF" stroke-width="1.5" stroke-linecap="round" stroke-linejoin="round" stroke-miterlimit="10" d="
			M82.375,67.875c0,0-4.25-3.25,0.125-7.625s7.875-4,9.375-2.5s5,0.25,5-5s6.375-7.916,6.375-1.291"/>
		
			<path fill="none" stroke="#FFFFFF" stroke-width="1.5" stroke-linecap="round" stroke-linejoin="round" stroke-miterlimit="10" d="
			M96.959,25.667c0,0-3.166,3.333,0,6.5s3.874-0.834,5.041,0.333"/>
	</g>
</g>
<g id="national" display="none">
	<g display="inline">
		<g>
			<path fill="none" stroke="#000000" stroke-width="2" stroke-linecap="round" stroke-linejoin="round" stroke-miterlimit="10" d="
				M82.327,18.733c12.61,1.171,22.482,11.783,22.482,24.7c0,13.702-11.107,24.81-24.81,24.81s-24.81-11.107-24.81-24.81
				c0-5.558,1.828-10.688,4.914-14.824"/>
		</g>
		<g id="Expanded_29_">
			<g>
				<g>
					
						<path fill="none" stroke="#000000" stroke-width="2" stroke-linecap="round" stroke-linejoin="round" stroke-miterlimit="10" d="
						M69.563,37.304l-0.48-0.693c-0.359-0.522-8.841-12.857-8.841-17.81c0-5.14,4.181-9.321,9.321-9.321
						c5.14,0,9.321,4.182,9.321,9.321c0,4.952-8.482,17.287-8.842,17.81L69.563,37.304z"/>
				</g>
				<g>
					
						<path fill="none" stroke="#000000" stroke-width="2" stroke-linecap="round" stroke-linejoin="round" stroke-miterlimit="10" d="
						M69.563,15.889c-1.606,0-2.913,1.307-2.913,2.912c0,1.606,1.307,2.913,2.913,2.913c1.605,0,2.912-1.307,2.912-2.913
						C72.476,17.195,71.169,15.889,69.563,15.889z"/>
				</g>
			</g>
		</g>
		
			<path fill="none" stroke="#000000" stroke-width="1.5" stroke-linecap="round" stroke-linejoin="round" stroke-miterlimit="10" d="
			M62.833,36.5c0,0-4.25,6,0.75,11s7.125-5.625,12.75,0s15.5-5,10.25-10.25c0,0-4.188-3.062-2.125-5.125s5.625-8-3.125-8"/>
		
			<path fill="none" stroke="#000000" stroke-width="1.5" stroke-linecap="round" stroke-linejoin="round" stroke-miterlimit="10" d="
			M82.583,67.875c0,0-4.25-3.25,0.125-7.625s7.875-4,9.375-2.5s5,0.25,5-5s6.375-7.916,6.375-1.291"/>
		
			<path fill="none" stroke="#000000" stroke-width="1.5" stroke-linecap="round" stroke-linejoin="round" stroke-miterlimit="10" d="
			M97.167,25.667c0,0-3.166,3.333,0,6.5s3.874-0.834,5.041,0.333"/>
	</g>
</g>
<g id="serviceHover" display="none">
	<g display="inline">
		<g id="Expanded_28_">
			<g>
				<g>
					<path fill="#FFFFFF" d="M67.135,65.121L67.135,65.121c-0.861,0.859-1.865,1.527-2.99,1.982
						c-0.309,0.125-0.659,0.089-0.935-0.097c-0.276-0.186-0.44-0.496-0.441-0.828l0.001-4.999l-2-2l-2,2l-0.001,4.998
						c-0.001,0.332-0.163,0.644-0.442,0.828c-0.273,0.186-0.625,0.223-0.934,0.098c-3.417-1.385-5.624-4.658-5.623-8.34
						c-0.002-2.401,0.934-4.658,2.633-6.357c0.697-0.697,1.49-1.268,2.365-1.701V30.053c-3.059-1.514-5-4.606-5-8.059
						c0-2.401,0.936-4.658,2.635-6.357c0.86-0.86,1.867-1.527,2.99-1.982c0.311-0.125,0.658-0.089,0.934,0.096
						c0.275,0.186,0.442,0.497,0.441,0.829l0.001,5l2.001,2.001l2-2.001l-0.002-4.998c0.002-0.333,0.162-0.642,0.442-0.828
						c0.274-0.187,0.626-0.224,0.934-0.097c3.418,1.385,5.625,4.658,5.624,8.34c0,2.398-0.936,4.657-2.633,6.355
						c-0.699,0.697-1.491,1.27-2.365,1.701l-0.001,20.652c3.059,1.514,5.001,4.607,4.999,8.061
						C69.768,61.164,68.832,63.423,67.135,65.121z M64.77,64.506c0.336-0.236,0.654-0.503,0.951-0.799
						c1.32-1.321,2.047-3.076,2.047-4.941c0.001-2.864-1.717-5.411-4.374-6.488c-0.378-0.152-0.624-0.52-0.626-0.926l0.001-21.944
						c0.001-0.407,0.247-0.776,0.624-0.927c0.874-0.355,1.658-0.875,2.328-1.543c1.32-1.321,2.047-3.076,2.047-4.943
						c0.001-2.332-1.14-4.455-3-5.744v3.744c0,0.266-0.105,0.52-0.293,0.707L61.476,23.7c-0.39,0.39-1.022,0.392-1.415,0.001
						l-2.998-3c-0.189-0.188-0.295-0.442-0.293-0.707v-3.741c-0.338,0.235-0.655,0.502-0.951,0.798
						c-1.321,1.321-2.049,3.076-2.049,4.943c0,2.863,1.717,5.408,4.375,6.486c0.377,0.152,0.625,0.52,0.625,0.928l-0.001,21.942
						c0.001,0.408-0.247,0.774-0.624,0.929c-0.875,0.354-1.658,0.873-2.327,1.542c-1.321,1.321-2.05,3.077-2.048,4.942
						c0,2.332,1.141,4.455,3,5.744v-3.743c-0.001-0.266,0.105-0.519,0.293-0.707l3-3c0.391-0.39,1.023-0.392,1.414,0l3,3.001
						c0.188,0.188,0.294,0.44,0.293,0.706V64.506z"/>
				</g>
				<g>
					<path fill="#FFFFFF" d="M91.211,68.151c-0.756-0.755-1.172-1.759-1.172-2.829v-13c0.001-0.553,0.449-1,1-1h6
						c0.553,0,1,0.447,1,1v13.001c0,1.069-0.416,2.073-1.171,2.828s-1.762,1.172-2.829,1.172
						C92.971,69.322,91.967,68.907,91.211,68.151z M92.041,53.323l-0.001,12c0,1.067,0.931,2,1.999,1.999
						c0.535,0,1.037-0.207,1.415-0.585s0.586-0.881,0.586-1.413l0.001-12.002L92.041,53.323z"/>
				</g>
				<g>
					<rect x="93.041" y="20.168" fill="#FFFFFF" width="2" height="23.812"/>
				</g>
				<g>
					<path fill="#FFFFFF" d="M88.781,53.029c-0.182-0.182-0.293-0.432-0.293-0.707c-0.001-0.554,0.445-1,0.998-1h9.018
						c0.552,0,0.999,0.447,1,1c-0.002,0.553-0.448,0.999-1,1h-9.016C89.211,53.322,88.961,53.209,88.781,53.029z"/>
				</g>
				<g>
					<path fill="#FFFFFF" d="M91.334,20.875c-0.182-0.182-0.295-0.432-0.293-0.707l-0.001-4.53
						c-0.001-0.265,0.104-0.519,0.293-0.707c0.188-0.188,0.441-0.293,0.707-0.293l3.999,0.001c0.553-0.001,1,0.447,1,0.999v4.53
						c0,0.268-0.105,0.52-0.293,0.707c-0.188,0.188-0.442,0.295-0.707,0.293h-4C91.763,21.17,91.514,21.057,91.334,20.875z
						 M93.04,16.638l0.001,2.53h1.998v-2.53H93.04z"/>
				</g>
				<g>
					<rect x="93.041" y="42.307" fill="#FFFFFF" width="2" height="10.381"/>
				</g>
			</g>
		</g>
		<g>
			<polygon fill="none" stroke="#FFFFFF" stroke-width="1.5" stroke-miterlimit="10" points="21.282,24.433 18.939,20.375 
				21.282,16.317 25.968,16.317 28.311,20.375 25.968,24.433 			"/>
			<circle fill="#FFFFFF" cx="23.584" cy="20.458" r="1.417"/>
		</g>
		<g>
			<polygon fill="none" stroke="#FFFFFF" stroke-width="1.5" stroke-miterlimit="10" points="26.053,57.074 26.543,52.414 
				30.822,50.508 34.613,53.261 34.125,57.92 29.845,59.827 			"/>
			<circle fill="#FFFFFF" cx="30.252" cy="55.21" r="1.417"/>
		</g>
		<g>
			<polygon fill="none" stroke="#FFFFFF" stroke-width="1.5" stroke-miterlimit="10" points="122.094,26.782 122.584,22.122 
				126.863,20.216 130.654,22.969 130.166,27.628 125.886,29.535 			"/>
			<circle fill="#FFFFFF" cx="126.293" cy="24.918" r="1.417"/>
		</g>
		<g>
			<polygon fill="none" stroke="#FFFFFF" stroke-width="1.5" stroke-miterlimit="10" points="130.119,59.989 128.358,55.646 
				131.236,51.95 135.877,52.595 137.64,56.936 134.761,60.634 			"/>
			<circle fill="#FFFFFF" cx="132.947" cy="56.368" r="1.417"/>
		</g>
	</g>
</g>
<g id="taskHover" display="none">
	<g display="inline">
		
			<polygon fill="none" stroke="#FFFFFF" stroke-width="2" stroke-linecap="round" stroke-linejoin="round" stroke-miterlimit="10" points="
			102.163,34.608 76.042,58.15 57.871,39.98 57.871,50.597 76.042,68.767 102.163,44.917 		"/>
		
			<line fill="none" stroke="#FFFFFF" stroke-width="2" stroke-linecap="round" stroke-linejoin="round" stroke-miterlimit="10" x1="76.042" y1="68.641" x2="76.042" y2="58.221"/>
		
			<polyline fill="none" stroke="#FFFFFF" stroke-width="1.5" stroke-linecap="round" stroke-linejoin="round" stroke-miterlimit="10" points="
			60.381,38.711 60.381,29.178 75.884,44.652 75.884,54.318 		"/>
		
			<polyline fill="none" stroke="#FFFFFF" stroke-width="1.5" stroke-linecap="round" stroke-linejoin="round" stroke-miterlimit="10" points="
			66.455,32.637 66.455,23.104 81.958,38.578 81.958,48.244 		"/>
		
			<polyline fill="none" stroke="#FFFFFF" stroke-width="2" stroke-linecap="round" stroke-linejoin="round" stroke-miterlimit="10" points="
			102.122,34.603 84.811,20 75.727,27.5 		"/>
	</g>
</g>
<g id="task" display="none">
	<g display="inline">
		
			<polygon fill="none" stroke="#000000" stroke-width="2" stroke-linecap="round" stroke-linejoin="round" stroke-miterlimit="10" points="
			102.124,34.608 76.003,58.15 57.833,39.98 57.833,50.597 76.003,68.767 102.124,44.5 		"/>
		
			<line fill="none" stroke="#000000" stroke-width="2" stroke-linecap="round" stroke-linejoin="round" stroke-miterlimit="10" x1="76.003" y1="68.641" x2="76.003" y2="58.221"/>
		
			<polyline fill="none" stroke="#000000" stroke-width="1.5" stroke-linecap="round" stroke-linejoin="round" stroke-miterlimit="10" points="
			60.343,38.711 60.343,29.178 75.845,44.652 75.845,54.318 		"/>
		
			<polyline fill="none" stroke="#000000" stroke-width="1.5" stroke-linecap="round" stroke-linejoin="round" stroke-miterlimit="10" points="
			66.417,32.637 66.417,23.104 81.919,38.578 81.919,48.244 		"/>
		
			<polyline fill="none" stroke="#000000" stroke-width="1.5" stroke-linecap="round" stroke-linejoin="round" stroke-miterlimit="10" points="
			72.491,26.562 72.491,17.029 87.993,32.504 87.993,42.17 		"/>
		
			<polyline fill="none" stroke="#000000" stroke-width="1.5" stroke-linecap="round" stroke-linejoin="round" stroke-miterlimit="10" points="
			78.565,20.487 78.565,10.955 94.067,26.43 94.067,36.096 		"/>
		
			<line fill="none" stroke="#000000" stroke-width="2" stroke-linecap="round" stroke-linejoin="round" stroke-miterlimit="10" x1="102.167" y1="34.812" x2="97.353" y2="30.745"/>
	</g>
</g>
<g id="questionsHover" display="none">
	<g display="inline">
		<g>
			<path fill="none" stroke="#FFFFFF" stroke-width="2" stroke-linecap="round" stroke-linejoin="round" stroke-miterlimit="10" d="
				M42.221,52.75h-5.916c-1.656,0-3-1.343-3-3v-29.5c0-1.657,1.344-3,3-3h33.471c1.656,0,3,1.343,3,3v29.5c0,1.657-1.344,3-3,3
				h-16.25L42.143,63.833L42.221,52.75z"/>
			<g>
				<g>
					<path fill="#FFFFFF" d="M59.899,42.495c1.332,0.919,2.561,1.59,3.686,2.014l-0.844,1.999c-1.561-0.562-3.115-1.451-4.664-2.665
						c-1.609,0.898-3.385,1.348-5.33,1.348c-1.965,0-3.746-0.474-5.346-1.421c-1.598-0.948-2.83-2.281-3.693-3.999
						s-1.295-3.651-1.295-5.804c0-2.142,0.434-4.091,1.303-5.848s2.104-3.095,3.709-4.012c1.604-0.919,3.398-1.378,5.381-1.378
						c2.004,0,3.811,0.477,5.42,1.429c1.607,0.953,2.836,2.285,3.68,3.998c0.844,1.712,1.266,3.645,1.266,5.796
						c0,1.787-0.271,3.394-0.814,4.819C61.813,40.198,60.993,41.439,59.899,42.495z M53.577,38.823
						c1.658,0.464,3.025,1.155,4.102,2.073c1.688-1.54,2.531-3.854,2.531-6.944c0-1.756-0.299-3.292-0.896-4.604
						s-1.471-2.332-2.621-3.057c-1.15-0.727-2.439-1.09-3.871-1.09c-2.143,0-3.918,0.734-5.33,2.199
						c-1.412,1.467-2.117,3.655-2.117,6.566c0,2.823,0.697,4.99,2.096,6.5c1.396,1.511,3.18,2.266,5.352,2.266
						c1.025,0,1.994-0.192,2.902-0.577c-0.898-0.582-1.846-0.997-2.842-1.244L53.577,38.823z"/>
				</g>
			</g>
			<g>
				<path fill="#FFFFFF" d="M105.902,25.24c-0.293,1.474-0.705,2.938-1.236,4.39l-2.525,6.741h7.793l-2.4-6.364
					C106.801,28.073,106.258,26.484,105.902,25.24z"/>
				<path fill="#FFFFFF" d="M123.555,16.166H88.525c-1.732,0-3.139,1.405-3.139,3.14v30.873c0,1.734,1.406,3.14,3.139,3.14h6.193
					l-0.082,11.599l11.912-11.599h17.006c1.732,0,3.141-1.405,3.141-3.14V19.306C126.695,17.571,125.287,16.166,123.555,16.166z
					 M113.555,45.81l-2.682-6.961h-9.611l-2.523,6.961H95.51l8.826-22.983h3.277l9.406,22.983H113.555z"/>
			</g>
		</g>
		<g>
			
				<circle fill="none" stroke="#FFFFFF" stroke-width="1.5" stroke-linecap="round" stroke-linejoin="round" stroke-miterlimit="10" cx="60.488" cy="63.625" r="2.75"/>
			
				<circle fill="none" stroke="#FFFFFF" stroke-width="1.5" stroke-linecap="round" stroke-linejoin="round" stroke-miterlimit="10" cx="70.738" cy="63.625" r="2.75"/>
			
				<circle fill="none" stroke="#FFFFFF" stroke-width="1.5" stroke-linecap="round" stroke-linejoin="round" stroke-miterlimit="10" cx="80.988" cy="63.625" r="2.75"/>
		</g>
	</g>
</g>
<g id="questions" display="none">
	<g display="inline">
		<g>
			<path fill="none" stroke="#000000" stroke-width="2" stroke-linecap="round" stroke-linejoin="round" stroke-miterlimit="10" d="
				M65.914,52.75h-5.916c-1.656,0-3-1.343-3-3v-29.5c0-1.657,1.344-3,3-3h33.471c1.656,0,3,1.343,3,3v29.5c0,1.657-1.344,3-3,3
				h-16.25L65.835,63.833L65.914,52.75z"/>
			<g>
				<g>
					<path fill="#231F20" d="M83.592,42.495c1.332,0.919,2.561,1.59,3.686,2.014l-0.844,1.999c-1.561-0.562-3.115-1.451-4.664-2.665
						c-1.61,0.898-3.385,1.348-5.331,1.348c-1.965,0-3.746-0.474-5.346-1.421c-1.598-0.948-2.83-2.281-3.693-3.999
						s-1.295-3.651-1.295-5.804c0-2.142,0.434-4.091,1.303-5.848s2.104-3.095,3.709-4.012c1.604-0.919,3.398-1.378,5.381-1.378
						c2.004,0,3.811,0.477,5.42,1.429c1.607,0.953,2.836,2.285,3.68,3.998c0.844,1.712,1.266,3.645,1.266,5.796
						c0,1.787-0.271,3.394-0.814,4.819C85.506,40.198,84.686,41.439,83.592,42.495z M77.269,38.823
						c1.658,0.464,3.025,1.155,4.102,2.073c1.688-1.54,2.531-3.854,2.531-6.944c0-1.756-0.299-3.292-0.896-4.604
						s-1.471-2.332-2.622-3.057c-1.15-0.727-2.439-1.09-3.871-1.09c-2.143,0-3.918,0.734-5.33,2.199
						c-1.412,1.467-2.117,3.655-2.117,6.566c0,2.823,0.697,4.99,2.096,6.5c1.396,1.511,3.18,2.266,5.352,2.266
						c1.025,0,1.994-0.192,2.902-0.577c-0.898-0.582-1.846-0.997-2.842-1.244L77.269,38.823z"/>
				</g>
			</g>
		</g>
		<g>
			
				<circle fill="none" stroke="#000000" stroke-width="1.5" stroke-linecap="round" stroke-linejoin="round" stroke-miterlimit="10" cx="79.752" cy="63.625" r="2.75"/>
			
				<circle fill="none" stroke="#000000" stroke-width="1.5" stroke-linecap="round" stroke-linejoin="round" stroke-miterlimit="10" cx="90.002" cy="63.625" r="2.75"/>
			
				<circle fill="none" stroke="#000000" stroke-width="1.5" stroke-linecap="round" stroke-linejoin="round" stroke-miterlimit="10" cx="100.252" cy="63.625" r="2.75"/>
		</g>
	</g>
</g>
<g id="nationalupdatesHover" display="none">
	<g display="inline">
		<path fill="none" stroke="#FFFFFF" stroke-width="2" stroke-linecap="round" stroke-linejoin="round" stroke-miterlimit="10" d="
			M64.816,23.925c4.068-4.068,9.69-6.585,15.898-6.585c12.417,0,22.482,10.066,22.482,22.482c0,2.812-0.517,5.504-1.459,7.986"/>
		<g>
			<path fill="none" stroke="#FFFFFF" stroke-width="2" stroke-linecap="round" stroke-linejoin="round" stroke-miterlimit="10" d="
				M95.139,56.644c-4.068,4.068-9.689,6.585-15.898,6.585c-12.417,0-22.482-10.066-22.482-22.483c0-2.843,0.528-5.563,1.491-8.067"
				/>
			
				<polygon fill="#FFFFFF" stroke="#FFFFFF" stroke-width="2" stroke-linecap="round" stroke-linejoin="round" stroke-miterlimit="10" points="
				92.089,53.531 100.425,51.298 98.191,59.634 			"/>
		</g>
		
			<polygon fill="#FFFFFF" stroke="#FFFFFF" stroke-width="2" stroke-linecap="round" stroke-linejoin="round" stroke-miterlimit="10" points="
			67.91,26.988 59.574,29.222 61.808,20.886 		"/>
	</g>
	<g display="inline">
		
			<circle fill="none" stroke="#FFFFFF" stroke-width="1.7108" stroke-linecap="round" stroke-linejoin="round" stroke-miterlimit="10" cx="80.166" cy="40.458" r="11.334"/>
		<path fill="none" stroke="#FFFFFF" stroke-linecap="round" stroke-linejoin="round" stroke-miterlimit="10" d="M80.664,29.33
			c3.971,2.123,6.674,6.31,6.674,11.128c0,4.787-2.668,8.951-6.599,11.087"/>
		<path fill="none" stroke="#FFFFFF" stroke-linecap="round" stroke-linejoin="round" stroke-miterlimit="10" d="M88.168,32.422
			c-2.186,1.82-4.996,2.915-8.062,2.915c-3.037,0-5.822-1.073-7.998-2.86"/>
		<path fill="none" stroke="#FFFFFF" stroke-linecap="round" stroke-linejoin="round" stroke-miterlimit="10" d="M72.107,48.461
			c2.186-1.82,4.996-2.915,8.062-2.915c3.037,0,5.822,1.073,7.998,2.86"/>
		<path fill="none" stroke="#FFFFFF" stroke-linecap="round" stroke-linejoin="round" stroke-miterlimit="10" d="M79.849,51.545
			c-3.972-2.123-6.674-6.31-6.674-11.128c0-4.787,2.667-8.951,6.599-11.087"/>
		
			<line fill="none" stroke="#FFFFFF" stroke-linecap="round" stroke-linejoin="round" stroke-miterlimit="10" x1="80.166" y1="29.167" x2="80.166" y2="51.833"/>
		
			<line fill="none" stroke="#FFFFFF" stroke-linecap="round" stroke-linejoin="round" stroke-miterlimit="10" x1="91.5" y1="40.5" x2="68.834" y2="40.5"/>
	</g>
</g>
<g id="nationalupdates" display="none">
	<g display="inline">
		<path fill="none" stroke="#000000" stroke-width="2" stroke-linecap="round" stroke-linejoin="round" stroke-miterlimit="10" d="
			M63.64,55.195c-4.068-4.068-6.584-9.69-6.584-15.898c0-12.417,10.066-22.482,22.482-22.482c2.813,0,5.504,0.517,7.987,1.459"/>
		<g>
			<path fill="none" stroke="#000000" stroke-width="2" stroke-linecap="round" stroke-linejoin="round" stroke-miterlimit="10" d="
				M96.359,24.873c4.068,4.068,6.586,9.689,6.586,15.898c0,12.417-10.066,22.482-22.484,22.482c-2.843,0-5.563-0.528-8.067-1.491"/>
			
				<polygon fill="none" stroke="#000000" stroke-width="2" stroke-linecap="round" stroke-linejoin="round" stroke-miterlimit="10" points="
				93.248,27.923 91.014,19.587 99.35,21.82 			"/>
		</g>
		
			<polygon fill="none" stroke="#000000" stroke-width="2" stroke-linecap="round" stroke-linejoin="round" stroke-miterlimit="10" points="
			66.705,52.102 68.937,60.438 60.601,58.204 		"/>
	</g>
	<g display="inline">
		
			<circle fill="none" stroke="#000000" stroke-width="1.7108" stroke-linecap="round" stroke-linejoin="round" stroke-miterlimit="10" cx="80" cy="40.208" r="11.334"/>
		<path fill="none" stroke="#000000" stroke-linecap="round" stroke-linejoin="round" stroke-miterlimit="10" d="M80.498,29.08
			c3.971,2.123,6.674,6.31,6.674,11.128c0,4.787-2.668,8.951-6.6,11.087"/>
		<path fill="none" stroke="#000000" stroke-linecap="round" stroke-linejoin="round" stroke-miterlimit="10" d="M88.002,32.172
			c-2.186,1.82-4.996,2.915-8.063,2.915c-3.036,0-5.822-1.073-7.998-2.86"/>
		<path fill="none" stroke="#000000" stroke-linecap="round" stroke-linejoin="round" stroke-miterlimit="10" d="M71.94,48.211
			c2.187-1.82,4.997-2.915,8.063-2.915c3.036,0,5.822,1.073,7.998,2.86"/>
		<path fill="none" stroke="#000000" stroke-linecap="round" stroke-linejoin="round" stroke-miterlimit="10" d="M79.682,51.295
			c-3.971-2.123-6.674-6.31-6.674-11.128c0-4.787,2.668-8.951,6.6-11.087"/>
		
			<line fill="none" stroke="#000000" stroke-linecap="round" stroke-linejoin="round" stroke-miterlimit="10" x1="80" y1="28.917" x2="80" y2="51.583"/>
		
			<line fill="none" stroke="#000000" stroke-linecap="round" stroke-linejoin="round" stroke-miterlimit="10" x1="91.333" y1="40.25" x2="68.667" y2="40.25"/>
	</g>
</g>
<g id="alertsHover" display="none">
	<g display="inline">
		<path fill="none" stroke="#FFFFFF" stroke-width="2" stroke-linecap="round" stroke-linejoin="round" stroke-miterlimit="10" d="
			M76.665,46.815c0,2.025-1.643,3.667-3.667,3.667l0,0c-2.025,0-3.667-1.642-3.667-3.667V15.25c0-2.025,1.642-3.667,3.667-3.667l0,0
			c2.024,0,3.667,1.642,3.667,3.667V46.815z"/>
		
			<circle fill="#FFFFFF" stroke="#FFFFFF" stroke-width="2" stroke-linecap="round" stroke-linejoin="round" stroke-miterlimit="10" cx="72.998" cy="60.395" r="3.812"/>
		<path fill="none" stroke="#FFFFFF" stroke-width="2" stroke-linecap="round" stroke-linejoin="round" stroke-miterlimit="10" d="
			M90.669,46.815c0,2.025-1.643,3.667-3.667,3.667l0,0c-2.025,0-3.667-1.642-3.667-3.667V15.25c0-2.025,1.642-3.667,3.667-3.667l0,0
			c2.024,0,3.667,1.642,3.667,3.667V46.815z"/>
		
			<circle fill="#FFFFFF" stroke="#FFFFFF" stroke-width="2" stroke-linecap="round" stroke-linejoin="round" stroke-miterlimit="10" cx="87.002" cy="60.395" r="3.812"/>
	</g>
</g>
<g id="alerts" display="none">
	<g display="inline">
		<path fill="none" stroke="#000000" stroke-width="2" stroke-linecap="round" stroke-linejoin="round" stroke-miterlimit="10" d="
			M83.667,46.815c0,2.025-1.643,3.667-3.667,3.667l0,0c-2.025,0-3.667-1.642-3.667-3.667V15.25c0-2.025,1.642-3.667,3.667-3.667l0,0
			c2.024,0,3.667,1.642,3.667,3.667V46.815z"/>
		
			<circle fill="none" stroke="#000000" stroke-width="2" stroke-linecap="round" stroke-linejoin="round" stroke-miterlimit="10" cx="80" cy="60.395" r="3.812"/>
	</g>
</g>
<g id="documentsHover" display="none">
	<g display="inline">
		<g id="Expanded_26_">
			<g>
				<g>
					<path fill="#FFFFFF" d="M97.94,56.876h-37v-44h29c0.553,0,1,0.447,1,1s-0.447,1-1,1h-27v40h33v-22c0-0.553,0.447-1,1-1
						c0.551,0,1,0.447,1,1V56.876z"/>
				</g>
				<g>
					<path fill="#FFFFFF" d="M91.249,63.567h-37v-44h2v42h35V63.567z"/>
				</g>
				<g>
					<path fill="#FFFFFF" d="M84.558,70.259h-37v-44h2v42h35V70.259z"/>
				</g>
				<g>
					<path fill="#FFFFFF" d="M82.94,25.875"/>
				</g>
				<g>
					<path fill="#FFFFFF" d="M82.577,36.239c-0.26,0-0.516-0.102-0.708-0.293c-0.304-0.305-0.38-0.77-0.188-1.154l2.828-5.656
						c0.049-0.097,0.111-0.185,0.188-0.261L103.79,9.782c0.594-0.594,1.316-0.906,2.09-0.906c1.213,0,2.354,0.784,2.836,1.95
						c0.461,1.114,0.207,2.31-0.684,3.198L88.94,33.117c-0.076,0.075-0.164,0.139-0.26,0.188l-5.656,2.828
						C82.882,36.205,82.729,36.239,82.577,36.239z M86.228,30.173l-1.414,2.829l2.828-1.415L106.62,12.61
						c0.314-0.314,0.398-0.657,0.25-1.02c-0.172-0.406-0.596-0.715-0.99-0.715c-0.236,0-0.463,0.107-0.676,0.32L86.228,30.173z"/>
				</g>
				<g>
					<path fill="#FFFFFF" d="M104.497,17.147c-0.256,0-0.512-0.099-0.707-0.293l-2.828-2.83c-0.391-0.391-0.391-1.023,0-1.414
						s1.023-0.391,1.414,0l2.828,2.828c0.391,0.392,0.391,1.024,0,1.416C105.009,17.049,104.753,17.147,104.497,17.147z"/>
				</g>
			</g>
		</g>
		
			<line fill="none" stroke="#FFFFFF" stroke-width="1.5" stroke-linecap="round" stroke-linejoin="round" stroke-miterlimit="10" x1="67.45" y1="22.083" x2="86.449" y2="22.083"/>
		
			<line fill="none" stroke="#FFFFFF" stroke-width="1.5" stroke-linecap="round" stroke-linejoin="round" stroke-miterlimit="10" x1="67.45" y1="28.708" x2="77.949" y2="28.708"/>
		
			<line fill="none" stroke="#FFFFFF" stroke-width="1.5" stroke-linecap="round" stroke-linejoin="round" stroke-miterlimit="10" x1="67.45" y1="35.333" x2="77.283" y2="35.333"/>
		
			<line fill="none" stroke="#FFFFFF" stroke-width="1.5" stroke-linecap="round" stroke-linejoin="round" stroke-miterlimit="10" x1="67.45" y1="41.958" x2="90.366" y2="41.958"/>
		
			<line fill="none" stroke="#FFFFFF" stroke-width="1.5" stroke-linecap="round" stroke-linejoin="round" stroke-miterlimit="10" x1="67.45" y1="48.583" x2="89.782" y2="48.583"/>
	</g>
</g>
<g id="documents">
	<g>
		<g id="Expanded_9_">
			<g>
				<g>
					<path d="M97.874,56.844h-37v-44h29c0.553,0,1,0.447,1,1s-0.447,1-1,1h-27v40h33v-22c0-0.553,0.447-1,1-1c0.551,0,1,0.447,1,1
						V56.844z"/>
				</g>
				<g>
					<path d="M82.875,25.844"/>
				</g>
				<g>
					<path d="M82.512,36.207c-0.26,0-0.516-0.102-0.709-0.293c-0.303-0.305-0.379-0.77-0.188-1.154l2.828-5.656
						c0.049-0.097,0.111-0.185,0.188-0.261L103.724,9.75c0.594-0.594,1.316-0.906,2.09-0.906c1.213,0,2.354,0.784,2.836,1.95
						c0.461,1.114,0.207,2.31-0.684,3.198L88.874,33.085c-0.076,0.075-0.164,0.139-0.26,0.188l-5.655,2.828
						C82.816,36.173,82.664,36.207,82.512,36.207z M86.161,30.142l-1.413,2.829l2.827-1.415l18.979-18.978
						c0.314-0.314,0.398-0.657,0.25-1.02c-0.172-0.406-0.596-0.715-0.99-0.715c-0.236,0-0.463,0.107-0.676,0.32L86.161,30.142z"/>
				</g>
				<g>
					<path d="M104.431,17.115c-0.256,0-0.512-0.099-0.707-0.293l-2.828-2.83c-0.391-0.391-0.391-1.023,0-1.414s1.023-0.391,1.414,0
						l2.828,2.828c0.391,0.392,0.391,1.024,0,1.416C104.942,17.018,104.687,17.115,104.431,17.115z"/>
				</g>
			</g>
		</g>
		
			<line fill="none" stroke="#000000" stroke-width="1.5" stroke-linecap="round" stroke-linejoin="round" stroke-miterlimit="10" x1="68.222" y1="21.594" x2="87.222" y2="21.594"/>
		
			<line fill="none" stroke="#000000" stroke-width="1.5" stroke-linecap="round" stroke-linejoin="round" stroke-miterlimit="10" x1="68.222" y1="28.219" x2="78.722" y2="28.219"/>
		
			<line fill="none" stroke="#000000" stroke-width="1.5" stroke-linecap="round" stroke-linejoin="round" stroke-miterlimit="10" x1="68.222" y1="34.844" x2="78.056" y2="34.844"/>
		
			<line fill="none" stroke="#000000" stroke-width="1.5" stroke-linecap="round" stroke-linejoin="round" stroke-miterlimit="10" x1="68.222" y1="41.469" x2="91.139" y2="41.469"/>
		
			<line fill="none" stroke="#000000" stroke-width="1.5" stroke-linecap="round" stroke-linejoin="round" stroke-miterlimit="10" x1="68.222" y1="48.094" x2="90.556" y2="48.094"/>
	</g>
</g>
<g id="financialHover" display="none">
	<g display="inline">
		
			<line fill="none" stroke="#FFFFFF" stroke-width="2" stroke-linecap="round" stroke-linejoin="round" stroke-miterlimit="10" x1="28.75" y1="15.5" x2="131.25" y2="15.5"/>
		
			<line fill="none" stroke="#FFFFFF" stroke-width="1.5" stroke-linecap="round" stroke-linejoin="round" stroke-miterlimit="10" x1="124.834" y1="27.166" x2="131.25" y2="27.166"/>
		
			<line fill="none" stroke="#FFFFFF" stroke-width="1.5" stroke-linecap="round" stroke-linejoin="round" stroke-miterlimit="10" x1="98.584" y1="27.166" x2="111.584" y2="27.166"/>
		
			<line fill="none" stroke="#FFFFFF" stroke-width="1.5" stroke-linecap="round" stroke-linejoin="round" stroke-miterlimit="10" x1="28.75" y1="27.166" x2="82.25" y2="27.166"/>
		
			<line fill="none" stroke="#FFFFFF" stroke-width="2" stroke-linecap="round" stroke-linejoin="round" stroke-miterlimit="10" x1="113.5" y1="38.832" x2="131.25" y2="38.832"/>
		
			<line fill="none" stroke="#FFFFFF" stroke-width="2" stroke-linecap="round" stroke-linejoin="round" stroke-miterlimit="10" x1="77.063" y1="38.832" x2="96.168" y2="38.832"/>
		
			<line fill="none" stroke="#FFFFFF" stroke-width="2" stroke-linecap="round" stroke-linejoin="round" stroke-miterlimit="10" x1="28.75" y1="38.832" x2="62.917" y2="38.832"/>
		
			<line fill="none" stroke="#FFFFFF" stroke-width="1.5" stroke-linecap="round" stroke-linejoin="round" stroke-miterlimit="10" x1="66.25" y1="50.498" x2="131.25" y2="50.498"/>
		
			<line fill="none" stroke="#FFFFFF" stroke-width="1.5" stroke-linecap="round" stroke-linejoin="round" stroke-miterlimit="10" x1="28.75" y1="50.498" x2="36.188" y2="50.498"/>
		
			<line fill="none" stroke="#FFFFFF" stroke-width="2" stroke-linecap="round" stroke-linejoin="round" stroke-miterlimit="10" x1="28.75" y1="62.164" x2="131.25" y2="62.164"/>
		
			<polyline fill="none" stroke="#FFFFFF" stroke-width="2" stroke-linecap="round" stroke-linejoin="round" stroke-miterlimit="10" points="
			35.51,58.739 45.167,49.083 50.167,54.083 57.167,47.083 59.584,49.5 69.833,39.25 75.625,33.458 83.334,33.458 90.771,26.021 
			105.084,40.335 124.959,20.46 127.668,23.168 		"/>
	</g>
</g>
<g id="financial" display="none">
	<g display="inline">
		
			<line fill="none" stroke="#000000" stroke-width="2" stroke-linecap="round" stroke-linejoin="round" stroke-miterlimit="10" x1="28.75" y1="15.334" x2="131.25" y2="15.334"/>
		
			<line fill="none" stroke="#000000" stroke-width="1.5" stroke-linecap="round" stroke-linejoin="round" stroke-miterlimit="10" x1="28.75" y1="27" x2="131.25" y2="27"/>
		
			<line fill="none" stroke="#000000" stroke-width="2" stroke-linecap="round" stroke-linejoin="round" stroke-miterlimit="10" x1="77.75" y1="38.667" x2="131.25" y2="38.667"/>
		
			<line fill="none" stroke="#000000" stroke-width="2" stroke-linecap="round" stroke-linejoin="round" stroke-miterlimit="10" x1="28.75" y1="38.667" x2="62.917" y2="38.667"/>
		
			<line fill="none" stroke="#000000" stroke-width="1.5" stroke-linecap="round" stroke-linejoin="round" stroke-miterlimit="10" x1="66.25" y1="50.332" x2="131.25" y2="50.332"/>
		
			<line fill="none" stroke="#000000" stroke-width="1.5" stroke-linecap="round" stroke-linejoin="round" stroke-miterlimit="10" x1="28.75" y1="50.332" x2="36.188" y2="50.332"/>
		
			<line fill="none" stroke="#000000" stroke-width="2" stroke-linecap="round" stroke-linejoin="round" stroke-miterlimit="10" x1="28.75" y1="61.998" x2="131.25" y2="61.998"/>
		
			<polyline fill="none" stroke="#000000" stroke-width="2" stroke-linecap="round" stroke-linejoin="round" stroke-miterlimit="10" points="
			35.51,58.574 45.166,48.918 50.167,53.918 57.166,46.917 59.584,49.334 69.833,39.084 75.625,33.292 83.334,33.292 		"/>
	</g>
</g>
<g id="clinicalHover" display="none">
	<g display="inline">
		<g>
			<g id="XMLID_1_">
				<g>
					<path fill="#FFFFFF" d="M89.987,53.838l5.4,9.42h-14.88h-0.93h-14.88l5.4-9.42c0,0,5.81,3.101,9.14,0
						C82.577,50.748,88.407,52.108,89.987,53.838z"/>
				</g>
				<g>
					
						<polyline fill="none" stroke="#FFFFFF" stroke-width="1.8" stroke-linecap="round" stroke-linejoin="round" stroke-miterlimit="10" points="
						84.497,28.318 84.497,44.258 89.987,53.838 95.388,63.258 80.507,63.258 79.577,63.258 64.697,63.258 70.097,53.838 
						75.597,44.258 75.597,28.318 					"/>
					
						<path fill="none" stroke="#FFFFFF" stroke-width="1.8" stroke-linecap="round" stroke-linejoin="round" stroke-miterlimit="10" d="
						M75.597,28.318h-2.34c-0.87,0-1.57-0.7-1.57-1.57s0.7-1.57,1.57-1.57h13.58c0.87,0,1.57,0.7,1.57,1.57s-0.7,1.57-1.57,1.57
						h-2.34H75.597z"/>
					
						<path fill="none" stroke="#FFFFFF" stroke-width="1.8" stroke-linecap="round" stroke-linejoin="round" stroke-miterlimit="10" d="
						M70.097,53.838c0,0,5.81,3.101,9.14,0c3.34-3.09,9.17-1.729,10.75,0"/>
				</g>
			</g>
		</g>
		<circle fill="#FFFFFF" cx="78.755" cy="38.453" r="1.625"/>
		<circle fill="#FFFFFF" cx="80.042" cy="47.078" r="2.5"/>
		<circle fill="#FFFFFF" cx="80.042" cy="30.578" r="0.885"/>
		<circle fill="#FFFFFF" cx="81.812" cy="33.953" r="0.57"/>
		<circle fill="#FFFFFF" cx="81.812" cy="20.766" r="0.57"/>
		<circle fill="#FFFFFF" cx="75.282" cy="17.453" r="1.125"/>
		<circle fill="#FFFFFF" cx="82.542" cy="13.578" r="2.24"/>
	</g>
</g>
<g id="clinical" display="none">
	<g display="inline">
		
			<polyline fill="none" stroke="#000000" stroke-width="1.8" stroke-linecap="round" stroke-linejoin="round" stroke-miterlimit="10" points="
			84.45,28.316 84.45,44.258 95.345,63.254 80.466,63.254 79.534,63.254 64.655,63.254 75.55,44.258 75.55,28.316 		"/>
		
			<path fill="none" stroke="#000000" stroke-width="1.8" stroke-linecap="round" stroke-linejoin="round" stroke-miterlimit="10" d="
			M88.362,26.745c0,0.868-0.703,1.571-1.571,1.571H73.209c-0.868,0-1.571-0.703-1.571-1.571l0,0c0-0.868,0.703-1.571,1.571-1.571
			h13.582C87.659,25.174,88.362,25.877,88.362,26.745L88.362,26.745z"/>
		
			<path fill="none" stroke="#000000" stroke-width="1.8" stroke-linecap="round" stroke-linejoin="round" stroke-miterlimit="10" d="
			M70.053,53.842c0,0,5.808,3.097,9.142,0s9.17-1.736,10.752,0"/>
	</g>
</g>
<g id="meetHover" display="none">
	<g display="inline">
		<g>
			<g>
				<g id="Expanded_23_">
					<g>
						<g>
							<path fill="#FFFFFF" d="M79.921,51.774c-5.565,0-10.095-5.242-10.095-11.687c0-6.443,4.527-11.686,10.095-11.686
								s10.096,5.242,10.096,11.686C90.017,46.532,85.488,51.774,79.921,51.774z M79.921,29.96c-4.707,0-8.536,4.544-8.536,10.128
								c0,5.585,3.829,10.128,8.536,10.128s8.537-4.543,8.537-10.128C88.458,34.504,84.628,29.96,79.921,29.96z"/>
						</g>
						<g>
							<path fill="#FFFFFF" d="M75.993,49.501h-1.558v3.237l-3.916,1.079c0,0,0.307,0.782,0.794,0.994c0.487,0.213,1.46,0,1.46,0
								l3.22-0.886V49.501z"/>
							<path fill="#FFFFFF" d="M83.784,49.501h1.558v3.237l3.916,1.079c0,0-0.307,0.782-0.794,0.994c-0.487,0.213-1.46,0-1.46,0
								l-3.22-0.886V49.501z"/>
						</g>
						<g>
							<path fill="#FFFFFF" d="M86.743,38.7c-0.054,0-0.105-0.001-0.16-0.004c-1.753-0.063-3.798-1.173-5.096-2.672
								c-0.908,1.157-2.205,1.901-3.812,2.175c-2.808,0.481-6.02-0.596-6.997-1.544l1.085-1.119
								c0.471,0.457,3.144,1.553,5.651,1.127c1.557-0.265,2.678-1.065,3.335-2.377l0.651-1.303l0.722,1.264
								c0.861,1.511,2.932,2.834,4.519,2.893c0.706,0.018,1.207-0.192,1.527-0.668l1.293,0.87
								C88.869,38.222,87.909,38.7,86.743,38.7z"/>
						</g>
					</g>
				</g>
			</g>
			<g>
				<g id="Expanded_22_">
					<g>
						<g>
							<path fill="#FFFFFF" d="M53.543,51.774c-5.566,0-10.095-5.242-10.095-11.687c0-6.443,4.527-11.686,10.095-11.686
								c5.566,0,10.095,5.242,10.095,11.686C63.638,46.532,59.109,51.774,53.543,51.774z M53.543,29.96
								c-4.707,0-8.537,4.544-8.537,10.128c0,5.585,3.83,10.128,8.537,10.128s8.537-4.543,8.537-10.128
								C62.08,34.504,58.25,29.96,53.543,29.96z"/>
						</g>
						<g>
							<path fill="#FFFFFF" d="M36.386,64.239v-3.718c0-1.642,1.039-3.116,2.528-3.651l10.701-2.944v-4.425h-1.559v3.237
								l-9.61,2.647c-2.164,0.772-3.619,2.837-3.619,5.136v5.275H44.93c0,0,0.601-0.125,0.601-0.784c0-0.66-0.601-0.773-0.601-0.773
								H36.386z"/>
							<path fill="#FFFFFF" d="M72.193,60.521c0-2.299-1.454-4.362-3.674-5.153l-9.556-2.63v-3.204h-1.559v4.392l10.645,2.927
								c1.547,0.553,2.586,2.028,2.586,3.669v3.718h-8.308c0,0-0.747-0.024-0.747,0.773c0,0.797,0.747,0.784,0.747,0.784h9.865
								V60.521z"/>
						</g>
						<g>
							<path fill="#FFFFFF" d="M60.365,38.7c-0.054,0-0.106-0.001-0.16-0.004c-1.754-0.063-3.798-1.173-5.097-2.672
								c-0.907,1.157-2.204,1.901-3.811,2.175c-2.808,0.481-6.021-0.596-6.997-1.544l1.085-1.119
								c0.47,0.457,3.144,1.553,5.651,1.127c1.557-0.265,2.678-1.065,3.334-2.377l0.651-1.303l0.722,1.264
								c0.862,1.511,2.932,2.834,4.519,2.893c0.706,0.018,1.208-0.192,1.528-0.668l1.292,0.87C62.49,38.222,61.53,38.7,60.365,38.7z
								"/>
						</g>
					</g>
				</g>
			</g>
			<g>
				<g id="Expanded_21_">
					<g>
						<g>
							<path fill="#FFFFFF" d="M106.583,51.774c-5.566,0-10.095-5.242-10.095-11.687c0-6.443,4.527-11.686,10.095-11.686
								c5.566,0,10.095,5.242,10.095,11.686C116.678,46.532,112.149,51.774,106.583,51.774z M106.583,29.96
								c-4.707,0-8.537,4.544-8.537,10.128c0,5.585,3.83,10.128,8.537,10.128s8.537-4.543,8.537-10.128
								C115.12,34.504,111.29,29.96,106.583,29.96z"/>
						</g>
						<g>
							<path fill="#FFFFFF" d="M89.426,64.239v-3.718c0-1.642,1.039-3.116,2.528-3.651l10.701-2.944v-4.425h-1.559v3.237
								l-9.61,2.647c-2.164,0.772-3.619,2.837-3.619,5.136v5.275H97.97c0,0,0.601-0.125,0.601-0.784c0-0.66-0.601-0.773-0.601-0.773
								H89.426z"/>
							<path fill="#FFFFFF" d="M125.233,60.521c0-2.299-1.454-4.362-3.674-5.153l-9.556-2.63v-3.204h-1.559v4.392l10.645,2.927
								c1.547,0.553,2.586,2.028,2.586,3.669v3.718h-8.308c0,0-0.747-0.024-0.747,0.773c0,0.797,0.747,0.784,0.747,0.784h9.865
								V60.521z"/>
						</g>
						<g>
							<path fill="#FFFFFF" d="M113.405,38.7c-0.054,0-0.106-0.001-0.16-0.004c-1.754-0.063-3.798-1.173-5.097-2.672
								c-0.907,1.157-2.204,1.901-3.811,2.175c-2.808,0.481-6.021-0.596-6.997-1.544l1.085-1.119
								c0.47,0.457,3.144,1.553,5.651,1.127c1.557-0.265,2.678-1.065,3.334-2.377l0.651-1.303l0.722,1.264
								c0.862,1.511,2.932,2.834,4.519,2.893c0.706,0.018,1.208-0.192,1.528-0.668l1.292,0.87
								C115.53,38.222,114.57,38.7,113.405,38.7z"/>
						</g>
					</g>
				</g>
			</g>
		</g>
		<g id="Expanded_24_">
			<g>
				<g>
					<path fill="#FFFFFF" d="M37.543,28.887v-6.61h-2.107c-1.161,0-2.106-0.945-2.106-2.106v-9.217c0-1.161,0.945-2.106,2.106-2.106
						h29.492c1.161,0,2.106,0.945,2.106,2.106v9.217c0,1.161-0.945,2.106-2.106,2.106H44.152L37.543,28.887z M35.436,10.251
						c-0.387,0-0.702,0.314-0.702,0.702v9.217c0,0.388,0.315,0.702,0.702,0.702h3.512v4.624l4.624-4.624h21.356
						c0.388,0,0.701-0.314,0.701-0.702v-9.217c0-0.388-0.313-0.702-0.701-0.702H35.436z"/>
				</g>
			</g>
		</g>
		<g id="Expanded_25_">
			<g>
				<g>
					<path fill="#FFFFFF" d="M113.873,20.245H94.171c-1.102,0-1.997-0.896-1.997-1.998v-8.74c0-1.102,0.896-1.998,1.997-1.998
						h27.969c1.102,0,1.997,0.896,1.997,1.998v8.74c0,1.102-0.896,1.998-1.997,1.998h-1.998v6.269L113.873,20.245z M94.171,8.841
						c-0.367,0-0.665,0.298-0.665,0.666v8.74c0,0.368,0.298,0.666,0.665,0.666h20.253l4.386,4.386v-4.386h3.33
						c0.367,0,0.665-0.298,0.665-0.666v-8.74c0-0.368-0.298-0.666-0.665-0.666H94.171z"/>
				</g>
			</g>
		</g>
	</g>
</g>
<g id="meet" display="none">
	<g display="inline">
		<g>
			<g id="Expanded_19_">
				<g>
					<g>
						<path fill="#231F20" d="M79.891,51.814c-5.565,0-10.095-5.242-10.095-11.687c0-6.443,4.527-11.686,10.095-11.686
							s10.096,5.242,10.096,11.686C89.986,46.572,85.458,51.814,79.891,51.814z M79.891,30c-4.707,0-8.536,4.544-8.536,10.128
							c0,5.585,3.829,10.128,8.536,10.128s8.537-4.543,8.537-10.128C88.428,34.544,84.598,30,79.891,30z"/>
					</g>
					<g>
						<path fill="#231F20" d="M75.963,49.541h-1.558v3.237l-3.916,1.079c0,0,0.307,0.782,0.794,0.994c0.487,0.213,1.46,0,1.46,0
							l3.22-0.886V49.541z"/>
						<path fill="#231F20" d="M83.754,49.541h1.558v3.237l3.916,1.079c0,0-0.307,0.782-0.794,0.994c-0.487,0.213-1.46,0-1.46,0
							l-3.22-0.886V49.541z"/>
					</g>
					<g>
						<path fill="#231F20" d="M86.713,38.74c-0.054,0-0.105-0.001-0.16-0.004c-1.753-0.063-3.798-1.173-5.096-2.672
							c-0.908,1.157-2.205,1.901-3.812,2.175c-2.808,0.481-6.02-0.596-6.997-1.544l1.085-1.119c0.471,0.457,3.144,1.553,5.651,1.127
							c1.557-0.265,2.678-1.065,3.335-2.377l0.651-1.303l0.722,1.264c0.861,1.511,2.932,2.834,4.519,2.893
							c0.706,0.018,1.207-0.192,1.527-0.668l1.293,0.87C88.839,38.262,87.879,38.74,86.713,38.74z"/>
					</g>
				</g>
			</g>
		</g>
		<g>
			<g id="Expanded_18_">
				<g>
					<g>
						<path fill="#231F20" d="M53.513,51.814c-5.566,0-10.095-5.242-10.095-11.687c0-6.443,4.527-11.686,10.095-11.686
							c5.566,0,10.095,5.242,10.095,11.686C63.607,46.572,59.079,51.814,53.513,51.814z M53.513,30
							c-4.707,0-8.537,4.544-8.537,10.128c0,5.585,3.83,10.128,8.537,10.128s8.537-4.543,8.537-10.128
							C62.05,34.544,58.22,30,53.513,30z"/>
					</g>
					<g>
						<path fill="#231F20" d="M36.355,64.279v-3.718c0-1.642,1.039-3.116,2.528-3.651l10.701-2.944v-4.425h-1.559v3.237l-9.61,2.647
							c-2.164,0.772-3.619,2.837-3.619,5.136v5.275h10.103c0,0,0.601-0.125,0.601-0.784c0-0.66-0.601-0.773-0.601-0.773H36.355z"/>
						<path fill="#231F20" d="M72.163,60.562c0-2.299-1.454-4.362-3.674-5.153l-9.556-2.63v-3.204h-1.559v4.392l10.645,2.927
							c1.547,0.553,2.586,2.028,2.586,3.669v3.718h-8.308c0,0-0.747-0.024-0.747,0.773c0,0.797,0.747,0.784,0.747,0.784h9.865
							V60.562z"/>
					</g>
					<g>
						<path fill="#231F20" d="M60.335,38.74c-0.054,0-0.106-0.001-0.16-0.004c-1.754-0.063-3.798-1.173-5.097-2.672
							c-0.907,1.157-2.204,1.901-3.811,2.175c-2.808,0.481-6.021-0.596-6.997-1.544l1.085-1.119c0.47,0.457,3.144,1.553,5.651,1.127
							c1.557-0.265,2.678-1.065,3.334-2.377l0.651-1.303l0.722,1.264c0.862,1.511,2.932,2.834,4.519,2.893
							c0.706,0.018,1.208-0.192,1.528-0.668l1.292,0.87C62.46,38.262,61.5,38.74,60.335,38.74z"/>
					</g>
				</g>
			</g>
		</g>
		<g>
			<g id="Expanded_20_">
				<g>
					<g>
						<path fill="#231F20" d="M106.553,51.814c-5.566,0-10.095-5.242-10.095-11.687c0-6.443,4.527-11.686,10.095-11.686
							c5.566,0,10.095,5.242,10.095,11.686C116.647,46.572,112.119,51.814,106.553,51.814z M106.553,30
							c-4.707,0-8.537,4.544-8.537,10.128c0,5.585,3.83,10.128,8.537,10.128s8.537-4.543,8.537-10.128
							C115.09,34.544,111.26,30,106.553,30z"/>
					</g>
					<g>
						<path fill="#231F20" d="M89.396,64.279v-3.718c0-1.642,1.039-3.116,2.528-3.651l10.701-2.944v-4.425h-1.559v3.237l-9.61,2.647
							c-2.164,0.772-3.619,2.837-3.619,5.136v5.275h10.103c0,0,0.601-0.125,0.601-0.784c0-0.66-0.601-0.773-0.601-0.773H89.396z"/>
						<path fill="#231F20" d="M125.203,60.562c0-2.299-1.454-4.362-3.674-5.153l-9.556-2.63v-3.204h-1.559v4.392l10.645,2.927
							c1.547,0.553,2.586,2.028,2.586,3.669v3.718h-8.308c0,0-0.747-0.024-0.747,0.773c0,0.797,0.747,0.784,0.747,0.784h9.865
							V60.562z"/>
					</g>
					<g>
						<path fill="#231F20" d="M113.375,38.74c-0.054,0-0.106-0.001-0.16-0.004c-1.754-0.063-3.798-1.173-5.097-2.672
							c-0.907,1.157-2.204,1.901-3.811,2.175c-2.808,0.481-6.021-0.596-6.997-1.544l1.085-1.119c0.47,0.457,3.144,1.553,5.651,1.127
							c1.557-0.265,2.678-1.065,3.334-2.377l0.651-1.303l0.722,1.264c0.862,1.511,2.932,2.834,4.519,2.893
							c0.706,0.018,1.208-0.192,1.528-0.668l1.292,0.87C115.5,38.262,114.54,38.74,113.375,38.74z"/>
					</g>
				</g>
			</g>
		</g>
	</g>
</g>
<g id="positiveHover" display="none">
	<g display="inline">
		
			<polyline fill="none" stroke="#FFFFFF" stroke-width="1.9058" stroke-linecap="round" stroke-linejoin="round" stroke-miterlimit="10" points="
			59.721,58.791 59.721,19.292 107.794,19.292 107.794,58.791 		"/>
		
			<path fill="none" stroke="#FFFFFF" stroke-width="1.9058" stroke-linecap="round" stroke-linejoin="round" stroke-miterlimit="10" d="
			M59.766,58.791c0,2.141-1.736,3.877-3.878,3.877c-2.141,0-3.877-1.736-3.877-3.877l-8.574-35h16.284"/>
		
			<path fill="none" stroke="#FFFFFF" stroke-width="1.9058" stroke-linecap="round" stroke-linejoin="round" stroke-miterlimit="10" d="
			M107.794,58.791c0,2.141-1.736,3.877-3.878,3.877h-1.325H55.888"/>
		
			<line fill="none" stroke="#FFFFFF" stroke-width="1.9058" stroke-linecap="round" stroke-linejoin="round" stroke-miterlimit="10" x1="54.542" y1="61.49" x2="53.784" y2="21.56"/>
		
			<line fill="none" stroke="#FFFFFF" stroke-width="1.9058" stroke-linecap="round" stroke-linejoin="round" stroke-miterlimit="10" x1="53.398" y1="61.42" x2="49.968" y2="21.63"/>
		
			<line fill="none" stroke="#FFFFFF" stroke-width="1.9058" stroke-linecap="round" stroke-linejoin="round" stroke-miterlimit="10" x1="56.966" y1="62.166" x2="56.966" y2="20.885"/>
		
			<line fill="none" stroke="#FFFFFF" stroke-width="1.9058" stroke-linecap="round" stroke-linejoin="round" stroke-miterlimit="10" x1="64.799" y1="34.542" x2="88.217" y2="34.542"/>
		
			<line fill="none" stroke="#FFFFFF" stroke-width="1.9058" stroke-linecap="round" stroke-linejoin="round" stroke-miterlimit="10" x1="64.799" y1="38.458" x2="84.528" y2="38.458"/>
		
			<line fill="none" stroke="#FFFFFF" stroke-width="1.9058" stroke-linecap="round" stroke-linejoin="round" stroke-miterlimit="10" x1="64.799" y1="42.292" x2="80.497" y2="42.292"/>
		
			<line fill="none" stroke="#FFFFFF" stroke-width="1.9058" stroke-linecap="round" stroke-linejoin="round" stroke-miterlimit="10" x1="69.091" y1="46.125" x2="76.747" y2="46.125"/>
		
			<path fill="none" stroke="#FFFFFF" stroke-width="1.9058" stroke-linecap="round" stroke-linejoin="round" stroke-miterlimit="10" d="
			M102.883,34.542"/>
		
			<path fill="none" stroke="#FFFFFF" stroke-width="1.9058" stroke-linecap="round" stroke-linejoin="round" stroke-miterlimit="10" d="
			M79.465,34.542"/>
		
			<line fill="none" stroke="#FFFFFF" stroke-width="1.9058" stroke-linecap="round" stroke-linejoin="round" stroke-miterlimit="10" x1="100.528" y1="38.458" x2="102.883" y2="38.458"/>
		
			<line fill="none" stroke="#FFFFFF" stroke-width="1.9058" stroke-linecap="round" stroke-linejoin="round" stroke-miterlimit="10" x1="96.614" y1="42.292" x2="102.883" y2="42.292"/>
		
			<line fill="none" stroke="#FFFFFF" stroke-width="1.9058" stroke-linecap="round" stroke-linejoin="round" stroke-miterlimit="10" x1="92.781" y1="46.125" x2="102.883" y2="46.125"/>
		
			<line fill="none" stroke="#FFFFFF" stroke-width="1.9058" stroke-linecap="round" stroke-linejoin="round" stroke-miterlimit="10" x1="89.28" y1="49.625" x2="102.883" y2="49.625"/>
		
			<line fill="none" stroke="#FFFFFF" stroke-width="1.9058" stroke-linecap="round" stroke-linejoin="round" stroke-miterlimit="10" x1="85.55" y1="53.459" x2="102.883" y2="53.459"/>
		
			<line fill="none" stroke="#FFFFFF" stroke-width="1.9058" stroke-linecap="round" stroke-linejoin="round" stroke-miterlimit="10" x1="81.841" y1="57.291" x2="102.883" y2="57.291"/>
		<rect x="64.799" y="23.792" fill="#FFFFFF" width="38.084" height="6.417"/>
		
			<polyline fill="none" stroke="#FFFFFF" stroke-width="1.9058" stroke-linecap="round" stroke-linejoin="round" stroke-miterlimit="10" points="
			64.799,47.667 73.528,57.291 96.935,33.885 		"/>
		
			<line fill="none" stroke="#FFFFFF" stroke-width="1.9058" stroke-linecap="round" stroke-linejoin="round" stroke-miterlimit="10" x1="51.601" y1="53.459" x2="46.139" y2="21.858"/>
	</g>
</g>
<g id="positive" display="none">
	<g display="inline">
		
			<polyline fill="none" stroke="#231F20" stroke-width="1.9058" stroke-linecap="round" stroke-linejoin="round" stroke-miterlimit="10" points="
			59.818,58.791 59.818,19.292 107.892,19.292 107.892,58.791 		"/>
		
			<path fill="none" stroke="#231F20" stroke-width="1.9058" stroke-linecap="round" stroke-linejoin="round" stroke-miterlimit="10" d="
			M59.863,58.791c0,2.141-1.736,3.877-3.878,3.877c-2.141,0-3.877-1.736-3.877-3.877v-4.852V23.792h7.71"/>
		
			<path fill="none" stroke="#231F20" stroke-width="1.9058" stroke-linecap="round" stroke-linejoin="round" stroke-miterlimit="10" d="
			M107.892,58.791c0,2.141-1.736,3.877-3.878,3.877h-1.325H55.985"/>
		
			<line fill="none" stroke="#231F20" stroke-width="1.9058" stroke-linecap="round" stroke-linejoin="round" stroke-miterlimit="10" x1="54.438" y1="62.166" x2="54.438" y2="22.229"/>
		
			<line fill="none" stroke="#231F20" stroke-width="1.9058" stroke-linecap="round" stroke-linejoin="round" stroke-miterlimit="10" x1="57.063" y1="62.166" x2="57.063" y2="20.885"/>
		
			<line fill="none" stroke="#231F20" stroke-width="1.9058" stroke-linecap="round" stroke-linejoin="round" stroke-miterlimit="10" x1="64.896" y1="34.542" x2="88.314" y2="34.542"/>
		
			<line fill="none" stroke="#231F20" stroke-width="1.9058" stroke-linecap="round" stroke-linejoin="round" stroke-miterlimit="10" x1="64.896" y1="38.458" x2="84.626" y2="38.458"/>
		
			<line fill="none" stroke="#231F20" stroke-width="1.9058" stroke-linecap="round" stroke-linejoin="round" stroke-miterlimit="10" x1="64.896" y1="42.292" x2="80.595" y2="42.292"/>
		
			<line fill="none" stroke="#231F20" stroke-width="1.9058" stroke-linecap="round" stroke-linejoin="round" stroke-miterlimit="10" x1="69.188" y1="46.125" x2="76.845" y2="46.125"/>
		
			<path fill="none" stroke="#231F20" stroke-width="1.9058" stroke-linecap="round" stroke-linejoin="round" stroke-miterlimit="10" d="
			M102.98,34.542"/>
		
			<path fill="none" stroke="#231F20" stroke-width="1.9058" stroke-linecap="round" stroke-linejoin="round" stroke-miterlimit="10" d="
			M79.562,34.542"/>
		
			<line fill="none" stroke="#231F20" stroke-width="1.9058" stroke-linecap="round" stroke-linejoin="round" stroke-miterlimit="10" x1="100.626" y1="38.458" x2="102.98" y2="38.458"/>
		
			<line fill="none" stroke="#231F20" stroke-width="1.9058" stroke-linecap="round" stroke-linejoin="round" stroke-miterlimit="10" x1="96.712" y1="42.292" x2="102.98" y2="42.292"/>
		
			<line fill="none" stroke="#231F20" stroke-width="1.9058" stroke-linecap="round" stroke-linejoin="round" stroke-miterlimit="10" x1="92.879" y1="46.125" x2="102.98" y2="46.125"/>
		
			<line fill="none" stroke="#231F20" stroke-width="1.9058" stroke-linecap="round" stroke-linejoin="round" stroke-miterlimit="10" x1="89.378" y1="49.625" x2="102.98" y2="49.625"/>
		
			<line fill="none" stroke="#231F20" stroke-width="1.9058" stroke-linecap="round" stroke-linejoin="round" stroke-miterlimit="10" x1="85.647" y1="53.459" x2="102.98" y2="53.459"/>
		
			<line fill="none" stroke="#231F20" stroke-width="1.9058" stroke-linecap="round" stroke-linejoin="round" stroke-miterlimit="10" x1="81.938" y1="57.291" x2="102.98" y2="57.291"/>
		<rect x="64.896" y="23.792" fill="#231F20" width="38.084" height="6.417"/>
		
			<polyline fill="none" stroke="#231F20" stroke-width="1.9058" stroke-linecap="round" stroke-linejoin="round" stroke-miterlimit="10" points="
			64.896,47.667 73.626,57.291 97.032,33.885 		"/>
	</g>
</g>
<g id="eventsHover" display="none">
	<g display="inline">
		<g>
			<text transform="matrix(1 0 0 1 72.2832 54.0088)" fill="#FFFFFF" font-family="'ArialMT'" font-size="27.5125">1</text>
		</g>
		
			<rect x="55.604" y="15.301" fill="none" stroke="#FFFFFF" stroke-width="1.9058" stroke-linecap="round" stroke-linejoin="round" stroke-miterlimit="10" width="48.863" height="48.863"/>
		<g>
			
				<polyline fill="none" stroke="#FFFFFF" stroke-width="1.9058" stroke-linecap="round" stroke-linejoin="round" stroke-miterlimit="10" points="
				55.604,24.733 61.028,26.733 66.456,24.733 71.884,26.733 77.312,24.733 82.74,26.733 88.167,24.733 93.598,26.733 
				99.032,24.733 104.467,26.733 			"/>
		</g>
	</g>
</g>
<g id="events" display="none">
	<g display="inline">
		<g>
			<text transform="matrix(1 0 0 1 64.748 54.0078)" fill="#231F20" font-family="'ArialMT'" font-size="27.5125">30</text>
		</g>
		
			<rect x="55.568" y="15.301" fill="none" stroke="#000000" stroke-width="1.9058" stroke-linecap="round" stroke-linejoin="round" stroke-miterlimit="10" width="48.863" height="48.863"/>
		
			<line fill="none" stroke="#000000" stroke-width="1.9058" stroke-linecap="round" stroke-linejoin="round" stroke-miterlimit="10" x1="55.568" y1="25.732" x2="104.432" y2="25.732"/>
	</g>
</g>
<g id="qualityHover" display="none">
	<g display="inline">
		<g>
			<g id="Expanded_16_">
				<g>
					<g>
						<path fill="#FFFFFF" d="M96.367,45.433H63.633c-0.431,0-0.781-0.348-0.781-0.78v-3.117c0-0.431,0.35-0.781,0.781-0.781
							c0.429,0,0.778,0.35,0.778,0.781v2.337h31.176v-2.337c0-0.431,0.348-0.781,0.779-0.781s0.779,0.35,0.779,0.781v3.117
							C97.146,45.085,96.799,45.433,96.367,45.433z"/>
					</g>
					<g>
						<path fill="#FFFFFF" d="M97.927,42.315H62.074c-0.431,0-0.78-0.349-0.78-0.778v-4.677c0-2.148,1.748-3.897,3.896-3.897h7.555
							c5.13-3.571,2.776-8.753,0.878-12.926c-0.791-1.744-1.417-3.121-1.417-4.22c0-5.083,3.918-7.742,7.791-7.742
							c3.874,0,7.795,2.659,7.795,7.742c0,1.095-0.622,2.469-1.411,4.212c-1.895,4.18-4.248,9.371,0.872,12.934h7.555
							c2.149,0,3.897,1.749,3.897,3.897v4.677C98.706,41.966,98.355,42.315,97.927,42.315z M62.853,40.756h34.294v-3.896
							c0-1.289-1.05-2.338-2.338-2.338h-7.795c-0.153,0-0.303-0.045-0.43-0.13c-6.475-4.301-3.553-10.746-1.621-15.007
							c0.654-1.446,1.271-2.81,1.271-3.567c0-4.248-3.231-6.184-6.237-6.184c-3.001,0-6.232,1.936-6.232,6.184
							c0,0.763,0.621,2.128,1.278,3.574c1.936,4.258,4.859,10.69-1.626,15c-0.129,0.085-0.279,0.13-0.432,0.13h-7.795
							c-1.288,0-2.338,1.049-2.338,2.338V40.756z"/>
					</g>
				</g>
			</g>
			<g>
				<g>
					<path fill="none" stroke="#FFFFFF" stroke-width="1.6468" stroke-linecap="round" stroke-linejoin="round" d="M92.704,48.606
						c0.459,0.844,0.837,1.74,1.121,2.675"/>
					
						<path fill="none" stroke="#FFFFFF" stroke-width="1.6468" stroke-linecap="round" stroke-linejoin="round" stroke-dasharray="5.9193,5.9193" d="
						M94.356,57.142C93.538,64.346,87.423,69.942,80,69.942c-7.98,0-14.45-6.47-14.45-14.45c0-0.222,0.005-0.442,0.015-0.662"/>
					<path fill="none" stroke="#FFFFFF" stroke-width="1.6468" stroke-linecap="round" stroke-linejoin="round" d="M65.999,51.904
						c0.243-0.949,0.579-1.86,1-2.724"/>
				</g>
			</g>
			<circle fill="#FFFFFF" cx="80" cy="55.492" r="5.47"/>
		</g>
		<path fill="none" stroke="#FFFFFF" stroke-width="1.453" stroke-linecap="round" stroke-miterlimit="10" d="M86.503,33.661
			c-1.194,2.502-3.746,4.23-6.704,4.23c-2.955,0-5.507-1.728-6.703-4.227"/>
	</g>
</g>
<g id="quality" display="none">
	<g id="Expanded_13_" display="inline">
		<g>
			<g>
				<path d="M98.548,58.842H61.452c-0.487,0-0.884-0.395-0.884-0.883v-3.532c0-0.488,0.396-0.885,0.884-0.885
					c0.486,0,0.883,0.396,0.883,0.885v2.648h35.33v-2.648c0-0.488,0.395-0.885,0.883-0.885s0.883,0.396,0.883,0.885v3.532
					C99.431,58.447,99.036,58.842,98.548,58.842z"/>
			</g>
			<g>
				<path d="M100.313,55.309H59.686c-0.487,0-0.884-0.396-0.884-0.882v-5.301c0-2.435,1.98-4.416,4.416-4.416h8.561
					c5.814-4.047,3.146-9.92,0.996-14.648c-0.896-1.976-1.607-3.537-1.607-4.782c0-5.761,4.441-8.773,8.83-8.773
					c4.391,0,8.835,3.013,8.835,8.773c0,1.24-0.706,2.798-1.601,4.772c-2.146,4.737-4.813,10.619,0.988,14.658h8.562
					c2.435,0,4.416,1.981,4.416,4.416v5.301C101.197,54.913,100.802,55.309,100.313,55.309z M60.568,53.542h38.862v-4.416
					c0-1.461-1.188-2.649-2.649-2.649h-8.833c-0.174,0-0.343-0.052-0.488-0.148c-7.336-4.873-4.025-12.177-1.837-17.007
					c0.741-1.639,1.442-3.184,1.442-4.042c0-4.814-3.664-7.008-7.068-7.008c-3.401,0-7.062,2.193-7.062,7.008
					c0,0.864,0.703,2.411,1.449,4.05c2.193,4.825,5.506,12.115-1.844,16.999c-0.146,0.097-0.316,0.148-0.489,0.148h-8.833
					c-1.46,0-2.649,1.188-2.649,2.649V53.542z"/>
			</g>
		</g>
	</g>
	<path display="inline" fill="none" stroke="#000000" stroke-width="1.5" stroke-linecap="round" stroke-miterlimit="10" d="
		M87.384,45.333c-0.872,3.275-3.857,5.688-7.408,5.688c-3.486,0-6.43-2.329-7.359-5.515"/>
</g>
<g id="buddyHover" display="none">
	<g display="inline">
		<g>
			<g id="Expanded_14_">
				<g>
					<g>
						<path fill="#FFFFFF" d="M95.159,37.802c-6.381,0-11.575-6.01-11.575-13.398s5.192-13.398,11.575-13.398
							c6.382,0,11.574,6.01,11.574,13.398S101.541,37.802,95.159,37.802z M95.159,12.792c-5.397,0-9.788,5.209-9.788,11.612
							s4.391,11.612,9.788,11.612c5.396,0,9.787-5.209,9.787-11.612S100.556,12.792,95.159,12.792z"/>
					</g>
					<g>
						<path fill="#FFFFFF" d="M90.655,35.196h-1.787v3.711l-4.488,1.237c0,0,0.353,0.897,0.91,1.14c0.559,0.244,1.674,0,1.674,0
							l3.691-1.016V35.196z"/>
						<path fill="#FFFFFF" d="M116.543,47.832c0-2.636-1.668-5.002-4.213-5.909l-10.956-3.015v-3.674h-1.787v5.035l12.206,3.356
							c1.772,0.633,2.964,2.325,2.964,4.207v4.262h-9.524c0,0-0.856-0.027-0.856,0.887s0.856,0.899,0.856,0.899h11.311V47.832z"/>
					</g>
					<g>
						<path fill="#FFFFFF" d="M102.98,22.812c-0.061,0-0.12-0.002-0.183-0.004c-2.01-0.073-4.354-1.345-5.843-3.064
							c-1.042,1.328-2.528,2.181-4.37,2.494c-3.219,0.552-6.902-0.683-8.022-1.77l1.244-1.284c0.539,0.525,3.604,1.781,6.479,1.292
							c1.785-0.303,3.07-1.221,3.822-2.725l0.747-1.493l0.828,1.449c0.988,1.731,3.36,3.25,5.18,3.316
							c0.81,0.021,1.386-0.22,1.752-0.766l1.483,0.998C105.418,22.263,104.317,22.812,102.98,22.812z"/>
					</g>
				</g>
			</g>
		</g>
		<g>
			<g id="Expanded_15_">
				<g>
					<g>
						<path fill="#FFFFFF" d="M64.916,37.802c-6.383,0-11.575-6.01-11.575-13.398s5.191-13.398,11.575-13.398
							c6.381,0,11.573,6.01,11.573,13.398S71.297,37.802,64.916,37.802z M64.916,12.792c-5.397,0-9.789,5.209-9.789,11.612
							s4.392,11.612,9.789,11.612c5.396,0,9.786-5.209,9.786-11.612S70.312,12.792,64.916,12.792z"/>
					</g>
					<g>
						<path fill="#FFFFFF" d="M45.243,52.094v-4.262c0-1.882,1.191-3.573,2.899-4.187l12.269-3.376v-5.072h-1.786v3.711
							l-11.019,3.036c-2.481,0.885-4.149,3.252-4.149,5.888v6.048h11.582c0,0,0.689-0.143,0.689-0.899
							c0-0.756-0.689-0.887-0.689-0.887H45.243z"/>
						<path fill="#FFFFFF" d="M86.299,47.832c0-2.636-1.668-5.002-4.213-5.909L71.13,38.908v-3.674h-1.787v5.035l12.205,3.356
							c1.773,0.633,2.965,2.325,2.965,4.207v4.262h-9.524c0,0-0.856-0.027-0.856,0.887s0.856,0.899,0.856,0.899h11.311V47.832z"/>
					</g>
					<g>
						<path fill="#FFFFFF" d="M72.736,22.812c-0.061,0-0.12-0.002-0.184-0.004c-2.01-0.073-4.354-1.345-5.842-3.064
							c-1.042,1.328-2.528,2.181-4.37,2.494c-3.22,0.552-6.902-0.683-8.022-1.77l1.244-1.284c0.539,0.525,3.604,1.781,6.479,1.292
							c1.785-0.303,3.07-1.221,3.822-2.725l0.747-1.493l0.828,1.449c0.988,1.731,3.36,3.25,5.18,3.316
							c0.81,0.021,1.386-0.22,1.752-0.766l1.482,0.998C75.174,22.263,74.072,22.812,72.736,22.812z"/>
					</g>
				</g>
			</g>
		</g>
	</g>
</g>
<g id="buddy" display="none">
	<g display="inline">
		<g id="Expanded_12_">
			<g>
				<g>
					<path d="M80.037,37.863c-6.363,0-11.539-5.992-11.539-13.358s5.176-13.358,11.539-13.358c6.364,0,11.541,5.992,11.541,13.358
						S86.4,37.863,80.037,37.863z M80.037,12.928c-5.38,0-9.758,5.194-9.758,11.577s4.378,11.577,9.758,11.577
						c5.381,0,9.759-5.194,9.759-11.577S85.418,12.928,80.037,12.928z"/>
				</g>
				<g>
					<path d="M60.424,52.111v-4.249c0-1.876,1.188-3.562,2.892-4.173l12.232-3.366v-5.057h-1.781v3.7L62.78,41.992
						c-2.474,0.883-4.136,3.242-4.136,5.87v6.03h11.547c0,0,0.687-0.143,0.687-0.896s-0.687-0.885-0.687-0.885H60.424z"/>
					<path d="M101.357,47.862c0-2.628-1.663-4.986-4.2-5.891l-10.924-3.005v-3.663h-1.78v5.02l12.166,3.346
						c1.77,0.631,2.957,2.318,2.957,4.193v4.249h-9.497c0,0-0.853-0.026-0.853,0.885s0.853,0.896,0.853,0.896h11.278V47.862z"/>
				</g>
				<g>
					<path d="M87.836,22.918c-0.061,0-0.122-0.001-0.183-0.004c-2.006-0.073-4.342-1.341-5.827-3.055
						c-1.037,1.323-2.52,2.174-4.355,2.486c-3.211,0.55-6.883-0.681-8-1.765l1.24-1.28c0.538,0.523,3.594,1.776,6.46,1.289
						c1.779-0.303,3.062-1.218,3.812-2.717l0.744-1.489l0.825,1.445c0.986,1.726,3.352,3.239,5.166,3.306
						c0.807,0.021,1.379-0.219,1.746-0.764l1.477,0.995C90.266,22.371,89.168,22.918,87.836,22.918z"/>
				</g>
			</g>
		</g>
		<g>
			
				<circle fill="none" stroke="#000000" stroke-width="1.7811" stroke-linecap="round" stroke-linejoin="round" stroke-miterlimit="10" cx="80.207" cy="52.823" r="5.789"/>
			
				<line fill="none" stroke="#000000" stroke-width="1.7811" stroke-linecap="round" stroke-linejoin="round" stroke-miterlimit="10" x1="80.207" y1="58.937" x2="80.207" y2="67.183"/>
		</g>
	</g>
</g>
<g id="collectiveHover" display="none">
	<g display="inline">
		<g id="Expanded_11_">
			<g>
				<g>
					<path fill="#FFFFFF" d="M51.509,28.455c-2.974,0-5.393-2.419-5.393-5.393s2.419-5.393,5.393-5.393
						c2.973,0,5.393,2.419,5.393,5.393S54.482,28.455,51.509,28.455z M51.509,19.211c-2.124,0-3.852,1.729-3.852,3.852
						s1.728,3.852,3.852,3.852c2.123,0,3.851-1.729,3.851-3.852S53.632,19.211,51.509,19.211z"/>
				</g>
				<g>
					<path fill="#FFFFFF" d="M53.819,46.944h-4.622c-0.425,0-0.771-0.344-0.771-0.771v-6.138c-3.4-1.784-4.622-6.458-4.622-10.04
						c0-0.426,0.345-0.771,0.77-0.771h13.867c0.425,0,0.77,0.345,0.77,0.771c0,3.582-1.222,8.256-4.622,10.04v6.138
						C54.59,46.601,54.245,46.944,53.819,46.944z M49.967,45.403h3.082v-5.854c0-0.311,0.186-0.591,0.471-0.71
						c2.978-1.256,3.973-5.358,4.129-8.073H45.368c0.157,2.715,1.15,6.817,4.129,8.073c0.285,0.12,0.47,0.399,0.47,0.71V45.403z"/>
				</g>
			</g>
		</g>
		<g id="Expanded_10_">
			<g>
				<g>
					<path fill="#FFFFFF" d="M79.884,28.455c-2.974,0-5.393-2.419-5.393-5.393s2.419-5.393,5.393-5.393s5.394,2.419,5.394,5.393
						S82.857,28.455,79.884,28.455z M79.884,19.211c-2.124,0-3.852,1.729-3.852,3.852s1.728,3.852,3.852,3.852
						s3.853-1.729,3.853-3.852S82.008,19.211,79.884,19.211z"/>
				</g>
				<g>
					<path fill="#FFFFFF" d="M82.195,46.944h-4.622c-0.426,0-0.771-0.344-0.771-0.771v-6.138c-3.4-1.784-4.623-6.458-4.623-10.04
						c0-0.426,0.346-0.771,0.771-0.771h13.866c0.425,0,0.771,0.345,0.771,0.771c0,3.582-1.223,8.256-4.622,10.04v6.138
						C82.966,46.601,82.621,46.944,82.195,46.944z M78.344,45.403h3.081v-5.854c0-0.311,0.187-0.591,0.471-0.71
						c2.978-1.256,3.973-5.358,4.129-8.073h-12.28c0.156,2.715,1.15,6.817,4.129,8.073c0.285,0.12,0.471,0.399,0.471,0.71V45.403z"
						/>
				</g>
			</g>
		</g>
		<path fill="#FFFFFF" d="M108.436,28.455c-2.973,0-5.393-2.419-5.393-5.393s2.42-5.393,5.393-5.393
			c2.974,0,5.393,2.419,5.393,5.393S111.409,28.455,108.436,28.455z M108.436,19.211c-2.123,0-3.852,1.729-3.852,3.852
			s1.729,3.852,3.852,3.852c2.124,0,3.852-1.729,3.852-3.852S110.56,19.211,108.436,19.211z"/>
		<path fill="#FFFFFF" d="M110.747,46.944h-4.622c-0.426,0-0.771-0.344-0.771-0.771v-6.138c-3.4-1.784-4.621-6.458-4.621-10.04
			c0-0.426,0.345-0.771,0.77-0.771h13.867c0.426,0,0.771,0.345,0.771,0.771c0,3.582-1.222,8.256-4.622,10.04v6.138
			C111.518,46.601,111.172,46.944,110.747,46.944z M106.895,45.403h3.082v-5.854c0-0.311,0.186-0.591,0.471-0.71
			c2.978-1.256,3.973-5.358,4.129-8.073h-12.281c0.157,2.715,1.15,6.817,4.129,8.073c0.285,0.12,0.471,0.399,0.471,0.71V45.403z"/>
	</g>
	<path display="inline" fill="none" stroke="#FFFFFF" stroke-width="1.5" stroke-linecap="round" stroke-miterlimit="10" d="
		M115.227,41.638c2.787,1.42,4.361,3.03,4.361,4.737c0,5.73-17.736,10.375-39.615,10.375c-21.878,0-39.614-4.645-39.614-10.375
		c0-1.747,1.649-3.393,4.561-4.837"/>
	<path display="inline" fill="none" stroke="#FFFFFF" stroke-width="1.5" stroke-linecap="round" stroke-miterlimit="10" d="
		M89.294,36.288c3.446,0.218,6.716,0.554,9.745,0.99"/>
	<path display="inline" fill="none" stroke="#FFFFFF" stroke-width="1.5" stroke-linecap="round" stroke-miterlimit="10" d="
		M60.138,37.393c3.042-0.462,6.34-0.82,9.825-1.059"/>
</g>
<g id="collective" display="none">
	<g display="inline">
		<g id="Expanded_7_">
			<g>
				<g>
					<path d="M51.537,28.455c-2.974,0-5.393-2.419-5.393-5.393s2.419-5.393,5.393-5.393c2.973,0,5.393,2.419,5.393,5.393
						S54.51,28.455,51.537,28.455z M51.537,19.211c-2.124,0-3.852,1.729-3.852,3.852s1.728,3.852,3.852,3.852
						c2.123,0,3.851-1.729,3.851-3.852S53.66,19.211,51.537,19.211z"/>
				</g>
				<g>
					<path d="M53.847,46.944h-4.622c-0.425,0-0.771-0.344-0.771-0.771v-6.138c-3.4-1.784-4.622-6.458-4.622-10.04
						c0-0.426,0.345-0.771,0.77-0.771H58.47c0.425,0,0.77,0.345,0.77,0.771c0,3.582-1.222,8.256-4.622,10.04v6.138
						C54.618,46.601,54.273,46.944,53.847,46.944z M49.995,45.403h3.082v-5.854c0-0.311,0.186-0.591,0.471-0.71
						c2.978-1.256,3.973-5.358,4.129-8.073H45.396c0.157,2.715,1.15,6.817,4.129,8.073c0.285,0.12,0.47,0.399,0.47,0.71V45.403z"/>
				</g>
				<g>
					<path d="M51.537,50.796c-4.292,0-11.556-0.729-11.556-3.467c0-1.361,1.766-2.36,5.25-2.97c0.424-0.069,0.818,0.208,0.892,0.627
						c0.073,0.418-0.208,0.817-0.625,0.892c-3.093,0.539-3.923,1.296-3.976,1.468c0.208,0.645,3.833,1.909,10.017,1.909
						c6.184,0,9.809-1.265,10.016-1.941c-0.053-0.139-0.88-0.891-3.957-1.433c-0.419-0.074-0.699-0.473-0.625-0.893
						c0.073-0.418,0.468-0.694,0.892-0.625c3.471,0.608,5.229,1.607,5.229,2.966C63.092,50.066,55.827,50.796,51.537,50.796z"/>
				</g>
				<g>
					<path d="M51.537,54.648c-12.009,0-18.489-3.572-18.489-6.934c0-3.661,6.315-5.781,12.227-6.545
						c0.417-0.05,0.807,0.243,0.863,0.666c0.055,0.423-0.244,0.809-0.666,0.862c-7.144,0.924-10.883,3.222-10.883,5.017
						c0,2.55,6.96,5.393,16.949,5.393c9.987,0,16.948-2.843,16.948-5.393c0-1.795-3.738-4.093-10.879-5.015
						c-0.422-0.056-0.72-0.441-0.667-0.863c0.055-0.424,0.443-0.713,0.863-0.666c5.91,0.764,12.223,2.884,12.223,6.544
						C70.025,51.076,63.545,54.648,51.537,54.648z"/>
				</g>
			</g>
		</g>
		<g id="Expanded_8_">
			<g>
				<g>
					<path d="M79.912,28.455c-2.974,0-5.393-2.419-5.393-5.393s2.419-5.393,5.393-5.393c2.973,0,5.393,2.419,5.393,5.393
						S82.885,28.455,79.912,28.455z M79.912,19.211c-2.124,0-3.852,1.729-3.852,3.852s1.728,3.852,3.852,3.852
						c2.124,0,3.852-1.729,3.852-3.852S82.035,19.211,79.912,19.211z"/>
				</g>
				<g>
					<path d="M82.223,46.944h-4.622c-0.426,0-0.771-0.344-0.771-0.771v-6.138c-3.4-1.784-4.623-6.458-4.623-10.04
						c0-0.426,0.346-0.771,0.771-0.771h13.867c0.424,0,0.77,0.345,0.77,0.771c0,3.582-1.223,8.256-4.621,10.04v6.138
						C82.994,46.601,82.648,46.944,82.223,46.944z M78.372,45.403h3.082v-5.854c0-0.311,0.186-0.591,0.471-0.71
						c2.977-1.256,3.973-5.358,4.129-8.073H73.772c0.156,2.715,1.15,6.817,4.129,8.073c0.285,0.12,0.471,0.399,0.471,0.71V45.403z"
						/>
				</g>
				<g>
					<path d="M79.912,50.796c-4.292,0-11.556-0.729-11.556-3.467c0-1.361,1.766-2.36,5.25-2.97c0.424-0.069,0.818,0.208,0.891,0.627
						c0.074,0.418-0.207,0.817-0.625,0.892c-3.092,0.539-3.923,1.296-3.977,1.468c0.209,0.645,3.833,1.909,10.017,1.909
						c6.184,0,9.809-1.265,10.016-1.941c-0.053-0.139-0.881-0.891-3.957-1.433c-0.418-0.074-0.697-0.473-0.625-0.893
						c0.072-0.418,0.469-0.694,0.893-0.625c3.471,0.608,5.229,1.607,5.229,2.966C91.467,50.066,84.203,50.796,79.912,50.796z"/>
				</g>
				<g>
					<path d="M79.912,54.648c-12.009,0-18.489-3.572-18.489-6.934c0-3.661,6.316-5.781,12.226-6.545
						c0.418-0.05,0.809,0.243,0.863,0.666s-0.244,0.809-0.666,0.862c-7.145,0.924-10.882,3.222-10.882,5.017
						c0,2.55,6.96,5.393,16.948,5.393c9.989,0,16.948-2.843,16.948-5.393c0-1.795-3.736-4.093-10.879-5.015
						c-0.422-0.056-0.721-0.441-0.666-0.863c0.055-0.424,0.443-0.713,0.863-0.666c5.91,0.764,12.223,2.884,12.223,6.544
						C98.4,51.076,91.92,54.648,79.912,54.648z"/>
				</g>
			</g>
		</g>
		<path d="M108.463,28.455c-2.973,0-5.393-2.419-5.393-5.393s2.42-5.393,5.393-5.393c2.975,0,5.393,2.419,5.393,5.393
			S111.438,28.455,108.463,28.455z M108.463,19.211c-2.123,0-3.852,1.729-3.852,3.852s1.729,3.852,3.852,3.852
			c2.125,0,3.852-1.729,3.852-3.852S110.588,19.211,108.463,19.211z"/>
		<path d="M110.775,46.944h-4.623c-0.426,0-0.771-0.344-0.771-0.771v-6.138c-3.4-1.784-4.621-6.458-4.621-10.04
			c0-0.426,0.346-0.771,0.77-0.771h13.867c0.426,0,0.771,0.345,0.771,0.771c0,3.582-1.223,8.256-4.623,10.04v6.138
			C111.545,46.601,111.199,46.944,110.775,46.944z M106.922,45.403h3.082v-5.854c0-0.311,0.186-0.591,0.471-0.71
			c2.979-1.256,3.973-5.358,4.129-8.073h-12.281c0.158,2.715,1.15,6.817,4.129,8.073c0.285,0.12,0.471,0.399,0.471,0.71V45.403z"/>
		<path d="M108.463,50.796c-4.291,0-11.555-0.729-11.555-3.467c0-1.361,1.766-2.36,5.248-2.97c0.426-0.069,0.818,0.208,0.893,0.627
			c0.072,0.418-0.207,0.817-0.625,0.892c-3.094,0.539-3.924,1.296-3.977,1.468c0.207,0.645,3.832,1.909,10.016,1.909
			s9.809-1.265,10.018-1.941c-0.053-0.139-0.881-0.891-3.957-1.433c-0.42-0.074-0.699-0.473-0.625-0.893
			c0.072-0.418,0.467-0.694,0.891-0.625c3.471,0.608,5.23,1.607,5.23,2.966C120.02,50.066,112.754,50.796,108.463,50.796z"/>
		<path d="M108.463,54.648c-12.008,0-18.488-3.572-18.488-6.934c0-3.661,6.314-5.781,12.227-6.545
			c0.418-0.05,0.807,0.243,0.863,0.666c0.055,0.423-0.244,0.809-0.666,0.862c-7.145,0.924-10.883,3.222-10.883,5.017
			c0,2.55,6.959,5.393,16.947,5.393s16.949-2.843,16.949-5.393c0-1.795-3.738-4.093-10.879-5.015
			c-0.424-0.056-0.721-0.441-0.666-0.863c0.053-0.424,0.441-0.713,0.861-0.666c5.91,0.764,12.225,2.884,12.225,6.544
			C126.953,51.076,120.473,54.648,108.463,54.648z"/>
	</g>
</g>
<g id="newsHover" display="none">
	<g display="inline">
		<g id="Expanded_5_">
			<g>
				<g>
					<path fill="#FFFFFF" d="M77.511,50.416c-9.374,0-17-7.626-17-17s7.626-17,17-17s17,7.626,17,17S86.885,50.416,77.511,50.416z
						 M77.511,18.416c-8.271,0-15,6.729-15,15s6.729,15,15,15s15-6.729,15-15S85.781,18.416,77.511,18.416z"/>
				</g>
				<g>
					<path fill="#FFFFFF" d="M77.511,55.406c-5.634,0-11.269-2.145-15.557-6.434l1.413-1.414c7.8,7.797,20.488,7.799,28.285,0
						c7.797-7.797,7.797-20.486,0-28.285l1.414-1.414c8.578,8.578,8.578,22.535,0,31.113C88.777,53.262,83.145,55.406,77.511,55.406
						z"/>
				</g>
				<g>
					<rect x="75.511" y="54.393" fill="#FFFFFF" width="2" height="4.049"/>
				</g>
				<g>
					<rect x="77.511" y="54.393" fill="#FFFFFF" width="2" height="4.049"/>
				</g>
				<g>
					<path fill="#FFFFFF" d="M92.477,63.416H62.544l2.403-1.8c3.668-2.748,8.013-4.2,12.562-4.2c4.551,0,8.895,1.452,12.562,4.2
						L92.477,63.416z M69.051,61.416h16.92c-2.617-1.314-5.49-2-8.46-2S71.667,60.102,69.051,61.416z"/>
				</g>
				<g>
					<path fill="#FFFFFF" d="M61.247,50.68c-0.257,0-0.513-0.098-0.707-0.293c-0.392-0.391-0.392-1.023,0-1.414l2.827-2.828
						c0.392-0.391,1.023-0.391,1.414,0c0.392,0.392,0.392,1.023,0,1.414l-2.827,2.828C61.759,50.582,61.503,50.68,61.247,50.68z"/>
				</g>
				<g>
					<path fill="#FFFFFF" d="M90.945,20.98c-0.256,0-0.512-0.098-0.707-0.293c-0.392-0.391-0.392-1.022,0-1.414l2.828-2.828
						c0.391-0.391,1.022-0.391,1.414,0c0.391,0.392,0.391,1.023,0,1.414l-2.828,2.828C91.457,20.885,91.201,20.98,90.945,20.98z"/>
				</g>
			</g>
		</g>
		<circle fill="#FFFFFF" cx="72.574" cy="28.5" r="1.75"/>
		<circle fill="#FFFFFF" cx="83.664" cy="25" r="1.75"/>
		<circle fill="#FFFFFF" cx="83.664" cy="36.633" r="1.75"/>
		<circle fill="#FFFFFF" cx="67.959" cy="44.102" r="1.75"/>
	</g>
</g>
<g id="news" display="none">
	<g display="inline">
		<g id="Expanded_4_">
			<g>
				<g>
					<path d="M77.637,50.416c-9.374,0-17-7.626-17-17s7.626-17,17-17c9.375,0,17,7.626,17,17S87.012,50.416,77.637,50.416z
						 M77.637,18.416c-8.271,0-15,6.729-15,15s6.729,15,15,15c8.271,0,15-6.729,15-15S85.908,18.416,77.637,18.416z"/>
				</g>
				<g>
					<path d="M77.637,55.406c-5.634,0-11.269-2.145-15.557-6.434l1.413-1.414c7.8,7.797,20.489,7.799,28.286,0
						c7.797-7.797,7.797-20.486,0-28.285l1.414-1.414c8.578,8.578,8.578,22.535,0,31.113C88.904,53.262,83.271,55.406,77.637,55.406
						z"/>
				</g>
				<g>
					<rect x="75.637" y="54.393" width="2" height="4.049"/>
				</g>
				<g>
					<rect x="77.637" y="54.393" width="2" height="4.049"/>
				</g>
				<g>
					<path d="M92.604,63.416H62.67l2.403-1.8c3.668-2.748,8.013-4.2,12.562-4.2c4.551,0,8.895,1.452,12.563,4.2L92.604,63.416z
						 M69.177,61.416h16.92c-2.617-1.314-5.491-2-8.46-2S71.793,60.102,69.177,61.416z"/>
				</g>
				<g>
					<path d="M61.374,50.68c-0.257,0-0.513-0.098-0.707-0.293c-0.392-0.391-0.392-1.023,0-1.414l2.827-2.828
						c0.392-0.391,1.023-0.391,1.414,0c0.392,0.392,0.392,1.023,0,1.414l-2.827,2.828C61.885,50.582,61.629,50.68,61.374,50.68z"/>
				</g>
				<g>
					<path d="M91.072,20.98c-0.256,0-0.512-0.098-0.707-0.293c-0.392-0.391-0.392-1.022,0-1.414l2.828-2.828
						c0.391-0.391,1.022-0.391,1.414,0c0.391,0.392,0.391,1.023,0,1.414l-2.828,2.828C91.584,20.885,91.328,20.98,91.072,20.98z"/>
				</g>
			</g>
		</g>
		<circle cx="72.701" cy="28.5" r="1.75"/>
	</g>
</g>
<g id="videosHover" display="none">
	<g display="inline">
		<g id="Expanded_6_">
			<g>
				<g>
					<path fill="#FFFFFF" d="M95.858,56.814H59.489c-2.15,0-3.898-1.748-3.898-3.896V29.537c0-2.148,1.748-3.898,3.898-3.898h36.369
						c2.149,0,3.898,1.75,3.898,3.898v23.381C99.757,55.066,98.008,56.814,95.858,56.814z M59.489,28.238
						c-0.719,0-1.299,0.584-1.299,1.299v23.381c0,0.716,0.58,1.3,1.299,1.3h36.369c0.717,0,1.3-0.584,1.3-1.3V29.537
						c0-0.715-0.583-1.299-1.3-1.299H59.489z"/>
				</g>
				<g>
					<path fill="#FFFFFF" d="M68.58,47.722c-2.866,0-5.195-2.329-5.195-5.196c0-2.865,2.33-5.195,5.195-5.195
						c2.864,0,5.197,2.331,5.197,5.195C73.777,45.393,71.444,47.722,68.58,47.722z M68.58,39.929c-1.433,0-2.597,1.164-2.597,2.597
						c0,1.435,1.164,2.598,2.597,2.598c1.432,0,2.599-1.163,2.599-2.598C71.179,41.093,70.012,39.929,68.58,39.929z"/>
				</g>
				<g>
					<path fill="#FFFFFF" d="M86.766,47.722c-2.867,0-5.195-2.329-5.195-5.196c0-2.865,2.328-5.195,5.195-5.195
						c2.865,0,5.196,2.331,5.196,5.195C91.962,45.393,89.631,47.722,86.766,47.722z M86.766,39.929
						c-1.435,0-2.599,1.164-2.599,2.597c0,1.435,1.164,2.598,2.599,2.598s2.598-1.163,2.598-2.598
						C89.363,41.093,88.2,39.929,86.766,39.929z"/>
				</g>
				<g>
					<path fill="#FFFFFF" d="M86.766,39.929H68.58c-0.719,0-1.298-0.583-1.298-1.299c0-0.717,0.579-1.299,1.298-1.299h18.186
						c0.72,0,1.3,0.583,1.3,1.299C88.065,39.346,87.485,39.929,86.766,39.929z"/>
				</g>
				<g>
					<path fill="#FFFFFF" d="M89.256,28.238c-0.719,0-1.299-0.582-1.299-1.299v-5.195c0-0.715-0.584-1.299-1.3-1.299H60.678
						c-0.719,0-1.298-0.582-1.298-1.299s0.579-1.298,1.298-1.298h25.979c2.147,0,3.896,1.749,3.896,3.897v5.195
						C90.554,27.656,89.974,28.238,89.256,28.238z"/>
				</g>
				<g>
					<path fill="#FFFFFF" d="M112.644,53.518c-0.351,0-0.703-0.068-1.035-0.207l-13.652-5.688c-0.661-0.275-0.977-1.037-0.7-1.698
						c0.277-0.662,1.041-0.975,1.7-0.699l13.652,5.687l0.137-0.092V34.233l-0.639-1.291l0.502,1.197l-13.652,5.69
						c-0.659,0.276-1.423-0.039-1.7-0.701c-0.276-0.661,0.039-1.422,0.7-1.698l13.65-5.688c0.833-0.349,1.783-0.258,2.533,0.247
						c0.755,0.501,1.204,1.342,1.204,2.244V50.82c0,0.902-0.449,1.743-1.201,2.244C113.691,53.365,113.169,53.518,112.644,53.518z"
						/>
				</g>
			</g>
		</g>
		<path fill="none" stroke="#FFFFFF" stroke-width="2.495" stroke-miterlimit="10" d="M56.96,60.213
			c-2.148,0-3.891-1.741-3.891-3.891c0-2.148,1.742-3.89,3.891-3.89"/>
		<path fill="none" stroke="#FFFFFF" stroke-width="2.495" stroke-linecap="round" stroke-miterlimit="10" d="M56.96,60.213
			c2.148,0,3.891,1.741,3.891,3.891c0,2.148-1.742,3.89-3.891,3.89H36.807"/>
		<path fill="none" stroke="#FFFFFF" stroke-width="2.495" stroke-miterlimit="10" d="M68.927,46.507
			c1.636,0,2.963,1.326,2.963,2.962c0,1.638-1.328,2.964-2.963,2.964H56.516"/>
	</g>
</g>
<g id="videos" display="none">
	<g id="Expanded_3_" display="inline">
		<g>
			<g>
				<path d="M95.621,56.85H59.32c-2.143,0-3.889-1.745-3.889-3.89V29.624c0-2.145,1.746-3.891,3.889-3.891h36.301
					c2.146,0,3.891,1.746,3.891,3.891V52.96C99.512,55.104,97.768,56.85,95.621,56.85z M59.32,28.327
					c-0.716,0-1.296,0.583-1.296,1.297V52.96c0,0.715,0.581,1.297,1.296,1.297h36.301c0.715,0,1.297-0.582,1.297-1.297V29.624
					c0-0.714-0.582-1.297-1.297-1.297H59.32z"/>
			</g>
			<g>
				<path d="M68.396,47.773c-2.861,0-5.185-2.325-5.185-5.186c0-2.859,2.324-5.185,5.185-5.185c2.858,0,5.186,2.326,5.186,5.185
					C73.582,45.449,71.254,47.773,68.396,47.773z M68.396,39.996c-1.432,0-2.592,1.162-2.592,2.591c0,1.432,1.161,2.593,2.592,2.593
					c1.43,0,2.593-1.161,2.593-2.593C70.989,41.158,69.826,39.996,68.396,39.996z"/>
			</g>
			<g>
				<path d="M86.547,47.773c-2.861,0-5.186-2.325-5.186-5.186c0-2.859,2.324-5.185,5.186-5.185c2.857,0,5.186,2.326,5.186,5.185
					C91.732,45.449,89.404,47.773,86.547,47.773z M86.547,39.996c-1.432,0-2.594,1.162-2.594,2.591c0,1.432,1.162,2.593,2.594,2.593
					c1.43,0,2.592-1.161,2.592-2.593C89.139,41.158,87.977,39.996,86.547,39.996z"/>
			</g>
			<g>
				<path d="M86.547,39.996H68.396c-0.718,0-1.297-0.582-1.297-1.297c0-0.716,0.579-1.297,1.297-1.297h18.151
					c0.717,0,1.295,0.581,1.295,1.297C87.842,39.414,87.264,39.996,86.547,39.996z"/>
			</g>
			<g>
				<path d="M89.031,28.327c-0.719,0-1.297-0.581-1.297-1.297v-5.185c0-0.714-0.582-1.297-1.295-1.297h-25.93
					c-0.718,0-1.297-0.581-1.297-1.297s0.579-1.295,1.297-1.295h25.93c2.143,0,3.889,1.745,3.889,3.889v5.185
					C90.328,27.746,89.748,28.327,89.031,28.327z"/>
			</g>
			<g>
				<path d="M112.375,53.559c-0.35,0-0.701-0.068-1.033-0.206l-13.625-5.679c-0.662-0.274-0.975-1.035-0.701-1.695
					c0.277-0.661,1.039-0.973,1.699-0.697l13.625,5.676l0.137-0.092V34.311l-0.639-1.288l0.502,1.195l-13.625,5.679
					c-0.66,0.276-1.422-0.039-1.699-0.699c-0.273-0.66,0.039-1.419,0.701-1.695l13.623-5.677c0.832-0.349,1.779-0.257,2.529,0.246
					c0.752,0.5,1.199,1.339,1.199,2.24v16.556c0,0.9-0.447,1.74-1.197,2.24C113.422,53.406,112.898,53.559,112.375,53.559z"/>
			</g>
		</g>
	</g>
</g>
<g id="areaHover" display="none">
	
		<line display="inline" fill="none" stroke="#FFFFFF" stroke-width="1.5" stroke-linecap="round" stroke-linejoin="round" stroke-miterlimit="10" x1="26.493" y1="66.167" x2="133.355" y2="66.167"/>
	
		<rect x="37.129" y="48.917" display="inline" fill="none" stroke="#FFFFFF" stroke-width="2" stroke-linecap="round" stroke-linejoin="round" stroke-miterlimit="10" width="12.471" height="10.5"/>
	
		<rect x="55.409" y="36.167" display="inline" fill="none" stroke="#FFFFFF" stroke-width="2" stroke-linecap="round" stroke-linejoin="round" stroke-miterlimit="10" width="12.471" height="23.25"/>
	
		<rect x="73.688" y="12.501" display="inline" fill="#FFFFFF" stroke="#FFFFFF" stroke-width="2" stroke-linecap="round" stroke-linejoin="round" stroke-miterlimit="10" width="12.47" height="46.916"/>
	
		<rect x="91.967" y="42.667" display="inline" fill="none" stroke="#FFFFFF" stroke-width="2" stroke-linecap="round" stroke-linejoin="round" stroke-miterlimit="10" width="12.471" height="16.75"/>
	
		<rect x="110.246" y="34.667" display="inline" fill="none" stroke="#FFFFFF" stroke-width="2" stroke-linecap="round" stroke-linejoin="round" stroke-miterlimit="10" width="12.471" height="24.75"/>
	
		<line display="inline" fill="none" stroke="#FFFFFF" stroke-width="1.5" stroke-linecap="round" stroke-linejoin="round" stroke-miterlimit="10" x1="69.75" y1="29.183" x2="62.443" y2="21.875"/>
	
		<circle display="inline" fill="none" stroke="#FFFFFF" stroke-width="1.5" stroke-linecap="round" stroke-linejoin="round" stroke-miterlimit="10" cx="57.36" cy="16.479" r="4"/>
</g>
<g id="area" display="none">
	<g display="inline">
		
			<line fill="none" stroke="#000000" stroke-width="1.5" stroke-linecap="round" stroke-linejoin="round" stroke-miterlimit="10" x1="26.568" y1="66" x2="133.432" y2="66"/>
		
			<rect x="37.205" y="25.75" fill="none" stroke="#000000" stroke-width="2" stroke-linecap="round" stroke-linejoin="round" stroke-miterlimit="10" width="12.471" height="33.5"/>
		
			<rect x="55.484" y="38.25" fill="none" stroke="#000000" stroke-width="2" stroke-linecap="round" stroke-linejoin="round" stroke-miterlimit="10" width="12.471" height="21"/>
		
			<rect x="73.764" y="17.5" fill="none" stroke="#000000" stroke-width="2" stroke-linecap="round" stroke-linejoin="round" stroke-miterlimit="10" width="12.471" height="41.75"/>
		
			<rect x="92.043" y="34.688" fill="none" stroke="#000000" stroke-width="2" stroke-linecap="round" stroke-linejoin="round" stroke-miterlimit="10" width="12.471" height="24.562"/>
		
			<rect x="110.322" y="25.75" fill="none" stroke="#000000" stroke-width="2" stroke-linecap="round" stroke-linejoin="round" stroke-miterlimit="10" width="12.471" height="33.5"/>
		
			<line fill="none" stroke="#231F20" stroke-width="1.5" stroke-linecap="round" stroke-linejoin="round" stroke-miterlimit="10" x1="90.066" y1="29.766" x2="97.374" y2="22.458"/>
		
			<circle fill="none" stroke="#231F20" stroke-width="1.5" stroke-linecap="round" stroke-linejoin="round" stroke-miterlimit="10" cx="102.457" cy="17.062" r="4"/>
	</g>
</g>
</svg>
