<?xml version="1.0" encoding="utf-8"?>
<!-- Generator: Adobe Illustrator 16.0.4, SVG Export Plug-In . SVG Version: 6.00 Build 0)  -->
<!DOCTYPE svg PUBLIC "-//W3C//DTD SVG 1.1//EN" "http://www.w3.org/Graphics/SVG/1.1/DTD/svg11.dtd">
<svg version="1.1" id="Layer_1" xmlns="http://www.w3.org/2000/svg" xmlns:xlink="http://www.w3.org/1999/xlink" x="0px" y="0px"
	 width="67px" height="44px" viewBox="0 0 67 44" enable-background="new 0 0 67 44" xml:space="preserve">
<g id="Expanded_30_">
	<g>
		<g>
			<path fill="#4D4E50" d="M45.153,44H4.371C1.962,44,0,42.026,0,39.602V13.201c0-2.427,1.962-4.4,4.371-4.4h40.783
				c2.409,0,4.368,1.974,4.368,4.4v26.401C49.521,42.026,47.562,44,45.153,44z M4.371,11.734c-0.805,0-1.458,0.66-1.458,1.467
				v26.401c0,0.806,0.652,1.466,1.458,1.466h40.783c0.803,0,1.455-0.661,1.455-1.466V13.201c0-0.807-0.652-1.467-1.455-1.467H4.371z
				"/>
		</g>
		<g>
			<path fill="#4D4E50" d="M14.566,33.733c-3.214,0-5.825-2.629-5.825-5.866c0-3.235,2.611-5.866,5.825-5.866
				c3.211,0,5.825,2.631,5.825,5.866C20.391,31.104,17.777,33.733,14.566,33.733z M14.566,24.936c-1.609,0-2.912,1.314-2.912,2.932
				c0,1.619,1.303,2.931,2.912,2.931c1.606,0,2.913-1.312,2.913-2.931C17.479,26.25,16.172,24.936,14.566,24.936z"/>
		</g>
		<g>
			<path fill="#4D4E50" d="M34.958,33.733c-3.213,0-5.826-2.629-5.826-5.866c0-3.235,2.613-5.866,5.826-5.866
				c3.209,0,5.825,2.631,5.825,5.866C40.783,31.104,38.167,33.733,34.958,33.733z M34.958,24.936c-1.609,0-2.913,1.314-2.913,2.932
				c0,1.619,1.304,2.931,2.913,2.931c1.607,0,2.912-1.312,2.912-2.931C37.87,26.25,36.564,24.936,34.958,24.936z"/>
		</g>
		<g>
			<path fill="#4D4E50" d="M34.958,24.936H14.566c-0.807,0-1.458-0.66-1.458-1.468c0-0.81,0.65-1.466,1.458-1.466h20.391
				c0.804,0,1.455,0.656,1.455,1.466C36.412,24.276,35.762,24.936,34.958,24.936z"/>
		</g>
		<g>
			<path fill="#4D4E50" d="M37.748,11.734c-0.806,0-1.456-0.657-1.456-1.467V4.401c0-0.807-0.655-1.468-1.456-1.468H5.706
				c-0.806,0-1.457-0.657-1.457-1.467C4.249,0.657,4.899,0,5.706,0h29.131c2.407,0,4.368,1.974,4.368,4.401v5.866
				C39.205,11.077,38.554,11.734,37.748,11.734z"/>
		</g>
		<g>
			<path fill="#4D4E50" d="M63.974,40.276c-0.393,0-0.789-0.077-1.16-0.231l-15.309-6.424c-0.743-0.31-1.095-1.171-0.787-1.918
				c0.312-0.746,1.167-1.101,1.908-0.789l15.308,6.421l0.154-0.101v-18.73l-0.717-1.458l0.563,1.354l-15.308,6.423
				c-0.741,0.312-1.597-0.045-1.908-0.792c-0.308-0.746,0.043-1.604,0.787-1.917l15.305-6.421c0.936-0.396,2-0.292,2.842,0.277
				C66.497,16.534,67,17.485,67,18.503v18.73c0,1.018-0.503,1.966-1.346,2.531C65.149,40.105,64.562,40.276,63.974,40.276z"/>
		</g>
	</g>
</g>
</svg>
