<?xml version="1.0" encoding="utf-8"?>
<!-- Generator: Adobe Illustrator 16.0.4, SVG Export Plug-In . SVG Version: 6.00 Build 0)  -->
<!DOCTYPE svg PUBLIC "-//W3C//DTD SVG 1.1//EN" "http://www.w3.org/Graphics/SVG/1.1/DTD/svg11.dtd">
<svg version="1.1" id="Layer_1" xmlns="http://www.w3.org/2000/svg" xmlns:xlink="http://www.w3.org/1999/xlink" x="0px" y="0px"
	 width="57px" height="58px" viewBox="0 0 57 58" enable-background="new 0 0 57 58" xml:space="preserve">
<g>
	
		<path fill="none" stroke="#000000" stroke-width="2.3922" stroke-linecap="round" stroke-linejoin="round" stroke-miterlimit="10" d="
		M8.875,47.127C4.009,42.262,1,35.537,1,28.111C1,13.259,13.041,1.22,27.892,1.22c3.365,0,6.583,0.618,9.552,1.745"/>
	<g>
		
			<path fill="none" stroke="#000000" stroke-width="2.3922" stroke-linecap="round" stroke-linejoin="round" stroke-miterlimit="10" d="
			M48.01,10.858c4.867,4.866,7.878,11.59,7.878,19.017c0,14.852-12.041,26.892-26.893,26.892c-3.4,0-6.655-0.632-9.649-1.784"/>
		
			<polygon fill="none" stroke="#000000" stroke-width="2.3922" stroke-linecap="round" stroke-linejoin="round" stroke-miterlimit="10" points="
			44.29,14.506 41.618,4.535 51.588,7.207 		"/>
	</g>
	
		<polygon fill="none" stroke="#000000" stroke-width="2.3922" stroke-linecap="round" stroke-linejoin="round" stroke-miterlimit="10" points="
		12.541,43.427 15.211,53.398 5.24,50.727 	"/>
</g>
<g>
	
		<circle fill="none" stroke="#000000" stroke-width="2.0463" stroke-linecap="round" stroke-linejoin="round" stroke-miterlimit="10" cx="28.569" cy="29.201" r="13.557"/>
	
		<path fill="none" stroke="#000000" stroke-width="1.1961" stroke-linecap="round" stroke-linejoin="round" stroke-miterlimit="10" d="
		M29.165,15.891c4.75,2.539,7.982,7.547,7.982,13.311c0,5.726-3.19,10.707-7.894,13.261"/>
	
		<path fill="none" stroke="#000000" stroke-width="1.1961" stroke-linecap="round" stroke-linejoin="round" stroke-miterlimit="10" d="
		M38.14,19.589c-2.614,2.177-5.976,3.487-9.645,3.487c-3.632,0-6.964-1.284-9.566-3.422"/>
	
		<path fill="none" stroke="#000000" stroke-width="1.1961" stroke-linecap="round" stroke-linejoin="round" stroke-miterlimit="10" d="
		M18.929,38.773c2.615-2.178,5.977-3.486,9.645-3.486c3.632,0,6.964,1.283,9.566,3.421"/>
	
		<path fill="none" stroke="#000000" stroke-width="1.1961" stroke-linecap="round" stroke-linejoin="round" stroke-miterlimit="10" d="
		M28.188,42.462c-4.75-2.539-7.983-7.547-7.983-13.31c0-5.727,3.191-10.707,7.894-13.262"/>
	
		<line fill="none" stroke="#000000" stroke-width="1.1961" stroke-linecap="round" stroke-linejoin="round" stroke-miterlimit="10" x1="28.569" y1="15.695" x2="28.569" y2="42.807"/>
	
		<line fill="none" stroke="#000000" stroke-width="1.1961" stroke-linecap="round" stroke-linejoin="round" stroke-miterlimit="10" x1="42.125" y1="29.251" x2="15.014" y2="29.251"/>
</g>
</svg>
