<?xml version="1.0" encoding="utf-8"?>
<!-- Generator: Adobe Illustrator 16.0.4, SVG Export Plug-In . SVG Version: 6.00 Build 0)  -->
<!DOCTYPE svg PUBLIC "-//W3C//DTD SVG 1.1//EN" "http://www.w3.org/Graphics/SVG/1.1/DTD/svg11.dtd">
<svg version="1.1" id="Layer_1" xmlns="http://www.w3.org/2000/svg" xmlns:xlink="http://www.w3.org/1999/xlink" x="0px" y="0px"
	 width="61px" height="61px" viewBox="0 0 61 61" enable-background="new 0 0 61 61" xml:space="preserve">
<g>
	<g id="Expanded_1_">
		<g>
			<g>
				<path d="M30.55,38.155c-9.087,0-16.478-8.562-16.478-19.079C14.072,8.557,21.463,0,30.55,0c9.09,0,16.481,8.557,16.481,19.076
					C47.031,29.593,39.641,38.155,30.55,38.155z M30.55,2.542c-7.681,0-13.937,7.416-13.937,16.534
					c0,9.116,6.256,16.532,13.937,16.532c7.684,0,13.937-7.416,13.937-16.532C44.487,9.958,38.234,2.542,30.55,2.542z"/>
			</g>
			<g>
				<path d="M2.541,58.501v-6.069c0-2.681,1.698-5.088,4.133-5.961l17.468-4.807V34.44h-2.549v5.287L5.906,44.049
					C2.376,45.312,0,48.678,0,52.432v8.61h16.488c0,0,0.979-0.201,0.979-1.276c0-1.079-0.979-1.265-0.979-1.265H2.541z"/>
				<path d="M61,52.432c0-3.754-2.379-7.119-6.002-8.414l-15.602-4.291v-5.229h-2.541v7.167l17.379,4.78
					c2.522,0.899,4.22,3.307,4.22,5.987v6.069H44.894c0,0-1.221-0.039-1.221,1.265c0,1.297,1.221,1.276,1.221,1.276H61V52.432z"/>
			</g>
			<g>
				<path d="M41.684,16.81c-0.085,0-0.17-0.002-0.255-0.006c-2.865-0.104-6.202-1.913-8.321-4.363
					c-1.483,1.89-3.599,3.105-6.22,3.551c-4.583,0.787-9.833-0.971-11.428-2.52l1.772-1.827c0.769,0.745,5.132,2.535,9.225,1.839
					c2.542-0.433,4.378-1.738,5.446-3.878l1.065-2.128l1.176,2.063c1.409,2.466,4.788,4.626,7.374,4.72
					c1.153,0.031,1.972-0.313,2.499-1.09l2.109,1.421C45.157,16.028,43.591,16.81,41.684,16.81z"/>
			</g>
		</g>
	</g>
</g>
</svg>
