<?xml version="1.0" encoding="utf-8"?>
<!-- Generator: Adobe Illustrator 16.0.4, SVG Export Plug-In . SVG Version: 6.00 Build 0)  -->
<!DOCTYPE svg PUBLIC "-//W3C//DTD SVG 1.1//EN" "http://www.w3.org/Graphics/SVG/1.1/DTD/svg11.dtd">
<svg version="1.1" id="Layer_1" xmlns="http://www.w3.org/2000/svg" xmlns:xlink="http://www.w3.org/1999/xlink" x="0px" y="0px"
	 width="48px" height="48px" viewBox="0 0 48 48" enable-background="new 0 0 48 48" xml:space="preserve">
<g id="documents_5_">
	<g>
		<g id="Expanded_61_">
			<g>
				<g>
					<path d="M36.999,48H0V4h28.999c0.553,0,1,0.447,1,1c0,0.554-0.447,1-1,1H2v40h32.999V24c0-0.553,0.446-1,1-1
						c0.551,0,1,0.447,1,1V48z"/>
				</g>
				<g>
					<path d="M22,17"/>
				</g>
				<g>
					<path d="M21.637,27.363c-0.26,0-0.516-0.102-0.709-0.293c-0.303-0.305-0.38-0.77-0.188-1.154l2.828-5.655
						c0.049-0.097,0.111-0.185,0.188-0.261L42.849,0.906C43.443,0.312,44.165,0,44.939,0c1.212,0,2.353,0.785,2.835,1.951
						c0.46,1.113,0.206,2.31-0.685,3.197L27.999,24.242c-0.076,0.074-0.164,0.139-0.261,0.188l-5.655,2.828
						C21.942,27.33,21.79,27.363,21.637,27.363z M25.287,21.299l-1.413,2.829l2.827-1.415L45.679,3.734
						c0.313-0.313,0.397-0.656,0.25-1.02C45.756,2.309,45.333,2,44.939,2c-0.237,0-0.463,0.107-0.676,0.32L25.287,21.299z"/>
				</g>
				<g>
					<path d="M43.557,8.271c-0.257,0-0.513-0.099-0.708-0.293l-2.827-2.83c-0.392-0.391-0.392-1.023,0-1.414
						c0.391-0.391,1.022-0.391,1.414,0l2.828,2.828c0.391,0.393,0.391,1.024,0,1.416C44.065,8.175,43.812,8.271,43.557,8.271z"/>
				</g>
			</g>
		</g>
		
			<line fill="none" stroke="#000000" stroke-width="1.5" stroke-linecap="round" stroke-linejoin="round" stroke-miterlimit="10" x1="7.349" y1="12.75" x2="26.348" y2="12.75"/>
		
			<line fill="none" stroke="#000000" stroke-width="1.5" stroke-linecap="round" stroke-linejoin="round" stroke-miterlimit="10" x1="7.349" y1="19.375" x2="17.848" y2="19.375"/>
		
			<line fill="none" stroke="#000000" stroke-width="1.5" stroke-linecap="round" stroke-linejoin="round" stroke-miterlimit="10" x1="7.349" y1="26" x2="17.182" y2="26"/>
		
			<line fill="none" stroke="#000000" stroke-width="1.5" stroke-linecap="round" stroke-linejoin="round" stroke-miterlimit="10" x1="7.349" y1="32.625" x2="30.264" y2="32.625"/>
		
			<line fill="none" stroke="#000000" stroke-width="1.5" stroke-linecap="round" stroke-linejoin="round" stroke-miterlimit="10" x1="7.349" y1="39.25" x2="29.682" y2="39.25"/>
	</g>
</g>
</svg>
