<?xml version="1.0" encoding="utf-8"?>
<!-- Generator: Adobe Illustrator 16.0.4, SVG Export Plug-In . SVG Version: 6.00 Build 0)  -->
<!DOCTYPE svg PUBLIC "-//W3C//DTD SVG 1.1//EN" "http://www.w3.org/Graphics/SVG/1.1/DTD/svg11.dtd">
<svg version="1.1" id="Layer_1" xmlns="http://www.w3.org/2000/svg" xmlns:xlink="http://www.w3.org/1999/xlink" x="0px" y="0px"
	 width="92px" height="38px" viewBox="0 0 92 38" enable-background="new 0 0 92 38" xml:space="preserve">
<g>
	<g>
		<g id="Expanded_29_">
			<g>
				<g>
					<path fill="#231F20" d="M45.89,23.75c-5.664,0-10.273-5.327-10.273-11.875C35.616,5.327,40.224,0,45.89,0
						c5.665,0,10.274,5.327,10.274,11.875C56.164,18.424,51.554,23.75,45.89,23.75z M45.89,1.583c-4.791,0-8.687,4.619-8.687,10.292
						c0,5.676,3.896,10.292,8.687,10.292c4.79,0,8.687-4.616,8.687-10.292C54.577,6.201,50.68,1.583,45.89,1.583z"/>
				</g>
				<g>
					<path fill="#231F20" d="M41.892,21.44h-1.585v3.29l-3.985,1.097c0,0,0.312,0.794,0.808,1.01c0.495,0.216,1.485,0,1.485,0
						l3.277-0.901V21.44z"/>
					<path fill="#231F20" d="M49.819,21.44h1.586v3.29l3.985,1.097c0,0-0.312,0.794-0.808,1.01c-0.496,0.216-1.487,0-1.487,0
						l-3.276-0.901V21.44z"/>
				</g>
				<g>
					<path fill="#231F20" d="M52.833,10.465c-0.055,0-0.107-0.002-0.164-0.004c-1.784-0.064-3.864-1.192-5.185-2.715
						c-0.925,1.176-2.245,1.932-3.879,2.209c-2.858,0.49-6.127-0.605-7.12-1.568l1.103-1.138c0.48,0.465,3.201,1.578,5.752,1.146
						c1.583-0.269,2.725-1.083,3.393-2.416l0.664-1.323l0.734,1.283c0.876,1.536,2.984,2.88,4.6,2.939
						c0.718,0.018,1.228-0.196,1.553-0.679l1.315,0.885C54.995,9.978,54.019,10.465,52.833,10.465z"/>
				</g>
			</g>
		</g>
	</g>
	<g>
		<g id="Expanded_28_">
			<g>
				<g>
					<path fill="#231F20" d="M19.046,23.75c-5.665,0-10.272-5.327-10.272-11.875C8.774,5.327,13.381,0,19.046,0
						s10.272,5.327,10.272,11.875C29.319,18.424,24.711,23.75,19.046,23.75z M19.046,1.583c-4.79,0-8.688,4.619-8.688,10.292
						c0,5.676,3.898,10.292,8.688,10.292c4.79,0,8.688-4.616,8.688-10.292C27.734,6.201,23.836,1.583,19.046,1.583z"/>
				</g>
				<g>
					<path fill="#231F20" d="M1.586,36.418v-3.779c0-1.667,1.058-3.166,2.573-3.709l10.89-2.994V21.44h-1.587v3.29l-9.779,2.691
						C1.481,28.206,0,30.303,0,32.639V38h10.281c0,0,0.612-0.127,0.612-0.796c0-0.67-0.612-0.786-0.612-0.786H1.586z"/>
					<path fill="#231F20" d="M38.025,32.639c0-2.336-1.48-4.433-3.738-5.235l-9.724-2.674v-3.254h-1.586v4.46l10.833,2.975
						c1.573,0.562,2.63,2.061,2.63,3.728v3.779h-8.454c0,0-0.759-0.025-0.759,0.786c0,0.81,0.759,0.796,0.759,0.796h10.039V32.639z"
						/>
				</g>
				<g>
					<path fill="#231F20" d="M25.99,10.465c-0.055,0-0.109-0.002-0.164-0.004c-1.785-0.064-3.865-1.192-5.186-2.715
						c-0.923,1.176-2.243,1.932-3.877,2.209c-2.858,0.49-6.127-0.605-7.121-1.568l1.104-1.138c0.478,0.465,3.2,1.578,5.75,1.146
						c1.584-0.269,2.725-1.083,3.394-2.416l0.663-1.323l0.735,1.283c0.877,1.536,2.983,2.88,4.598,2.939
						c0.718,0.018,1.229-0.196,1.555-0.679l1.315,0.885C28.151,9.978,27.174,10.465,25.99,10.465z"/>
				</g>
			</g>
		</g>
	</g>
	<g>
		<g id="Expanded_27_">
			<g>
				<g>
					<path fill="#231F20" d="M73.02,23.75c-5.663,0-10.272-5.327-10.272-11.875C62.748,5.327,67.355,0,73.02,0
						s10.274,5.327,10.274,11.875C83.294,18.424,78.685,23.75,73.02,23.75z M73.02,1.583c-4.789,0-8.686,4.619-8.686,10.292
						c0,5.676,3.897,10.292,8.686,10.292c4.791,0,8.688-4.616,8.688-10.292C81.708,6.201,77.811,1.583,73.02,1.583z"/>
				</g>
				<g>
					<path fill="#231F20" d="M55.561,36.418v-3.779c0-1.667,1.058-3.166,2.574-3.709l10.889-2.994V21.44h-1.584v3.29l-9.781,2.691
						c-2.201,0.785-3.682,2.882-3.682,5.218V38h10.28c0,0,0.61-0.127,0.61-0.796c0-0.67-0.61-0.786-0.61-0.786H55.561z"/>
					<path fill="#231F20" d="M92,32.639c0-2.336-1.481-4.433-3.739-5.235l-9.724-2.674v-3.254H76.95v4.46l10.833,2.975
						c1.575,0.562,2.633,2.061,2.633,3.728v3.779H81.96c0,0-0.759-0.025-0.759,0.786c0,0.81,0.759,0.796,0.759,0.796H92V32.639z"/>
				</g>
				<g>
					<path fill="#231F20" d="M79.963,10.465c-0.055,0-0.109-0.002-0.164-0.004c-1.784-0.064-3.864-1.192-5.185-2.715
						c-0.923,1.176-2.244,1.932-3.877,2.209c-2.857,0.49-6.127-0.605-7.121-1.568l1.104-1.138c0.478,0.465,3.198,1.578,5.751,1.146
						c1.583-0.269,2.724-1.083,3.392-2.416l0.664-1.323l0.733,1.283c0.878,1.536,2.984,2.88,4.598,2.939
						c0.72,0.018,1.229-0.196,1.558-0.679l1.313,0.885C82.125,9.978,81.15,10.465,79.963,10.465z"/>
				</g>
			</g>
		</g>
	</g>
</g>
</svg>
