<?xml version="1.0" encoding="utf-8"?>
<!-- Generator: Adobe Illustrator 16.0.4, SVG Export Plug-In . SVG Version: 6.00 Build 0)  -->
<!DOCTYPE svg PUBLIC "-//W3C//DTD SVG 1.1//EN" "http://www.w3.org/Graphics/SVG/1.1/DTD/svg11.dtd">
<svg version="1.1" id="Layer_1" xmlns="http://www.w3.org/2000/svg" xmlns:xlink="http://www.w3.org/1999/xlink" x="0px" y="0px"
	 width="45px" height="54px" viewBox="0 0 45 54" enable-background="new 0 0 45 54" xml:space="preserve">
<g>
	<g id="Expanded_34_">
		<g>
			<g>
				<path d="M19.687,39.073c-10.689,0-19.386-8.696-19.386-19.386S8.997,0.301,19.687,0.301s19.387,8.696,19.387,19.386
					S30.376,39.073,19.687,39.073z M19.687,2.583c-9.432,0-17.104,7.672-17.104,17.104s7.673,17.104,17.104,17.104
					s17.105-7.672,17.105-17.104S29.118,2.583,19.687,2.583z"/>
			</g>
			<g>
				<path d="M19.687,44.763c-6.424,0-12.849-2.445-17.739-7.337l1.611-1.611c8.895,8.891,23.364,8.893,32.255,0
					c8.891-8.892,8.891-23.361,0-32.256l1.612-1.611c9.782,9.781,9.782,25.697,0,35.479C32.534,42.318,26.111,44.763,19.687,44.763z
					"/>
			</g>
			<g>
				<rect x="17.406" y="43.608" width="2.28" height="4.616"/>
			</g>
			<g>
				<rect x="19.687" y="43.608" width="2.281" height="4.616"/>
			</g>
			<g>
				<path d="M36.753,53.897H2.619l2.74-2.053c4.183-3.133,9.138-4.789,14.326-4.789c5.19,0,10.144,1.656,14.325,4.789L36.753,53.897
					z M10.04,51.616h19.295c-2.985-1.498-6.262-2.279-9.648-2.279C16.301,49.336,13.023,50.118,10.04,51.616z"/>
			</g>
			<g>
				<path d="M1.141,39.374c-0.292,0-0.584-0.111-0.806-0.334c-0.446-0.445-0.446-1.168,0-1.613l3.224-3.225
					c0.446-0.445,1.167-0.445,1.613,0c0.445,0.447,0.445,1.167,0,1.613L1.947,39.04C1.725,39.262,1.433,39.374,1.141,39.374z"/>
			</g>
			<g>
				<path d="M35.007,5.506c-0.291,0-0.584-0.111-0.807-0.334c-0.445-0.445-0.445-1.166,0-1.613l3.226-3.225
					c0.445-0.445,1.166-0.445,1.612,0c0.445,0.447,0.445,1.168,0,1.613l-3.225,3.225C35.591,5.397,35.299,5.506,35.007,5.506z"/>
			</g>
		</g>
	</g>
	<circle cx="14.057" cy="14.081" r="1.996"/>
</g>
</svg>
