<?xml version="1.0" encoding="utf-8"?>
<!-- Generator: Adobe Illustrator 16.0.4, SVG Export Plug-In . SVG Version: 6.00 Build 0)  -->
<!DOCTYPE svg PUBLIC "-//W3C//DTD SVG 1.1//EN" "http://www.w3.org/Graphics/SVG/1.1/DTD/svg11.dtd">
<svg version="1.1" id="Layer_1" xmlns="http://www.w3.org/2000/svg" xmlns:xlink="http://www.w3.org/1999/xlink" x="0px" y="0px"
	 width="35px" height="46px" viewBox="0 0 35 46" enable-background="new 0 0 35 46" xml:space="preserve">
<g id="Expanded_35_">
	<g>
		<g>
			<ellipse cx="17.5" cy="28.75" rx="1.946" ry="1.918"/>
		</g>
		<g>
			<path d="M17.5,36.416c-0.537,0-0.971-0.43-0.971-0.961v-5.748c0-0.529,0.435-0.957,0.971-0.957s0.971,0.428,0.971,0.957v5.748
				C18.471,35.986,18.037,36.416,17.5,36.416z"/>
		</g>
		<g>
			<path d="M35,46H0V17.249h35V46z M1.942,44.078h31.113V19.166H1.942V44.078z"/>
		</g>
		<g>
			<path d="M29.166,18.208H27.22V11.5c0-5.281-4.36-9.583-9.72-9.583c-5.363,0-9.72,4.303-9.72,9.583H5.832
				C5.832,5.158,11.067,0,17.5,0s11.666,5.158,11.666,11.5V18.208z"/>
		</g>
	</g>
</g>
</svg>
