<?xml version="1.0" encoding="utf-8"?>
<!-- Generator: Adobe Illustrator 16.0.4, SVG Export Plug-In . SVG Version: 6.00 Build 0)  -->
<!DOCTYPE svg PUBLIC "-//W3C//DTD SVG 1.1//EN" "http://www.w3.org/Graphics/SVG/1.1/DTD/svg11.dtd">
<svg version="1.1" id="Layer_1" xmlns="http://www.w3.org/2000/svg" xmlns:xlink="http://www.w3.org/1999/xlink" x="0px" y="0px"
	 width="49px" height="63px" viewBox="0 0 49 63" enable-background="new 0 0 49 63" xml:space="preserve">
<polyline fill="none" stroke="#000000" stroke-width="4.8593" stroke-linecap="round" stroke-linejoin="round" stroke-miterlimit="10" points="
	9.585,60.375 20.811,35.926 29.012,35.926 39.489,60.375 "/>
<line fill="none" stroke="#000000" stroke-width="4.8593" stroke-linecap="round" stroke-linejoin="round" stroke-miterlimit="10" x1="25.822" y1="44.127" x2="17.045" y2="44.127"/>
<line fill="none" stroke="#000000" stroke-width="4.8593" stroke-linecap="round" stroke-linejoin="round" stroke-miterlimit="10" x1="29.467" y1="53.541" x2="12.724" y2="53.541"/>
<circle cx="24.537" cy="24.537" r="4.929"/>
<path fill="none" stroke="#000000" stroke-width="0.9111" stroke-miterlimit="10" d="M14.229,34.845
	c-2.638-2.638-4.27-6.282-4.27-10.308c0-8.051,6.527-14.578,14.578-14.578c8.052,0,14.578,6.527,14.578,14.578
	c0,3.78-1.439,7.225-3.8,9.816"/>
<path fill="none" stroke="#000000" stroke-width="1.8223" stroke-miterlimit="10" d="M8.627,41.883C3.938,37.58,1,31.402,1,24.537
	C1,11.537,11.538,1,24.537,1s23.537,10.537,23.537,23.537c0,7.213-3.244,13.67-8.354,17.986"/>
</svg>
