<?xml version="1.0" encoding="utf-8"?>
<!-- Generator: Adobe Illustrator 16.0.4, SVG Export Plug-In . SVG Version: 6.00 Build 0)  -->
<!DOCTYPE svg PUBLIC "-//W3C//DTD SVG 1.1//EN" "http://www.w3.org/Graphics/SVG/1.1/DTD/svg11.dtd">
<svg version="1.1" id="Layer_1" xmlns="http://www.w3.org/2000/svg" xmlns:xlink="http://www.w3.org/1999/xlink" x="0px" y="0px"
	 width="61px" height="81px" viewBox="0 0 61 81" enable-background="new 0 0 61 81" xml:space="preserve">
<g>
	<g id="Expanded_15_">
		<g>
			<g>
				<path d="M30.553,38.027c-9.087,0-16.48-8.529-16.48-19.014S21.464,0,30.553,0c9.088,0,16.48,8.529,16.48,19.014
					S39.641,38.027,30.553,38.027z M30.553,2.535c-7.684,0-13.937,7.393-13.937,16.479s6.252,16.479,13.937,16.479
					c7.683,0,13.937-7.393,13.937-16.479S38.236,2.535,30.553,2.535z"/>
			</g>
			<g>
				<path d="M2.542,58.309V52.26c0-2.671,1.697-5.07,4.13-5.94l17.468-4.792V34.33h-2.543v5.268L5.908,43.904
					C2.375,45.161,0,48.52,0,52.26v8.584h16.491c0,0,0.981-0.203,0.981-1.276s-0.981-1.259-0.981-1.259H2.542z"/>
				<path d="M60.999,52.26c0-3.74-2.373-7.098-5.998-8.385l-15.6-4.278v-5.214h-2.543v7.145l17.377,4.763
					c2.525,0.898,4.221,3.299,4.221,5.969v6.049H44.895c0,0-1.219-0.038-1.219,1.259c0,1.298,1.219,1.276,1.219,1.276h16.104V52.26z
					"/>
			</g>
			<g>
				<path d="M41.69,16.756c-0.087,0-0.174-0.003-0.262-0.007c-2.862-0.104-6.199-1.909-8.319-4.348
					c-1.482,1.884-3.601,3.095-6.222,3.539c-4.585,0.784-9.829-0.969-11.423-2.511l1.771-1.822c0.768,0.745,5.132,2.527,9.226,1.834
					c2.541-0.431,4.372-1.733,5.444-3.867l1.063-2.119l1.179,2.056c1.407,2.457,4.786,4.611,7.376,4.705
					c1.153,0.03,1.971-0.312,2.494-1.087l2.111,1.416C45.159,15.976,43.593,16.756,41.69,16.756z"/>
			</g>
		</g>
	</g>
	<g>
		
			<path fill="none" stroke="#000000" stroke-width="2.5394" stroke-linecap="round" stroke-linejoin="round" stroke-miterlimit="10" d="
			M36.641,53.494c3.228,3.219,3.229,8.436,0,11.654c-3.229,3.217-8.463,3.217-11.691,0c-3.229-3.219-3.229-8.436,0-11.654
			C28.178,50.277,33.412,50.277,36.641,53.494z"/>
		
			<line fill="none" stroke="#000000" stroke-width="2.5394" stroke-linecap="round" stroke-linejoin="round" stroke-miterlimit="10" x1="30.794" y1="68.021" x2="30.794" y2="79.76"/>
	</g>
</g>
</svg>
