<?xml version="1.0" encoding="utf-8"?>
<!-- Generator: Adobe Illustrator 16.0.4, SVG Export Plug-In . SVG Version: 6.00 Build 0)  -->
<!DOCTYPE svg PUBLIC "-//W3C//DTD SVG 1.1//EN" "http://www.w3.org/Graphics/SVG/1.1/DTD/svg11.dtd">
<svg version="1.1" id="Layer_1" xmlns="http://www.w3.org/2000/svg" xmlns:xlink="http://www.w3.org/1999/xlink" x="0px" y="0px"
	 width="62px" height="48px" viewBox="0 0 62 48" enable-background="new 0 0 62 48" xml:space="preserve">
<g>
	
		<polyline fill="none" stroke="#231F20" stroke-width="2" stroke-linecap="round" stroke-linejoin="round" stroke-miterlimit="10" points="
		9,42.999 9,1 61,1 61,42.999 	"/>
	<path fill="none" stroke="#231F20" stroke-width="2" stroke-linecap="round" stroke-linejoin="round" stroke-miterlimit="10" d="
		M9.198,42.953C9.198,45.219,7.403,47,5.1,47C2.794,47,1,45.104,1,42.836v-5.138V6h8"/>
	<path fill="none" stroke="#231F20" stroke-width="2" stroke-linecap="round" stroke-linejoin="round" stroke-miterlimit="10" d="
		M60.915,42.893c0,2.267-1.781,4.105-4.088,4.105h-1.424H5"/>
	
		<line fill="none" stroke="#231F20" stroke-width="2" stroke-linecap="round" stroke-linejoin="round" stroke-miterlimit="10" x1="4" y1="45.999" x2="4" y2="4"/>
	
		<line fill="none" stroke="#231F20" stroke-width="2" stroke-linecap="round" stroke-linejoin="round" stroke-miterlimit="10" x1="6" y1="45.999" x2="6" y2="3"/>
	
		<line fill="none" stroke="#231F20" stroke-width="2" stroke-linecap="round" stroke-linejoin="round" stroke-miterlimit="10" x1="15" y1="17" x2="40" y2="17"/>
	
		<line fill="none" stroke="#231F20" stroke-width="2" stroke-linecap="round" stroke-linejoin="round" stroke-miterlimit="10" x1="15" y1="21" x2="36" y2="21"/>
	
		<line fill="none" stroke="#231F20" stroke-width="2" stroke-linecap="round" stroke-linejoin="round" stroke-miterlimit="10" x1="15" y1="24.999" x2="32" y2="24.999"/>
	
		<line fill="none" stroke="#231F20" stroke-width="2" stroke-linecap="round" stroke-linejoin="round" stroke-miterlimit="10" x1="19" y1="28.999" x2="28" y2="28.999"/>
	
		<path fill="none" stroke="#231F20" stroke-width="2.0499" stroke-linecap="round" stroke-linejoin="round" stroke-miterlimit="10" d="
		M55.717,17.15"/>
	
		<path fill="none" stroke="#231F20" stroke-width="2.0499" stroke-linecap="round" stroke-linejoin="round" stroke-miterlimit="10" d="
		M30.529,17.15"/>
	
		<line fill="none" stroke="#231F20" stroke-width="2" stroke-linecap="round" stroke-linejoin="round" stroke-miterlimit="10" x1="53" y1="21" x2="56" y2="21"/>
	
		<line fill="none" stroke="#231F20" stroke-width="2" stroke-linecap="round" stroke-linejoin="round" stroke-miterlimit="10" x1="49" y1="24.999" x2="56" y2="24.999"/>
	
		<line fill="none" stroke="#231F20" stroke-width="2" stroke-linecap="round" stroke-linejoin="round" stroke-miterlimit="10" x1="45" y1="28.999" x2="56" y2="28.999"/>
	
		<line fill="none" stroke="#231F20" stroke-width="2" stroke-linecap="round" stroke-linejoin="round" stroke-miterlimit="10" x1="41" y1="32.999" x2="56" y2="32.999"/>
	
		<line fill="none" stroke="#231F20" stroke-width="2" stroke-linecap="round" stroke-linejoin="round" stroke-miterlimit="10" x1="37" y1="36.999" x2="56" y2="36.999"/>
	
		<line fill="none" stroke="#231F20" stroke-width="2" stroke-linecap="round" stroke-linejoin="round" stroke-miterlimit="10" x1="33" y1="40.999" x2="56" y2="40.999"/>
	<rect x="15" y="6" fill="#231F20" width="41" height="7"/>
	
		<polyline fill="none" stroke="#231F20" stroke-width="2.0499" stroke-linecap="round" stroke-linejoin="round" stroke-miterlimit="10" points="
		14.753,31.052 24.144,41.247 49.317,16.457 	"/>
</g>
</svg>
