<?xml version="1.0" encoding="utf-8"?>
<!-- Generator: Adobe Illustrator 16.0.4, SVG Export Plug-In . SVG Version: 6.00 Build 0)  -->
<!DOCTYPE svg PUBLIC "-//W3C//DTD SVG 1.0//EN" "http://www.w3.org/TR/2001/REC-SVG-20010904/DTD/svg10.dtd">
<svg version="1.0" id="Layer_1" xmlns="http://www.w3.org/2000/svg" xmlns:xlink="http://www.w3.org/1999/xlink" x="0px" y="0px"
	 width="18.565px" height="18.227px" viewBox="0 0 18.565 18.227" enable-background="new 0 0 18.565 18.227" xml:space="preserve">
<g>
	<circle fill="none" stroke="#FFFFFF" stroke-width="0.9788" stroke-miterlimit="10" cx="9.367" cy="9.114" r="6.5"/>
	<g>
		<path fill="#FFFFFF" d="M11.077,11.407c-0.162,0.36-0.416,0.729-0.758,1.104c-0.344,0.377-0.773,0.565-1.291,0.565
			c-0.348,0-0.608-0.086-0.782-0.258s-0.261-0.375-0.261-0.611c0-0.239,0.076-0.573,0.229-0.999l0.801-2.191
			c0.078-0.199,0.117-0.333,0.117-0.403c0-0.046-0.018-0.087-0.057-0.124C9.04,8.453,8.999,8.434,8.954,8.434
			c-0.141,0-0.295,0.109-0.463,0.329C8.323,8.982,8.198,9.179,8.115,9.353H7.569C7.812,8.807,8.13,8.383,8.522,8.083
			c0.391-0.3,0.779-0.45,1.17-0.45c0.273,0,0.5,0.067,0.68,0.202s0.27,0.313,0.27,0.537c0,0.236-0.045,0.474-0.137,0.714l-0.969,2.6
			c-0.064,0.178-0.098,0.323-0.098,0.435c0,0.05,0.02,0.099,0.059,0.146c0.039,0.048,0.082,0.072,0.127,0.072
			c0.125,0,0.252-0.066,0.385-0.199c0.133-0.132,0.297-0.376,0.496-0.732H11.077z M11.167,5.953c0,0.224-0.08,0.415-0.24,0.574
			c-0.158,0.159-0.346,0.239-0.561,0.239c-0.232,0-0.426-0.08-0.58-0.239S9.553,6.176,9.553,5.953c0-0.215,0.078-0.402,0.232-0.562
			s0.348-0.239,0.58-0.239c0.148,0,0.285,0.036,0.406,0.108s0.219,0.167,0.289,0.286C11.131,5.664,11.167,5.8,11.167,5.953z"/>
	</g>
</g>
</svg>
