<?xml version="1.0" encoding="utf-8"?>
<!-- Generator: Adobe Illustrator 16.0.4, SVG Export Plug-In . SVG Version: 6.00 Build 0)  -->
<!DOCTYPE svg PUBLIC "-//W3C//DTD SVG 1.0//EN" "http://www.w3.org/TR/2001/REC-SVG-20010904/DTD/svg10.dtd">
<svg version="1.0" id="Layer_1" xmlns="http://www.w3.org/2000/svg" xmlns:xlink="http://www.w3.org/1999/xlink" x="0px" y="0px"
	 width="18.565px" height="18.227px" viewBox="0 0 18.565 18.227" enable-background="new 0 0 18.565 18.227" xml:space="preserve">
<g>
	<circle fill="none" stroke="#000000" stroke-width="0.9788" stroke-miterlimit="10" cx="9.423" cy="9.113" r="6.5"/>
	<g>
		<path d="M11.132,11.406c-0.162,0.36-0.416,0.729-0.758,1.104c-0.344,0.377-0.774,0.564-1.292,0.564
			c-0.348,0-0.608-0.086-0.782-0.257c-0.174-0.172-0.261-0.376-0.261-0.611c0-0.239,0.076-0.573,0.229-0.999l0.801-2.191
			c0.078-0.199,0.117-0.333,0.117-0.403c0-0.046-0.018-0.087-0.057-0.124C9.095,8.452,9.054,8.433,9.009,8.433
			c-0.141,0-0.295,0.109-0.463,0.329C8.378,8.981,8.253,9.178,8.17,9.352H7.625c0.243-0.546,0.561-0.969,0.953-1.269
			c0.391-0.3,0.779-0.45,1.17-0.45c0.274,0,0.5,0.067,0.68,0.202s0.27,0.313,0.27,0.537c0,0.236-0.045,0.474-0.137,0.714l-0.969,2.6
			c-0.064,0.178-0.098,0.323-0.098,0.435c0,0.05,0.02,0.098,0.059,0.146s0.082,0.071,0.127,0.071c0.125,0,0.252-0.065,0.385-0.198
			c0.133-0.132,0.297-0.376,0.496-0.732H11.132z M11.222,5.952c0,0.224-0.08,0.415-0.24,0.574c-0.158,0.159-0.346,0.239-0.561,0.239
			c-0.232,0-0.426-0.08-0.581-0.239C9.687,6.367,9.608,6.175,9.608,5.952c0-0.215,0.078-0.402,0.232-0.562
			c0.155-0.159,0.348-0.239,0.581-0.239c0.148,0,0.285,0.036,0.406,0.108s0.219,0.167,0.289,0.286
			C11.187,5.663,11.222,5.799,11.222,5.952z"/>
	</g>
</g>
</svg>
