<?xml version="1.0" encoding="utf-8"?>
<!-- Generator: Adobe Illustrator 16.0.4, SVG Export Plug-In . SVG Version: 6.00 Build 0)  -->
<!DOCTYPE svg PUBLIC "-//W3C//DTD SVG 1.1//EN" "http://www.w3.org/Graphics/SVG/1.1/DTD/svg11.dtd">
<svg version="1.1" id="Layer_1" xmlns="http://www.w3.org/2000/svg" xmlns:xlink="http://www.w3.org/1999/xlink" x="0px" y="0px"
	 width="30px" height="30px" viewBox="0 0 30 30" enable-background="new 0 0 30 30" xml:space="preserve">
<g id="Expanded_35_">
	<g>
		<g>
			<circle fill="#174787" cx="11.8" cy="17.746" r="0.916"/>
		</g>
		<g>
			<path fill="#174787" d="M11.8,21.407c-0.253,0-0.457-0.205-0.457-0.459v-2.745c0-0.253,0.204-0.457,0.457-0.457
				c0.253,0,0.457,0.204,0.457,0.457v2.745C12.257,21.202,12.053,21.407,11.8,21.407z"/>
		</g>
		<g>
			<path fill="#174787" d="M20.037,25.984H3.562V12.253h16.475V25.984z M4.477,25.066h14.646V13.168H4.477V25.066z"/>
		</g>
		<g>
			<path fill="#174787" d="M17.291,12.711h-0.916V9.508c0-2.522-2.052-4.577-4.575-4.577c-2.524,0-4.575,2.055-4.575,4.577H6.308
				c0-3.029,2.464-5.492,5.492-5.492c3.028,0,5.491,2.463,5.491,5.492V12.711z"/>
		</g>
	</g>
</g>
</svg>
