<?xml version="1.0" encoding="utf-8"?>
<!-- Generator: Adobe Illustrator 16.0.4, SVG Export Plug-In . SVG Version: 6.00 Build 0)  -->
<!DOCTYPE svg PUBLIC "-//W3C//DTD SVG 1.1//EN" "http://www.w3.org/Graphics/SVG/1.1/DTD/svg11.dtd">
<svg version="1.1" id="Layer_1" xmlns="http://www.w3.org/2000/svg" xmlns:xlink="http://www.w3.org/1999/xlink" x="0px" y="0px"
	 width="30px" height="30px" viewBox="0 0 30 30" enable-background="new 0 0 30 30" xml:space="preserve">
<g>
	<g id="Expanded_40_">
		<g>
			<g>
				<path fill="#174787" d="M15.721,17.986c-3.556,0-6.447-3.351-6.447-7.464c0-4.116,2.892-7.463,6.447-7.463
					s6.447,3.348,6.447,7.463C22.168,14.637,19.275,17.986,15.721,17.986z M15.721,4.053c-3.006,0-5.453,2.901-5.453,6.469
					c0,3.566,2.447,6.468,5.453,6.468s5.452-2.902,5.452-6.468C21.173,6.955,18.727,4.053,15.721,4.053z"/>
			</g>
			<g>
				<path fill="#174787" d="M4.762,25.947v-2.375c0-1.049,0.664-1.99,1.617-2.332l6.834-1.881v-2.826h-0.997v2.068l-6.138,1.69
					c-1.381,0.494-2.311,1.812-2.311,3.278v3.369h6.451c0,0,0.383-0.078,0.383-0.5s-0.383-0.494-0.383-0.494H4.762V25.947z"/>
				<path fill="#174787" d="M27.634,23.572c0-1.469-0.931-2.785-2.349-3.293l-6.104-1.678v-2.047h-0.994v2.805l6.799,1.869
					c0.986,0.354,1.65,1.295,1.65,2.344v2.375h-5.306c0,0-0.478-0.016-0.478,0.494c0,0.508,0.478,0.5,0.478,0.5h6.302L27.634,23.572
					L27.634,23.572z"/>
			</g>
			<g>
				<path fill="#174787" d="M20.076,9.635c-0.033,0-0.066-0.001-0.1-0.002c-1.121-0.041-2.428-0.749-3.256-1.707
					c-0.58,0.739-1.409,1.215-2.435,1.389c-1.793,0.308-3.847-0.38-4.471-0.986l0.693-0.715c0.301,0.292,2.008,0.992,3.609,0.72
					c0.994-0.169,1.713-0.68,2.131-1.517l0.416-0.833l0.461,0.807c0.551,0.965,1.873,1.81,2.885,1.847
					c0.451,0.012,0.771-0.123,0.979-0.427l0.824,0.556C21.436,9.33,20.822,9.635,20.076,9.635z"/>
			</g>
		</g>
	</g>
</g>
</svg>
