<?xml version="1.0" encoding="utf-8"?>
<!-- Generator: Adobe Illustrator 16.0.4, SVG Export Plug-In . SVG Version: 6.00 Build 0)  -->
<!DOCTYPE svg PUBLIC "-//W3C//DTD SVG 1.1//EN" "http://www.w3.org/Graphics/SVG/1.1/DTD/svg11.dtd">
<svg version="1.1" id="Layer_1" xmlns="http://www.w3.org/2000/svg" xmlns:xlink="http://www.w3.org/1999/xlink" x="0px" y="0px"
	 width="30px" height="30px" viewBox="0 0 30 30" enable-background="new 0 0 30 30" xml:space="preserve">
<g id="Expanded_38_">
	<g>
		<g>
			<path fill="#174787" d="M24.92,26.434H4.883c-0.264,0-0.479-0.215-0.479-0.477v-1.908c0-0.266,0.215-0.479,0.479-0.479
				c0.262,0,0.478,0.213,0.478,0.479v1.43h19.081v-1.43c0-0.266,0.213-0.479,0.479-0.479c0.265,0,0.478,0.213,0.478,0.479v1.908
				C25.396,26.219,25.184,26.434,24.92,26.434z"/>
		</g>
		<g>
			<path fill="#174787" d="M25.871,24.523H3.929c-0.263,0-0.478-0.213-0.478-0.476v-2.862c0-1.316,1.068-2.388,2.385-2.388h4.623
				c3.143-2.187,1.699-5.357,0.539-7.911c-0.486-1.066-0.869-1.91-0.869-2.583c0-3.11,2.4-4.739,4.77-4.739
				c2.371,0,4.771,1.628,4.771,4.739c0,0.67-0.38,1.511-0.863,2.577c-1.162,2.557-2.601,5.737,0.531,7.917h4.627
				c1.312,0,2.385,1.07,2.385,2.388v2.862C26.35,24.311,26.135,24.523,25.871,24.523z M4.404,23.57h20.993v-2.385
				c0-0.789-0.646-1.433-1.433-1.433h-4.771c-0.094,0-0.187-0.026-0.266-0.079c-3.962-2.632-2.172-6.58-0.99-9.189
				c0.4-0.882,0.778-1.715,0.778-2.181c0-2.601-1.979-3.784-3.818-3.784c-1.838,0-3.814,1.183-3.814,3.784
				c0,0.466,0.379,1.301,0.781,2.188c1.188,2.606,2.977,6.542-0.993,9.182c-0.079,0.053-0.173,0.079-0.267,0.079h-4.77
				c-0.789,0-1.432,0.644-1.432,1.433L4.404,23.57L4.404,23.57z"/>
		</g>
	</g>
</g>
</svg>
