<?xml version="1.0" encoding="utf-8"?>
<!-- Generator: Adobe Illustrator 16.0.4, SVG Export Plug-In . SVG Version: 6.00 Build 0)  -->
<!DOCTYPE svg PUBLIC "-//W3C//DTD SVG 1.0//EN" "http://www.w3.org/TR/2001/REC-SVG-20010904/DTD/svg10.dtd">
<svg version="1.0" id="Layer_1" xmlns="http://www.w3.org/2000/svg" xmlns:xlink="http://www.w3.org/1999/xlink" x="0px" y="0px"
	 width="30px" height="30px" viewBox="0 0 30 30" enable-background="new 0 0 30 30" xml:space="preserve">
<g id="Expanded_39_">
	<g>
		<g>
			<path fill="#EC127E" d="M4.249,17.676L4.249,17.676c-0.357-0.355-0.633-0.771-0.822-1.238c-0.052-0.128-0.036-0.273,0.041-0.387
				c0.075-0.116,0.206-0.184,0.343-0.184h2.07l0.828-0.828L5.881,14.21l-2.07,0c-0.137,0-0.268-0.067-0.343-0.183
				c-0.077-0.115-0.093-0.26-0.04-0.387c0.572-1.416,1.93-2.33,3.455-2.33c0.996,0,1.93,0.387,2.634,1.091
				c0.288,0.288,0.525,0.618,0.704,0.979h8.558c0.628-1.267,1.909-2.07,3.339-2.072c0.994,0.002,1.93,0.389,2.633,1.093
				c0.357,0.356,0.633,0.772,0.822,1.239c0.053,0.128,0.037,0.272-0.041,0.387c-0.074,0.113-0.205,0.183-0.342,0.183h-2.07
				l-0.83,0.829l0.828,0.829h2.07c0.139,0,0.268,0.067,0.344,0.182c0.078,0.115,0.092,0.261,0.041,0.389
				c-0.574,1.416-1.931,2.33-3.455,2.33c-0.996,0-1.93-0.387-2.634-1.092c-0.29-0.289-0.526-0.617-0.706-0.979h-8.557
				c-0.628,1.267-1.908,2.071-3.338,2.071C5.889,18.766,4.952,18.379,4.249,17.676z M4.504,16.696
				c0.098,0.14,0.209,0.271,0.33,0.394c0.547,0.549,1.273,0.85,2.049,0.85c1.186,0,2.242-0.713,2.687-1.814
				c0.063-0.157,0.216-0.258,0.384-0.259l9.092,0.001c0.17,0,0.322,0.103,0.386,0.258c0.146,0.363,0.361,0.688,0.64,0.965
				c0.547,0.547,1.273,0.85,2.047,0.85c0.967,0,1.846-0.473,2.381-1.243l-1.552-0.002c-0.11,0-0.216-0.043-0.294-0.12l-1.242-1.243
				c-0.162-0.161-0.163-0.424,0-0.587l1.242-1.242c0.078-0.078,0.184-0.122,0.293-0.12h1.549c-0.096-0.141-0.207-0.273-0.329-0.395
				c-0.548-0.548-1.274-0.85-2.048-0.849c-1.188,0.001-2.242,0.712-2.687,1.812c-0.065,0.157-0.216,0.259-0.386,0.259H9.953
				c-0.168,0-0.32-0.103-0.384-0.259c-0.147-0.362-0.361-0.688-0.64-0.964c-0.547-0.547-1.275-0.849-2.047-0.847
				c-0.967,0-1.848,0.471-2.381,1.243h1.552c0.11,0,0.214,0.042,0.294,0.121l1.242,1.243c0.161,0.161,0.162,0.424,0,0.587
				l-1.242,1.241c-0.078,0.079-0.184,0.122-0.294,0.122H4.504z"/>
		</g>
	</g>
	<g>
		<g>
			<path fill="#EC127E" d="M16.158,19.24v-2.597h-0.83v2.863c0,0.169,0.102,0.319,0.258,0.386c1.101,0.445,1.812,1.5,1.812,2.686
				c0.002,0.775-0.301,1.502-0.85,2.049c-0.121,0.123-0.252,0.234-0.393,0.33v-1.549c0.002-0.109-0.043-0.216-0.121-0.293
				l-1.242-1.243c-0.163-0.163-0.425-0.161-0.586,0l-1.244,1.243c-0.076,0.077-0.119,0.184-0.119,0.293l-0.002,1.551
				c-0.771-0.535-1.242-1.414-1.242-2.381c0-0.773,0.303-1.5,0.85-2.047c0.275-0.277,0.601-0.492,0.963-0.639
				c0.155-0.064,0.258-0.215,0.258-0.386v-2.863h-0.83v2.597c-0.361,0.179-0.688,0.416-0.979,0.705
				c-0.705,0.704-1.092,1.639-1.092,2.633c0,1.525,0.915,2.881,2.331,3.457c0.128,0.051,0.273,0.035,0.388-0.042
				c0.115-0.076,0.182-0.204,0.182-0.343v-2.07l0.829-0.829l0.829,0.829v2.07c0,0.139,0.07,0.268,0.183,0.344
				c0.114,0.077,0.259,0.092,0.387,0.041c0.467-0.189,0.882-0.465,1.239-0.822c0.705-0.704,1.092-1.639,1.094-2.635
				C18.229,21.148,17.424,19.867,16.158,19.24z"/>
			<path fill="#EC127E" d="M13.672,10.491c-0.002-0.168-0.104-0.32-0.26-0.384C12.31,9.662,11.598,8.606,11.6,7.42
				c0-0.773,0.301-1.501,0.848-2.048c0.123-0.123,0.254-0.232,0.395-0.331L12.84,6.591c0.002,0.11,0.045,0.216,0.123,0.293
				l1.242,1.243c0.163,0.163,0.425,0.162,0.586,0l1.244-1.243c0.078-0.079,0.121-0.184,0.121-0.293V5.04
				c0.771,0.534,1.242,1.414,1.242,2.38c0.002,0.773-0.301,1.5-0.848,2.047c-0.277,0.278-0.603,0.493-0.965,0.64
				c-0.155,0.063-0.258,0.215-0.258,0.384v2.887h0.83v-2.619c0.359-0.18,0.689-0.416,0.979-0.705
				c0.705-0.704,1.092-1.638,1.092-2.633c0-1.525-0.915-2.882-2.331-3.456c-0.126-0.052-0.272-0.038-0.387,0.041
				c-0.116,0.075-0.183,0.206-0.183,0.343v2.07l-0.83,0.828L13.67,6.419v-2.07c0-0.138-0.068-0.268-0.183-0.343
				c-0.113-0.079-0.259-0.093-0.387-0.042c-0.467,0.19-0.882,0.465-1.239,0.823c-0.703,0.703-1.09,1.64-1.092,2.633
				c0,1.43,0.805,2.711,2.072,3.339v2.619h0.828L13.672,10.491z"/>
		</g>
	</g>
</g>
</svg>
