<?xml version="1.0" encoding="utf-8"?>
<!-- Generator: Adobe Illustrator 16.0.4, SVG Export Plug-In . SVG Version: 6.00 Build 0)  -->
<!DOCTYPE svg PUBLIC "-//W3C//DTD SVG 1.0//EN" "http://www.w3.org/TR/2001/REC-SVG-20010904/DTD/svg10.dtd">
<svg version="1.0" id="Layer_1" xmlns="http://www.w3.org/2000/svg" xmlns:xlink="http://www.w3.org/1999/xlink" x="0px" y="0px"
	 width="30px" height="30px" viewBox="0 0 30 30" enable-background="new 0 0 30 30" xml:space="preserve">
<g>
	<g>
		<g id="Expanded_42_">
			<g>
				<g>
					<path fill="#EC127E" d="M20.072,16.758c-2.094,0-3.797-1.972-3.797-4.395c0-2.424,1.703-4.395,3.797-4.395
						s3.797,1.971,3.797,4.395C23.869,14.786,22.166,16.758,20.072,16.758z M20.072,8.554c-1.771,0-3.211,1.709-3.211,3.81
						c0,2.1,1.44,3.807,3.211,3.807s3.211-1.707,3.211-3.807C23.283,10.263,21.843,8.554,20.072,8.554z"/>
				</g>
				<g>
					<path fill="#EC127E" d="M18.594,15.902H18.01v1.217l-1.473,0.406c0,0,0.115,0.296,0.298,0.375s0.55,0,0.55,0l1.209-0.332
						V15.902z"/>
					<path fill="#EC127E" d="M27.086,20.049c0-0.866-0.547-1.642-1.381-1.94l-3.596-0.989v-1.204h-0.584v1.653l4.004,1.1
						c0.58,0.208,0.971,0.764,0.971,1.381v1.396h-3.125c0,0-0.279-0.01-0.279,0.291s0.279,0.296,0.279,0.296h3.711V20.049z"/>
				</g>
				<g>
					<path fill="#EC127E" d="M22.637,11.841c-0.019,0-0.038,0-0.059-0.001c-0.658-0.024-1.428-0.442-1.916-1.005
						c-0.342,0.435-0.83,0.715-1.434,0.817c-1.058,0.182-2.265-0.223-2.633-0.579l0.408-0.422c0.178,0.171,1.183,0.584,2.127,0.425
						c0.585-0.101,1.006-0.402,1.253-0.895l0.245-0.49l0.27,0.476c0.326,0.568,1.104,1.065,1.701,1.088
						c0.266,0.006,0.455-0.073,0.574-0.252l0.486,0.327C23.438,11.661,23.075,11.841,22.637,11.841z"/>
				</g>
			</g>
		</g>
	</g>
	<g>
		<g id="Expanded_41_">
			<g>
				<g>
					<path fill="#EC127E" d="M10.152,16.758c-2.094,0-3.797-1.972-3.797-4.395c0-2.424,1.703-4.395,3.797-4.395
						c2.093,0,3.797,1.971,3.797,4.395C13.949,14.786,12.245,16.758,10.152,16.758z M10.152,8.554c-1.771,0-3.211,1.709-3.211,3.81
						c0,2.1,1.439,3.807,3.211,3.807c1.77,0,3.211-1.707,3.211-3.807C13.363,10.263,11.922,8.554,10.152,8.554z"/>
				</g>
				<g>
					<path fill="#EC127E" d="M3.699,21.445v-1.396c0-0.619,0.391-1.173,0.951-1.375l4.023-1.105v-1.666H8.088v1.217l-3.613,0.998
						c-0.814,0.289-1.361,1.065-1.361,1.932v1.983h3.799c0,0,0.227-0.047,0.227-0.296c0-0.248-0.227-0.291-0.227-0.291H3.699z"/>
					<path fill="#EC127E" d="M17.166,20.049c0-0.866-0.547-1.642-1.383-1.94l-3.592-0.989v-1.204h-0.586v1.653l4.002,1.1
						c0.582,0.208,0.973,0.764,0.973,1.381v1.396h-3.123c0,0-0.281-0.01-0.281,0.291s0.281,0.296,0.281,0.296h3.709V20.049z"/>
				</g>
				<g>
					<path fill="#EC127E" d="M12.717,11.841c-0.02,0-0.04,0-0.061-0.001c-0.658-0.024-1.428-0.442-1.916-1.005
						c-0.341,0.435-0.83,0.715-1.434,0.817c-1.055,0.182-2.263-0.223-2.631-0.579l0.408-0.422c0.176,0.171,1.183,0.584,2.125,0.425
						c0.586-0.101,1.008-0.402,1.254-0.895l0.245-0.49l0.271,0.476c0.324,0.568,1.104,1.065,1.699,1.088
						c0.267,0.006,0.454-0.073,0.575-0.252l0.486,0.327C13.518,11.661,13.156,11.841,12.717,11.841z"/>
				</g>
			</g>
		</g>
	</g>
</g>
</svg>
