<?xml version="1.0" encoding="utf-8"?>
<!-- Generator: Adobe Illustrator 16.0.4, SVG Export Plug-In . SVG Version: 6.00 Build 0)  -->
<!DOCTYPE svg PUBLIC "-//W3C//DTD SVG 1.0//EN" "http://www.w3.org/TR/2001/REC-SVG-20010904/DTD/svg10.dtd">
<svg version="1.0" id="Layer_1" xmlns="http://www.w3.org/2000/svg" xmlns:xlink="http://www.w3.org/1999/xlink" x="0px" y="0px"
	 width="82px" height="52.965px" viewBox="0 0 82 52.965" enable-background="new 0 0 82 52.965" xml:space="preserve">
<g id="Expanded_31_">
	<g>
		<g>
			<g>
				<path fill="#595A5C" d="M55.008,52.51H6.494c-2.865,0-5.198-2.332-5.198-5.196V16.126c0-2.867,2.333-5.199,5.198-5.199h48.514
					c2.867,0,5.197,2.332,5.197,5.199v31.188C60.205,50.178,57.875,52.51,55.008,52.51z M6.494,14.393
					c-0.957,0-1.733,0.779-1.733,1.733v31.188c0,0.953,0.776,1.732,1.733,1.732h48.514c0.955,0,1.73-0.779,1.73-1.732V16.126
					c0-0.954-0.775-1.733-1.73-1.733H6.494z"/>
			</g>
			<g>
				<path fill="#595A5C" d="M18.623,40.381c-3.824,0-6.93-3.105-6.93-6.93c0-3.821,3.105-6.93,6.93-6.93
					c3.819,0,6.929,3.108,6.929,6.93C25.551,37.276,22.442,40.381,18.623,40.381z M18.623,29.989c-1.914,0-3.465,1.553-3.465,3.463
					c0,1.913,1.551,3.463,3.465,3.463c1.91,0,3.464-1.55,3.464-3.463C22.086,31.542,20.533,29.989,18.623,29.989z"/>
			</g>
			<g>
				<path fill="#595A5C" d="M42.879,40.381c-3.823,0-6.93-3.105-6.93-6.93c0-3.821,3.107-6.93,6.93-6.93
					c3.818,0,6.93,3.108,6.93,6.93C49.809,37.276,46.697,40.381,42.879,40.381z M42.879,29.989c-1.913,0-3.465,1.553-3.465,3.463
					c0,1.913,1.553,3.463,3.465,3.463c1.912,0,3.465-1.55,3.465-3.463C46.344,31.542,44.791,29.989,42.879,29.989z"/>
			</g>
			<g>
				<path fill="#595A5C" d="M42.879,29.989H18.623c-0.96,0-1.733-0.779-1.733-1.733c0-0.957,0.773-1.733,1.733-1.733h24.256
					c0.957,0,1.73,0.776,1.73,1.733C44.609,29.209,43.836,29.989,42.879,29.989z"/>
			</g>
			<g>
				<path fill="#595A5C" d="M46.199,14.393c-0.959,0-1.732-0.776-1.732-1.732v-6.93c0-0.954-0.779-1.733-1.73-1.733H8.082
					c-0.959,0-1.732-0.776-1.732-1.733c0-0.956,0.773-1.732,1.732-1.732h34.655c2.863,0,5.195,2.332,5.195,5.199v6.93
					C47.932,13.617,47.156,14.393,46.199,14.393z"/>
			</g>
			<g>
				<path fill="#595A5C" d="M77.396,48.112c-0.469,0-0.938-0.091-1.381-0.274l-18.209-7.589c-0.885-0.366-1.303-1.384-0.936-2.266
					c0.369-0.882,1.387-1.301,2.27-0.932l18.209,7.586l0.184-0.121V22.39l-0.854-1.722l0.67,1.598l-18.209,7.589
					c-0.883,0.369-1.9-0.053-2.27-0.935c-0.367-0.882,0.051-1.896,0.936-2.266l18.205-7.586c1.113-0.466,2.379-0.344,3.381,0.327
					c1.006,0.668,1.604,1.791,1.604,2.994v22.126c0,1.203-0.598,2.323-1.6,2.991C78.795,47.91,78.096,48.112,77.396,48.112z"/>
			</g>
		</g>
	</g>
</g>
</svg>
