<?xml version="1.0" encoding="utf-8"?>
<!-- Generator: Adobe Illustrator 16.0.4, SVG Export Plug-In . SVG Version: 6.00 Build 0)  -->
<!DOCTYPE svg PUBLIC "-//W3C//DTD SVG 1.0//EN" "http://www.w3.org/TR/2001/REC-SVG-20010904/DTD/svg10.dtd">
<svg version="1.0" id="Layer_1" xmlns="http://www.w3.org/2000/svg" xmlns:xlink="http://www.w3.org/1999/xlink" x="0px" y="0px"
	 width="40.104px" height="44.824px" viewBox="0 0 40.104 44.824" enable-background="new 0 0 40.104 44.824" xml:space="preserve">
<g>
	
		<polyline fill="none" stroke="#000000" stroke-width="1.9227" stroke-linecap="round" stroke-linejoin="round" stroke-miterlimit="10" points="
		22.801,5.535 22.801,22.562 34.438,42.853 18.545,42.853 17.549,42.853 1.656,42.853 13.293,22.562 13.293,5.535 	"/>
	
		<path fill="none" stroke="#000000" stroke-width="1.9227" stroke-linecap="round" stroke-linejoin="round" stroke-miterlimit="10" d="
		M26.98,3.855c0,0.929-0.753,1.679-1.681,1.679H10.793c-0.928,0-1.679-0.75-1.679-1.679l0,0c0-0.927,0.751-1.678,1.679-1.678h14.506
		C26.227,2.178,26.98,2.928,26.98,3.855L26.98,3.855z"/>
	
		<path fill="none" stroke="#000000" stroke-width="1.9227" stroke-linecap="round" stroke-linejoin="round" stroke-miterlimit="10" d="
		M7.421,32.799c0,0,6.203,3.308,9.765,0c3.56-3.308,9.796-1.854,11.483,0"/>
</g>
</svg>
