<?xml version="1.0" encoding="utf-8"?>
<!-- Generator: Adobe Illustrator 16.0.4, SVG Export Plug-In . SVG Version: 6.00 Build 0)  -->
<!DOCTYPE svg PUBLIC "-//W3C//DTD SVG 1.0//EN" "http://www.w3.org/TR/2001/REC-SVG-20010904/DTD/svg10.dtd">
<svg version="1.0" id="Layer_1" xmlns="http://www.w3.org/2000/svg" xmlns:xlink="http://www.w3.org/1999/xlink" x="0px" y="0px"
	 width="68.542px" height="44.824px" viewBox="0 0 68.542 44.824" enable-background="new 0 0 68.542 44.824" xml:space="preserve">
<g id="Expanded_30_">
	<g>
		<g>
			<path fill="#4D4D4F" d="M45.947,43.7H5.774c-2.373,0-4.305-1.93-4.305-4.299v-25.8c0-2.372,1.932-4.301,4.305-4.301h40.173
				c2.374,0,4.304,1.929,4.304,4.301v25.8C50.251,41.77,48.321,43.7,45.947,43.7z M5.774,12.167c-0.793,0-1.436,0.645-1.436,1.434
				v25.8c0,0.788,0.643,1.434,1.436,1.434h40.173c0.79,0,1.433-0.646,1.433-1.434v-25.8c0-0.789-0.643-1.434-1.433-1.434H5.774z"/>
		</g>
		<g>
			<path fill="#4D4D4F" d="M15.817,33.666c-3.167,0-5.739-2.569-5.739-5.732c0-3.162,2.572-5.732,5.739-5.732
				c3.163,0,5.737,2.57,5.737,5.732C21.555,31.096,18.98,33.666,15.817,33.666z M15.817,25.068c-1.585,0-2.869,1.285-2.869,2.865
				c0,1.583,1.284,2.864,2.869,2.864c1.582,0,2.868-1.281,2.868-2.864C18.686,26.353,17.399,25.068,15.817,25.068z"/>
		</g>
		<g>
			<path fill="#4D4D4F" d="M35.903,33.666c-3.166,0-5.739-2.569-5.739-5.732c0-3.162,2.573-5.732,5.739-5.732
				c3.163,0,5.739,2.57,5.739,5.732C41.643,31.096,39.066,33.666,35.903,33.666z M35.903,25.068c-1.583,0-2.87,1.285-2.87,2.865
				c0,1.583,1.287,2.864,2.87,2.864c1.583,0,2.87-1.281,2.87-2.864C38.773,26.353,37.486,25.068,35.903,25.068z"/>
		</g>
		<g>
			<path fill="#4D4D4F" d="M35.903,25.068H15.817c-0.795,0-1.435-0.644-1.435-1.434c0-0.792,0.64-1.434,1.435-1.434h20.086
				c0.793,0,1.433,0.642,1.433,1.434C37.336,24.424,36.696,25.068,35.903,25.068z"/>
		</g>
		<g>
			<path fill="#4D4D4F" d="M38.652,12.167c-0.794,0-1.434-0.642-1.434-1.434V5.001c0-0.789-0.646-1.435-1.434-1.435H7.088
				c-0.794,0-1.435-0.642-1.435-1.433c0-0.792,0.641-1.434,1.435-1.434h28.697c2.371,0,4.303,1.929,4.303,4.301v5.732
				C40.088,11.525,39.447,12.167,38.652,12.167z"/>
		</g>
		<g>
			<path fill="#4D4D4F" d="M64.487,40.061c-0.388,0-0.778-0.075-1.143-0.227l-15.08-6.279c-0.732-0.302-1.08-1.144-0.774-1.873
				c0.307-0.729,1.149-1.077,1.88-0.771l15.078,6.275l0.15-0.099V18.782l-0.706-1.424l0.556,1.322L49.37,24.958
				c-0.73,0.306-1.573-0.044-1.88-0.773c-0.306-0.729,0.042-1.567,0.774-1.873l15.076-6.275c0.923-0.387,1.97-0.286,2.799,0.27
				c0.833,0.552,1.329,1.482,1.329,2.477v18.305c0,0.994-0.496,1.921-1.326,2.474C65.645,39.893,65.067,40.061,64.487,40.061z"/>
		</g>
	</g>
</g>
</svg>
