<?xml version="1.0" encoding="utf-8"?>
<!-- Generator: Adobe Illustrator 16.0.4, SVG Export Plug-In . SVG Version: 6.00 Build 0)  -->
<!DOCTYPE svg PUBLIC "-//W3C//DTD SVG 1.0//EN" "http://www.w3.org/TR/2001/REC-SVG-20010904/DTD/svg10.dtd">
<svg version="1.0" id="Layer_1" xmlns="http://www.w3.org/2000/svg" xmlns:xlink="http://www.w3.org/1999/xlink" x="0px" y="0px"
	 width="360.667px" height="159.667px" viewBox="0 0 360.667 159.667" enable-background="new 0 0 360.667 159.667"
	 xml:space="preserve">
<g>
	<g>
		<path d="M45.982,77.565c0-5.837,2.14-10.85,6.418-15.039c4.262-4.189,9.382-6.285,15.361-6.285c5.908,0,10.976,2.113,15.201,6.338
			c4.242,4.226,6.364,9.302,6.364,15.228c0,5.961-2.131,11.02-6.392,15.172c-4.279,4.172-9.444,6.258-15.496,6.258
			c-5.353,0-10.16-1.854-14.421-5.559C48.328,89.578,45.982,84.207,45.982,77.565z M52.292,77.631c0,4.58,1.54,8.345,4.619,11.296
			c3.062,2.951,6.598,4.428,10.608,4.428c4.351,0,8.021-1.502,11.011-4.508c2.99-3.041,4.484-6.744,4.484-11.109
			c0-4.418-1.477-8.12-4.431-11.108c-2.937-3.005-6.57-4.508-10.903-4.508c-4.314,0-7.958,1.503-10.93,4.508
			C53.779,69.6,52.292,73.267,52.292,77.631z"/>
		<path d="M103.453,81.646v16.838h-6.257V57.02h7.09c3.473,0,6.096,0.242,7.868,0.725c1.79,0.484,3.366,1.396,4.727,2.74
			c2.381,2.327,3.571,5.264,3.571,8.809c0,3.795-1.271,6.803-3.812,9.023c-2.543,2.22-5.972,3.33-10.286,3.33H103.453z
			 M103.453,75.846h2.337c5.746,0,8.62-2.212,8.62-6.634c0-4.279-2.963-6.419-8.89-6.419h-2.067V75.846z"/>
		<path d="M149.779,62.901h-16.624v9.964h16.14v5.882h-16.14v13.857h16.624v5.881h-22.881V57.02h22.881V62.901z"/>
		<path d="M157.997,98.484V54.2l30.238,31.636V57.02h6.258v43.99l-30.239-31.556v29.031H157.997z"/>
		<path d="M210.688,73.241h17.885V57.02h6.258v41.464h-6.258V79.122h-17.885v19.363h-6.258V57.02h6.258V73.241z"/>
		<path d="M251.023,57.02v24.957c0,3.561,0.582,6.164,1.746,7.811c1.736,2.379,4.18,3.568,7.332,3.568
			c3.168,0,5.621-1.189,7.357-3.568c1.164-1.594,1.746-4.195,1.746-7.811V57.02h6.258v26.695c0,4.367-1.361,7.967-4.082,10.795
			c-3.062,3.152-6.822,4.727-11.279,4.727c-4.459,0-8.209-1.574-11.252-4.727c-2.723-2.828-4.082-6.428-4.082-10.795V57.02H251.023z
			"/>
		<path d="M285.398,98.484V57.02h6.23c2.775,0,4.986,0.215,6.633,0.645c1.666,0.43,3.07,1.154,4.217,2.176
			c1.164,1.056,2.086,2.372,2.766,3.947c0.699,1.594,1.047,3.205,1.047,4.834c0,2.972-1.137,5.487-3.41,7.547
			c2.203,0.752,3.939,2.067,5.211,3.947c1.289,1.863,1.934,4.029,1.934,6.5c0,3.24-1.146,5.979-3.438,8.217
			c-1.379,1.379-2.928,2.336-4.646,2.873c-1.881,0.52-4.234,0.779-7.062,0.779H285.398z M291.656,74.825h1.959
			c2.328,0,4.033-0.514,5.117-1.544c1.082-1.029,1.625-2.547,1.625-4.552c0-1.951-0.555-3.433-1.666-4.444
			c-1.109-1.012-2.721-1.518-4.834-1.518h-2.201V74.825z M291.656,92.604h3.867c2.828,0,4.904-0.555,6.23-1.666
			c1.396-1.199,2.094-2.721,2.094-4.564c0-1.791-0.672-3.295-2.014-4.512c-1.307-1.199-3.643-1.799-7.01-1.799h-3.168V92.604z"/>
	</g>
	<polyline fill="none" stroke="#000000" stroke-width="10" stroke-miterlimit="10" points="349.605,99.019 349.605,149.719 
		12.396,149.719 12.396,10.312 349.605,10.312 349.605,56.519 	"/>
</g>
</svg>
