<?xml version="1.0" encoding="utf-8"?>
<!-- Generator: Adobe Illustrator 16.0.4, SVG Export Plug-In . SVG Version: 6.00 Build 0)  -->
<!DOCTYPE svg PUBLIC "-//W3C//DTD SVG 1.0//EN" "http://www.w3.org/TR/2001/REC-SVG-20010904/DTD/svg10.dtd">
<svg version="1.0" id="Layer_1" xmlns="http://www.w3.org/2000/svg" xmlns:xlink="http://www.w3.org/1999/xlink" x="0px" y="0px"
	 width="20px" height="20px" viewBox="0 0 20 20" enable-background="new 0 0 20 20" xml:space="preserve">
<g>
	<path fill="#FFFFFF" d="M17.194,8.204h-1.38c-0.121-0.403-0.278-0.79-0.477-1.153l0.976-0.975c0.677-0.677,0.677-1.774,0-2.452
		c-0.676-0.676-1.774-0.676-2.451,0L12.887,4.6c-0.363-0.197-0.75-0.355-1.153-0.476V2.743c0-0.545-0.257-1.025-0.649-1.343
		C10.785,1.159,10.413,1.009,10,1.009c-0.957,0-1.732,0.777-1.733,1.733v1.382C7.863,4.245,7.477,4.403,7.113,4.6L6.139,3.625
		C5.461,2.949,4.364,2.946,3.687,3.624c-0.677,0.677-0.676,1.775,0,2.452l0.976,0.976c-0.198,0.363-0.356,0.75-0.477,1.154l-1.38,0
		C1.85,8.206,1.072,8.979,1.072,9.938c0,0.957,0.777,1.733,1.733,1.733h1.38c0.121,0.404,0.279,0.791,0.477,1.155L3.688,13.8
		c-0.678,0.677-0.679,1.774-0.002,2.451c0.676,0.677,1.775,0.676,2.452,0l0.976-0.975c0.363,0.197,0.75,0.355,1.153,0.475v1.381
		c0,0.957,0.775,1.734,1.732,1.734s1.733-0.777,1.733-1.734l0.002-1.381c0.401-0.121,0.79-0.279,1.153-0.477l0.975,0.976
		c0.676,0.677,1.774,0.678,2.45,0.001c0.677-0.677,0.677-1.774,0-2.453l-0.976-0.975c0.198-0.363,0.356-0.75,0.477-1.152h1.381
		c0.957,0,1.732-0.777,1.732-1.733S18.152,8.204,17.194,8.204z"/>
	<path fill="#174787" d="M13.208,9.938c0,1.771-1.436,3.208-3.208,3.208l0,0c-1.772,0-3.208-1.437-3.208-3.208l0,0
		c0-1.771,1.436-3.208,3.208-3.208l0,0C11.772,6.729,13.208,8.166,13.208,9.938L13.208,9.938z"/>
</g>
</svg>
