<?xml version="1.0" encoding="utf-8"?>
<!-- Generator: Adobe Illustrator 16.0.4, SVG Export Plug-In . SVG Version: 6.00 Build 0)  -->
<!DOCTYPE svg PUBLIC "-//W3C//DTD SVG 1.0//EN" "http://www.w3.org/TR/2001/REC-SVG-20010904/DTD/svg10.dtd">
<svg version="1.0" id="Layer_1" xmlns="http://www.w3.org/2000/svg" xmlns:xlink="http://www.w3.org/1999/xlink" x="0px" y="0px"
	 width="93.771px" height="44.824px" viewBox="0 0 93.771 44.824" enable-background="new 0 0 93.771 44.824" xml:space="preserve">
<g>
	<g>
		<g id="Expanded_26_">
			<g>
				<g>
					<path fill="#231F20" d="M46.929,27.436c-5.67,0-10.283-5.339-10.283-11.902c0-6.562,4.611-11.901,10.283-11.901
						c5.67,0,10.281,5.339,10.281,11.901C57.21,22.097,52.599,27.436,46.929,27.436z M46.929,5.218
						c-4.795,0-8.695,4.629-8.695,10.315c0,5.688,3.9,10.315,8.695,10.315c4.793,0,8.693-4.627,8.693-10.315
						C55.623,9.847,51.722,5.218,46.929,5.218z"/>
				</g>
				<g>
					<path fill="#231F20" d="M42.927,25.12h-1.586v3.297l-3.988,1.1c0,0,0.312,0.796,0.809,1.013s1.486,0,1.486,0l3.279-0.903V25.12
						z"/>
					<path fill="#231F20" d="M50.863,25.12h1.586v3.297l3.988,1.1c0,0-0.312,0.796-0.809,1.013s-1.486,0-1.486,0l-3.279-0.903V25.12
						z"/>
				</g>
				<g>
					<path fill="#231F20" d="M53.876,14.12c-0.055,0-0.107-0.002-0.164-0.004c-1.785-0.064-3.867-1.195-5.189-2.722
						c-0.926,1.179-2.246,1.937-3.881,2.215c-2.861,0.491-6.133-0.606-7.127-1.572l1.104-1.141c0.48,0.466,3.203,1.581,5.758,1.148
						c1.584-0.27,2.727-1.085,3.396-2.421l0.664-1.326l0.732,1.286c0.879,1.539,2.986,2.887,4.604,2.946
						c0.719,0.018,1.229-0.196,1.555-0.681l1.318,0.887C56.041,13.632,55.064,14.12,53.876,14.12z"/>
				</g>
			</g>
		</g>
	</g>
	<g>
		<g id="Expanded_25_">
			<g>
				<g>
					<path fill="#231F20" d="M20.062,27.436c-5.67,0-10.281-5.339-10.281-11.902c0-6.562,4.611-11.901,10.281-11.901
						s10.281,5.339,10.281,11.901C30.343,22.097,25.732,27.436,20.062,27.436z M20.062,5.218c-4.794,0-8.695,4.629-8.695,10.315
						c0,5.688,3.901,10.315,8.695,10.315s8.695-4.627,8.695-10.315C28.757,9.847,24.856,5.218,20.062,5.218z"/>
				</g>
				<g>
					<path fill="#231F20" d="M2.588,40.132v-3.788c0-1.671,1.059-3.173,2.575-3.718l10.899-3V25.12h-1.588v3.297l-9.788,2.697
						C2.482,31.9,1,34.003,1,36.344v5.373h10.29c0,0,0.612-0.128,0.612-0.798c0-0.672-0.612-0.787-0.612-0.787H2.588z"/>
					<path fill="#231F20" d="M39.058,36.344c0-2.341-1.482-4.442-3.742-5.247l-9.732-2.68v-3.262h-1.588v4.471l10.841,2.981
						c1.574,0.563,2.633,2.065,2.633,3.736v3.788h-8.461c0,0-0.76-0.025-0.76,0.787c0,0.812,0.76,0.798,0.76,0.798h10.049V36.344z"
						/>
				</g>
				<g>
					<path fill="#231F20" d="M27.012,14.12c-0.055,0-0.109-0.002-0.164-0.004c-1.786-0.064-3.868-1.195-5.19-2.722
						c-0.924,1.179-2.245,1.937-3.881,2.215c-2.86,0.491-6.132-0.606-7.127-1.572l1.105-1.141c0.479,0.466,3.202,1.581,5.755,1.148
						c1.586-0.27,2.728-1.085,3.396-2.421l0.663-1.326l0.735,1.286c0.878,1.539,2.985,2.887,4.602,2.946
						c0.719,0.018,1.23-0.196,1.556-0.681l1.316,0.887C29.175,13.632,28.197,14.12,27.012,14.12z"/>
				</g>
			</g>
		</g>
	</g>
	<g>
		<g id="Expanded_24_">
			<g>
				<g>
					<path fill="#231F20" d="M74.082,27.436c-5.668,0-10.281-5.339-10.281-11.902c0-6.562,4.611-11.901,10.281-11.901
						s10.283,5.339,10.283,11.901C84.365,22.097,79.751,27.436,74.082,27.436z M74.082,5.218c-4.793,0-8.693,4.629-8.693,10.315
						c0,5.688,3.9,10.315,8.693,10.315c4.795,0,8.695-4.627,8.695-10.315C82.777,9.847,78.876,5.218,74.082,5.218z"/>
				</g>
				<g>
					<path fill="#231F20" d="M56.609,40.132v-3.788c0-1.671,1.059-3.173,2.574-3.718l10.9-3V25.12h-1.588v3.297l-9.789,2.697
						c-2.203,0.786-3.686,2.889-3.686,5.229v5.373H65.31c0,0,0.611-0.128,0.611-0.798c0-0.672-0.611-0.787-0.611-0.787H56.609z"/>
					<path fill="#231F20" d="M93.078,36.344c0-2.341-1.48-4.442-3.742-5.247l-9.73-2.68v-3.262h-1.588v4.471l10.84,2.981
						c1.576,0.563,2.635,2.065,2.635,3.736v3.788h-8.461c0,0-0.762-0.025-0.762,0.787c0,0.812,0.762,0.798,0.762,0.798h10.047
						V36.344z"/>
				</g>
				<g>
					<path fill="#231F20" d="M81.031,14.12c-0.055,0-0.107-0.002-0.162-0.004c-1.787-0.064-3.869-1.195-5.191-2.722
						c-0.924,1.179-2.244,1.937-3.881,2.215c-2.859,0.491-6.133-0.606-7.127-1.572l1.105-1.141c0.479,0.466,3.201,1.581,5.756,1.148
						c1.586-0.27,2.727-1.085,3.395-2.421l0.664-1.326l0.734,1.286c0.879,1.539,2.986,2.887,4.604,2.946
						c0.719,0.018,1.229-0.196,1.557-0.681l1.316,0.887C83.195,13.632,82.218,14.12,81.031,14.12z"/>
				</g>
			</g>
		</g>
	</g>
</g>
</svg>
