<?xml version="1.0" encoding="utf-8"?>
<!-- Generator: Adobe Illustrator 16.0.4, SVG Export Plug-In . SVG Version: 6.00 Build 0)  -->
<!DOCTYPE svg PUBLIC "-//W3C//DTD SVG 1.0//EN" "http://www.w3.org/TR/2001/REC-SVG-20010904/DTD/svg10.dtd">
<svg version="1.0" id="Layer_1" xmlns="http://www.w3.org/2000/svg" xmlns:xlink="http://www.w3.org/1999/xlink" x="0px" y="0px"
	 width="20px" height="20px" viewBox="0 0 20 20" enable-background="new 0 0 20 20" xml:space="preserve">
<g>
	<path fill="none" stroke="#EC008C" stroke-width="1.0468" stroke-miterlimit="10" d="M17.195,8.267h-1.381
		c-0.121-0.403-0.277-0.789-0.477-1.153l0.977-0.976c0.676-0.676,0.676-1.773,0-2.451c-0.676-0.676-1.775-0.676-2.451,0
		l-0.977,0.977c-0.363-0.197-0.75-0.355-1.152-0.477V2.806c0-0.545-0.258-1.025-0.65-1.344c-0.299-0.24-0.67-0.391-1.084-0.391
		c-0.957,0-1.732,0.777-1.732,1.733v1.382C7.863,4.308,7.477,4.466,7.113,4.663L6.139,3.688c-0.678-0.676-1.773-0.68-2.451-0.002
		s-0.676,1.775,0,2.451l0.975,0.977c-0.197,0.363-0.355,0.75-0.477,1.154L2.807,8.268C1.85,8.269,1.072,9.042,1.072,10.001
		c0,0.956,0.777,1.732,1.734,1.733h1.379c0.121,0.403,0.279,0.79,0.477,1.155l-0.973,0.973c-0.678,0.678-0.68,1.775-0.002,2.452
		c0.676,0.677,1.775,0.676,2.451,0l0.977-0.976c0.363,0.197,0.75,0.355,1.152,0.476v1.381c0,0.957,0.775,1.733,1.732,1.733
		s1.734-0.776,1.734-1.733l0.002-1.382c0.4-0.12,0.789-0.278,1.152-0.476l0.975,0.976c0.676,0.677,1.775,0.678,2.451,0.001
		s0.676-1.774,0-2.453l-0.977-0.976c0.199-0.363,0.357-0.75,0.477-1.152h1.381c0.957,0,1.732-0.776,1.732-1.732
		C18.928,9.044,18.152,8.267,17.195,8.267z"/>
	<path fill="none" stroke="#EC008C" stroke-width="1.0468" stroke-miterlimit="10" d="M13.209,10.001
		c0,1.771-1.436,3.207-3.209,3.207l0,0c-1.771,0-3.207-1.436-3.207-3.207l0,0c0-1.771,1.436-3.209,3.207-3.209l0,0
		C11.773,6.792,13.209,8.229,13.209,10.001L13.209,10.001z"/>
</g>
</svg>
