<?xml version="1.0" encoding="utf-8"?>
<!-- Generator: Adobe Illustrator 16.0.4, SVG Export Plug-In . SVG Version: 6.00 Build 0)  -->
<!DOCTYPE svg PUBLIC "-//W3C//DTD SVG 1.1//EN" "http://www.w3.org/Graphics/SVG/1.1/DTD/svg11.dtd">
<svg version="1.1" id="Layer_1" xmlns="http://www.w3.org/2000/svg" xmlns:xlink="http://www.w3.org/1999/xlink" x="0px" y="0px"
	 width="35px" height="35px" viewBox="0 0 35 35" enable-background="new 0 0 35 35" xml:space="preserve">
<path fill="#174787" d="M17.186,13.709c-0.222,0.222-3.26,3.104-5.031,4.782V24.4h3.773v-4.717h3.144V24.4h3.772v-5.919
	c-1.841-1.75-5.03-4.772-5.03-4.772S17.5,13.395,17.186,13.709z M22.845,11.823c0-0.347-0.281-0.629-0.629-0.629h-1.257
	c-0.348,0-0.629,0.282-0.629,0.629v0.545c0.797,0.762,1.698,1.623,2.515,2.402V11.823z M25.36,17.796c0,0-6.603-6.288-7.231-6.917
	s-1.258,0-1.258,0s-6.917,6.603-7.231,6.917c-0.314,0.315,0,0.629,0,0.629s0.314,0.314,0.629,0.629c0.314,0.313,0.629,0,0.629,0
	s5.974-5.66,6.289-5.974c0.314-0.314,0.628,0,0.628,0s5.974,5.66,6.289,5.974c0.313,0.313,0.629,0,0.629,0s0,0,0.628-0.629
	C25.675,18.111,25.36,17.796,25.36,17.796z"/>
</svg>
