<?xml version="1.0" encoding="utf-8"?>
<!-- Generator: Adobe Illustrator 16.0.4, SVG Export Plug-In . SVG Version: 6.00 Build 0)  -->
<!DOCTYPE svg PUBLIC "-//W3C//DTD SVG 1.1//EN" "http://www.w3.org/Graphics/SVG/1.1/DTD/svg11.dtd">
<svg version="1.1" id="Layer_1" xmlns="http://www.w3.org/2000/svg" xmlns:xlink="http://www.w3.org/1999/xlink" x="0px" y="0px"
	 width="35px" height="35px" viewBox="0 0 35 35" enable-background="new 0 0 35 35" xml:space="preserve">
<circle fill="none" stroke="#174787" stroke-width="2" stroke-linecap="round" stroke-miterlimit="10" cx="17.5" cy="17.174" r="15.75"/>
<g>
	<path fill="none" stroke="#174787" stroke-width="1.5" stroke-linecap="round" stroke-miterlimit="10" d="M14.693,11.292
		c-2.387,1.127-3.96,3.628-3.761,6.419c0.259,3.627,3.409,6.359,7.036,6.1c3.628-0.258,6.36-3.408,6.103-7.036
		c-0.18-2.505-1.736-4.582-3.879-5.542"/>
</g>
<path fill="#EC008C" stroke="#174787" stroke-miterlimit="10" d="M18.014,16.104c0,0.282-0.229,0.512-0.514,0.512l0,0
	c-0.282,0-0.513-0.229-0.513-0.512V8.761c0-0.283,0.23-0.512,0.513-0.512l0,0c0.282,0,0.514,0.229,0.514,0.512V16.104z"/>
</svg>
