<?xml version="1.0" encoding="utf-8"?>
<!-- Generator: Adobe Illustrator 16.0.4, SVG Export Plug-In . SVG Version: 6.00 Build 0)  -->
<!DOCTYPE svg PUBLIC "-//W3C//DTD SVG 1.1//EN" "http://www.w3.org/Graphics/SVG/1.1/DTD/svg11.dtd">
<svg version="1.1" id="Layer_1" xmlns="http://www.w3.org/2000/svg" xmlns:xlink="http://www.w3.org/1999/xlink" x="0px" y="0px"
	 width="35px" height="35px" viewBox="0 0 35 35" enable-background="new 0 0 35 35" xml:space="preserve">
<g>
	<path fill="none" stroke="#EC008C" stroke-width="1.0283" stroke-miterlimit="10" d="M24.887,15.907h-1.354
		c-0.119-0.396-0.273-0.775-0.468-1.133l0.957-0.958c0.666-0.665,0.666-1.743,0-2.408c-0.664-0.664-1.742-0.664-2.408,0
		l-0.956,0.959c-0.357-0.193-0.737-0.349-1.134-0.467v-1.357c0-0.535-0.252-1.007-0.639-1.319C18.592,8.988,18.227,8.84,17.82,8.84
		c-0.94,0-1.702,0.763-1.703,1.702V11.9c-0.396,0.119-0.775,0.274-1.133,0.467l-0.957-0.958c-0.666-0.664-1.743-0.667-2.408-0.001
		c-0.666,0.666-0.664,1.744,0,2.408l0.957,0.959c-0.194,0.357-0.35,0.737-0.467,1.133h-1.355c-0.939,0.001-1.703,0.761-1.703,1.702
		c0,0.939,0.764,1.703,1.703,1.703h1.355c0.118,0.396,0.273,0.776,0.467,1.135l-0.955,0.957c-0.666,0.664-0.668,1.742-0.002,2.408
		c0.663,0.664,1.743,0.664,2.408,0l0.958-0.959c0.356,0.193,0.737,0.35,1.133,0.467v1.356c0,0.939,0.762,1.703,1.702,1.703
		c0.939,0,1.704-0.764,1.704-1.703l0.002-1.356c0.394-0.118,0.774-0.273,1.133-0.467l0.957,0.957
		c0.664,0.666,1.742,0.666,2.406,0.002c0.666-0.666,0.666-1.744,0-2.41l-0.959-0.957c0.194-0.357,0.352-0.737,0.469-1.133h1.355
		c0.94,0,1.702-0.764,1.702-1.703S25.828,15.907,24.887,15.907z"/>
	<path fill="none" stroke="#EC008C" stroke-width="1.0283" stroke-miterlimit="10" d="M20.971,17.61c0,1.74-1.41,3.151-3.15,3.151
		l0,0c-1.741,0-3.152-1.411-3.152-3.151l0,0c0-1.74,1.411-3.151,3.152-3.151l0,0C19.561,14.459,20.971,15.87,20.971,17.61
		L20.971,17.61z"/>
</g>
<circle fill="none" stroke="#EC008C" stroke-width="2" stroke-miterlimit="10" cx="17.82" cy="17.61" r="15.75"/>
<g>
	<path fill="none" stroke="#EC008C" stroke-miterlimit="10" d="M24.885,15.907h-1.354c-0.119-0.396-0.273-0.775-0.469-1.133
		l0.959-0.958c0.666-0.665,0.666-1.743,0-2.408c-0.664-0.664-1.742-0.664-2.408,0l-0.957,0.959
		c-0.357-0.193-0.737-0.349-1.135-0.467v-1.357c0-0.535-0.25-1.007-0.638-1.319C18.591,8.988,18.225,8.84,17.82,8.84
		c-0.94,0-1.702,0.763-1.704,1.702V11.9c-0.396,0.119-0.774,0.274-1.132,0.467l-0.957-0.958c-0.666-0.664-1.744-0.667-2.41-0.001
		c-0.664,0.666-0.664,1.744,0,2.408l0.959,0.959c-0.195,0.357-0.351,0.737-0.467,1.133h-1.357c-0.938,0.001-1.701,0.761-1.701,1.702
		c0,0.939,0.764,1.703,1.701,1.703h1.357c0.118,0.396,0.273,0.776,0.467,1.135l-0.957,0.957c-0.666,0.664-0.666,1.742-0.002,2.408
		c0.664,0.664,1.744,0.664,2.41,0l0.957-0.959c0.357,0.193,0.736,0.35,1.134,0.467v1.356c0,0.939,0.762,1.703,1.702,1.703
		c0.939,0,1.702-0.764,1.702-1.703l0.002-1.356c0.396-0.118,0.776-0.273,1.135-0.467l0.957,0.957
		c0.664,0.666,1.742,0.666,2.406,0.002c0.666-0.666,0.666-1.744,0-2.41l-0.959-0.957c0.194-0.357,0.35-0.737,0.469-1.133h1.355
		c0.94,0,1.702-0.764,1.702-1.703S25.828,15.907,24.885,15.907z"/>
</g>
</svg>
