<?xml version="1.0" encoding="utf-8"?>
<!-- Generator: Adobe Illustrator 16.0.4, SVG Export Plug-In . SVG Version: 6.00 Build 0)  -->
<!DOCTYPE svg PUBLIC "-//W3C//DTD SVG 1.1//EN" "http://www.w3.org/Graphics/SVG/1.1/DTD/svg11.dtd">
<svg version="1.1" id="Layer_1" xmlns="http://www.w3.org/2000/svg" xmlns:xlink="http://www.w3.org/1999/xlink" x="0px" y="0px"
	 width="82px" height="85px" viewBox="0 0 82 85" enable-background="new 0 0 82 85" xml:space="preserve">
<g>
	<g>
		<path fill="#EC008C" d="M41.07,34.995c0.151,0,0.295,0.054,0.425,0.158c0.097,0.079,0.261,0.251,0.261,0.527v1.378v0.777
			L42.5,38.06c0.339,0.102,0.66,0.234,0.954,0.393l0.687,0.372l0.551-0.552l0.972-0.973c0.129-0.129,0.302-0.2,0.485-0.2
			c0.183,0,0.354,0.071,0.483,0.2c0.13,0.13,0.201,0.302,0.201,0.485c0,0.183-0.071,0.354-0.201,0.484l-0.974,0.973l-0.553,0.552
			l0.373,0.686c0.158,0.29,0.289,0.611,0.394,0.953l0.224,0.743h0.776h1.377c0.378,0,0.685,0.308,0.685,0.686
			c0,0.378-0.307,0.685-0.684,0.685h-1.378h-0.779l-0.222,0.748c-0.1,0.332-0.23,0.65-0.393,0.949l-0.373,0.686l0.553,0.553
			l0.974,0.972c0.269,0.269,0.269,0.704,0,0.972c-0.129,0.129-0.301,0.199-0.483,0.199c-0.182,0-0.354-0.07-0.482-0.2l-0.973-0.975
			l-0.553-0.554l-0.686,0.373c-0.293,0.158-0.613,0.291-0.953,0.395l-0.743,0.223l-0.001,0.775l-0.002,1.381
			c0,0.378-0.308,0.686-0.686,0.686c-0.377,0-0.685-0.308-0.685-0.686v-1.378v-0.776l-0.745-0.225
			c-0.341-0.102-0.661-0.232-0.95-0.391l-0.686-0.375l-0.552,0.554l-0.973,0.973c-0.13,0.13-0.303,0.2-0.486,0.2
			c-0.183,0-0.354-0.07-0.483-0.199c-0.129-0.13-0.201-0.302-0.201-0.484c0-0.182,0.072-0.354,0.203-0.484l0.971-0.973l0.549-0.551
			l-0.37-0.685c-0.16-0.297-0.292-0.618-0.393-0.954l-0.222-0.747h-0.779h-1.377c-0.377,0-0.685-0.307-0.685-0.685
			c0-0.377,0.308-0.684,0.685-0.685h1.377h0.781l0.221-0.749c0.1-0.336,0.231-0.655,0.391-0.948l0.373-0.686l-0.551-0.552
			l-0.973-0.974c-0.129-0.13-0.201-0.302-0.201-0.485c0-0.183,0.071-0.355,0.201-0.484c0.128-0.129,0.3-0.2,0.482-0.2
			c0.184,0,0.357,0.072,0.487,0.201l0.973,0.973l0.551,0.551l0.686-0.371c0.294-0.16,0.615-0.292,0.953-0.393l0.745-0.223v-0.777
			v-1.378C40.385,35.303,40.692,34.995,41.07,34.995L41.07,34.995 M41.069,33.951c-0.955,0-1.729,0.776-1.729,1.729v1.379
			c-0.402,0.121-0.787,0.278-1.15,0.475l-0.973-0.973c-0.338-0.337-0.782-0.507-1.226-0.507c-0.442,0-0.883,0.168-1.221,0.505
			c-0.677,0.676-0.675,1.771,0,2.447l0.973,0.974c-0.197,0.362-0.355,0.749-0.475,1.151h-1.377
			c-0.954,0.001-1.729,0.773-1.729,1.729c0,0.955,0.775,1.729,1.729,1.729h1.377c0.12,0.403,0.278,0.789,0.475,1.152l-0.971,0.973
			c-0.677,0.675-0.679,1.771-0.002,2.446c0.337,0.337,0.779,0.506,1.222,0.506c0.443,0,0.886-0.169,1.224-0.506l0.974-0.975
			c0.362,0.197,0.749,0.354,1.15,0.476v1.378c0,0.954,0.774,1.729,1.729,1.729c0.955,0,1.73-0.774,1.73-1.729l0.002-1.379
			c0.399-0.12,0.787-0.278,1.15-0.477l0.973,0.976c0.338,0.338,0.78,0.507,1.223,0.507c0.443,0,0.886-0.169,1.223-0.506
			c0.677-0.678,0.677-1.771,0-2.448l-0.975-0.973c0.197-0.363,0.356-0.749,0.477-1.15h1.378c0.955,0,1.729-0.774,1.729-1.729
			c0-0.955-0.773-1.73-1.729-1.73h-1.377c-0.121-0.402-0.278-0.788-0.476-1.151l0.974-0.973c0.677-0.675,0.677-1.771,0-2.447
			c-0.338-0.337-0.78-0.506-1.224-0.506c-0.442,0-0.885,0.169-1.224,0.506l-0.973,0.975c-0.363-0.197-0.749-0.354-1.15-0.475v-1.378
			c0-0.543-0.256-1.023-0.649-1.34C41.854,34.101,41.483,33.951,41.069,33.951C41.07,33.951,41.07,33.951,41.069,33.951
			L41.069,33.951z"/>
	</g>
	<g>
		<path fill="#174787" d="M41.07,40.704c1.188,0,2.155,0.968,2.155,2.157s-0.967,2.157-2.155,2.157
			c-1.189,0-2.158-0.968-2.158-2.157C38.913,41.671,39.881,40.704,41.07,40.704 M41.07,39.659c-1.769,0-3.202,1.433-3.202,3.201
			c0,1.769,1.434,3.201,3.202,3.201s3.2-1.433,3.2-3.201C44.271,41.092,42.838,39.659,41.07,39.659L41.07,39.659z"/>
	</g>
</g>
<g>
	<path fill="#174787" d="M41.07,27.876c8.263,0,14.985,6.722,14.985,14.984c0,8.263-6.723,14.984-14.985,14.984
		c-8.262,0-14.984-6.722-14.984-14.984C26.086,34.598,32.808,27.876,41.07,27.876 M41.07,26.86c-8.835,0-16,7.163-16,16
		c0,8.837,7.165,16,16,16c8.837,0,16-7.162,16-16C57.07,34.023,49.907,26.86,41.07,26.86L41.07,26.86z"/>
</g>
<g>
	<g>
		<path fill="#174787" d="M41.07,34.967c0.197,0,0.351,0.09,0.444,0.165c0.1,0.081,0.27,0.26,0.27,0.549v1.378v0.756l0.725,0.217
			c0.342,0.102,0.664,0.235,0.96,0.395l0.667,0.361l0.535-0.537l0.973-0.973c0.135-0.135,0.313-0.209,0.506-0.209
			c0.189,0,0.369,0.074,0.504,0.208c0.136,0.135,0.211,0.314,0.209,0.505c0,0.19-0.073,0.369-0.209,0.504l-0.973,0.973l-0.537,0.537
			l0.361,0.667c0.159,0.292,0.292,0.614,0.396,0.958l0.218,0.723h0.755h1.375c0.395,0,0.716,0.32,0.716,0.714
			s-0.319,0.714-0.713,0.714h-1.378h-0.755L45.9,44.295c-0.104,0.344-0.236,0.666-0.396,0.959l-0.361,0.667l0.537,0.536l0.973,0.973
			c0.279,0.278,0.279,0.732,0,1.012c-0.135,0.135-0.312,0.207-0.504,0.207c-0.19,0-0.369-0.072-0.504-0.207l-0.973-0.976
			l-0.535-0.536l-0.668,0.361c-0.295,0.16-0.617,0.293-0.959,0.395l-0.724,0.217l-0.001,0.757l-0.002,1.38
			c0,0.395-0.32,0.714-0.713,0.714c-0.394,0-0.713-0.319-0.713-0.714v-1.378v-0.759l-0.726-0.215
			c-0.34-0.103-0.662-0.233-0.957-0.395l-0.667-0.361l-0.537,0.536l-0.97,0.974c-0.135,0.136-0.315,0.209-0.508,0.209
			c-0.191,0-0.371-0.073-0.504-0.207c-0.278-0.278-0.278-0.731,0.001-1.01l0.973-0.974l0.535-0.536l-0.36-0.666
			c-0.161-0.298-0.294-0.621-0.395-0.959l-0.216-0.726h-0.757H33.89c-0.393,0-0.711-0.32-0.711-0.714
			c0-0.393,0.32-0.712,0.711-0.713h1.379h0.761l0.214-0.73c0.099-0.337,0.23-0.656,0.391-0.95L37,39.8l-0.539-0.539l-0.974-0.974
			c-0.278-0.278-0.278-0.732-0.001-1.01c0.135-0.134,0.313-0.208,0.504-0.208c0.192,0,0.373,0.075,0.507,0.209l0.973,0.973
			l0.536,0.536l0.667-0.361c0.296-0.16,0.618-0.293,0.958-0.395l0.723-0.218v-0.755v-1.377
			C40.355,35.288,40.677,34.966,41.07,34.967L41.07,34.967 M41.069,33.951c-0.955,0-1.729,0.776-1.73,1.729v1.379
			c-0.401,0.121-0.786,0.278-1.149,0.475l-0.973-0.973c-0.338-0.337-0.782-0.507-1.226-0.507c-0.442,0-0.884,0.168-1.222,0.505
			c-0.675,0.676-0.675,1.771,0,2.447l0.975,0.974c-0.198,0.362-0.356,0.749-0.475,1.151H33.89c-0.952,0.001-1.728,0.773-1.728,1.729
			c0,0.955,0.775,1.729,1.728,1.729h1.379c0.12,0.403,0.278,0.789,0.475,1.152l-0.973,0.973c-0.677,0.675-0.677,1.771-0.002,2.446
			c0.337,0.337,0.78,0.506,1.223,0.506c0.443,0,0.887-0.169,1.225-0.506l0.973-0.975c0.363,0.197,0.748,0.354,1.151,0.476v1.378
			c0,0.954,0.774,1.729,1.729,1.729c0.954,0,1.729-0.774,1.729-1.729l0.002-1.379c0.401-0.12,0.789-0.278,1.152-0.477l0.973,0.976
			c0.338,0.338,0.78,0.507,1.223,0.507c0.443,0,0.886-0.169,1.223-0.506c0.677-0.678,0.677-1.771,0-2.448l-0.975-0.973
			c0.197-0.363,0.354-0.749,0.477-1.15h1.378c0.955,0,1.729-0.774,1.729-1.729c0-0.955-0.773-1.73-1.731-1.73h-1.375
			c-0.121-0.402-0.278-0.788-0.476-1.151l0.974-0.973c0.677-0.675,0.677-1.771,0-2.447c-0.338-0.337-0.78-0.506-1.224-0.506
			c-0.442,0-0.885,0.169-1.224,0.506l-0.973,0.975c-0.363-0.197-0.749-0.354-1.152-0.475v-1.378c0-0.543-0.254-1.023-0.647-1.34
			C41.854,34.101,41.481,33.951,41.069,33.951C41.07,33.951,41.07,33.951,41.069,33.951L41.069,33.951z"/>
	</g>
</g>
</svg>
