<?xml version="1.0" encoding="utf-8"?>
<!-- Generator: Adobe Illustrator 16.0.4, SVG Export Plug-In . SVG Version: 6.00 Build 0)  -->
<!DOCTYPE svg PUBLIC "-//W3C//DTD SVG 1.1//EN" "http://www.w3.org/Graphics/SVG/1.1/DTD/svg11.dtd">
<svg version="1.1" id="Layer_1" xmlns="http://www.w3.org/2000/svg" xmlns:xlink="http://www.w3.org/1999/xlink" x="0px" y="0px"
	 width="30px" height="30px" viewBox="0 0 30 30" enable-background="new 0 0 30 30" xml:space="preserve">
<g id="Expanded_39_">
	<g>
		<g>
			<path fill="#EC127E" d="M2.345,18.304L2.345,18.304c-0.441-0.439-0.781-0.953-1.016-1.529c-0.063-0.158-0.045-0.338,0.052-0.478
				c0.093-0.142,0.253-0.226,0.423-0.226H4.36l1.021-1.022L4.36,14.025l-2.557-0.001c-0.169,0-0.33-0.083-0.424-0.226
				c-0.096-0.142-0.114-0.321-0.05-0.478c0.708-1.748,2.383-2.877,4.267-2.877c1.229,0,2.382,0.478,3.251,1.348
				c0.356,0.355,0.648,0.763,0.87,1.209h10.564c0.774-1.564,2.356-2.557,4.121-2.559c1.229,0.002,2.383,0.479,3.252,1.35
				c0.44,0.439,0.781,0.953,1.015,1.529c0.064,0.158,0.046,0.336-0.05,0.478c-0.094,0.14-0.254,0.226-0.424,0.226H25.64
				l-1.023,1.023l1.022,1.023h2.557c0.171,0,0.329,0.082,0.424,0.225c0.096,0.141,0.114,0.32,0.051,0.479
				c-0.71,1.748-2.384,2.877-4.267,2.877c-1.228,0-2.382-0.478-3.251-1.348c-0.357-0.357-0.649-0.762-0.871-1.209L9.718,17.094
				c-0.775,1.564-2.356,2.558-4.122,2.558C4.369,19.649,3.213,19.172,2.345,18.304z M2.659,17.094
				c0.121,0.173,0.257,0.335,0.408,0.487c0.675,0.676,1.573,1.047,2.528,1.047C7.06,18.63,8.363,17.75,8.913,16.39
				c0.078-0.193,0.267-0.318,0.474-0.32l11.225,0.002c0.21,0,0.397,0.127,0.476,0.318c0.181,0.448,0.446,0.849,0.79,1.19
				c0.675,0.675,1.571,1.048,2.526,1.048c1.193,0,2.278-0.582,2.939-1.534l-1.915-0.002c-0.136,0-0.267-0.053-0.362-0.148
				l-1.534-1.534c-0.199-0.199-0.201-0.523,0-0.725l1.534-1.533c0.096-0.096,0.227-0.15,0.361-0.148h1.913
				c-0.119-0.174-0.256-0.337-0.407-0.487c-0.676-0.676-1.573-1.049-2.529-1.048c-1.465,0.001-2.767,0.879-3.316,2.237
				c-0.08,0.194-0.267,0.319-0.476,0.319H9.387c-0.208,0-0.396-0.127-0.474-0.319c-0.182-0.446-0.446-0.849-0.79-1.19
				c-0.675-0.676-1.573-1.048-2.527-1.046c-1.192,0-2.279,0.582-2.938,1.534h1.915c0.136,0,0.266,0.053,0.362,0.149l1.534,1.534
				c0.199,0.199,0.201,0.523,0,0.725l-1.534,1.533c-0.096,0.097-0.227,0.149-0.362,0.15L2.659,17.094z"/>
		</g>
	</g>
	<g>
		<g>
			<path fill="#EC127E" d="M17.046,20.235v-3.206h-1.023v3.535c0,0.209,0.125,0.396,0.319,0.476c1.358,0.55,2.236,1.852,2.237,3.316
				c0.001,0.956-0.372,1.854-1.048,2.529c-0.15,0.151-0.313,0.288-0.487,0.407V25.38c0.002-0.135-0.053-0.266-0.148-0.361
				l-1.533-1.534c-0.201-0.201-0.525-0.199-0.725,0l-1.534,1.534c-0.096,0.096-0.148,0.227-0.148,0.362l-0.002,1.915
				c-0.952-0.661-1.534-1.746-1.534-2.939c0-0.955,0.373-1.852,1.048-2.526c0.342-0.344,0.742-0.609,1.19-0.79
				c0.191-0.078,0.318-0.266,0.318-0.476v-3.535h-1.023v3.205c-0.447,0.222-0.852,0.514-1.209,0.871
				c-0.87,0.869-1.348,2.023-1.348,3.251c0,1.883,1.129,3.557,2.877,4.267c0.158,0.063,0.338,0.045,0.479-0.051
				c0.143-0.095,0.225-0.253,0.225-0.424v-2.557l1.023-1.022l1.023,1.023v2.557c0,0.17,0.086,0.33,0.226,0.424
				c0.142,0.096,0.319,0.114,0.478,0.05c0.576-0.233,1.09-0.574,1.529-1.015c0.87-0.869,1.348-2.023,1.35-3.252
				C19.603,22.592,18.61,21.01,17.046,20.235z"/>
			<path fill="#EC127E" d="M13.978,9.434c-0.002-0.207-0.127-0.396-0.32-0.474c-1.36-0.55-2.24-1.854-2.238-3.317
				c0-0.955,0.371-1.854,1.047-2.528c0.152-0.151,0.314-0.287,0.487-0.408l-0.001,1.913c0.001,0.136,0.054,0.267,0.15,0.362
				l1.533,1.534c0.201,0.201,0.525,0.199,0.725,0l1.534-1.534c0.097-0.097,0.149-0.227,0.149-0.362V2.704
				c0.952,0.659,1.534,1.746,1.534,2.938c0.002,0.954-0.37,1.853-1.046,2.527c-0.342,0.344-0.744,0.608-1.19,0.79
				c-0.192,0.078-0.319,0.266-0.319,0.474v3.564h1.023V9.765c0.446-0.222,0.854-0.514,1.209-0.87
				c0.87-0.869,1.348-2.022,1.348-3.251c0-1.884-1.129-3.559-2.877-4.267c-0.156-0.064-0.336-0.046-0.478,0.05
				c-0.143,0.094-0.226,0.255-0.226,0.424l-0.001,2.557l-1.023,1.021l-1.022-1.021V1.851c0-0.17-0.084-0.33-0.226-0.423
				c-0.14-0.097-0.319-0.115-0.478-0.052c-0.576,0.234-1.09,0.574-1.529,1.016c-0.868,0.868-1.346,2.024-1.348,3.251
				c0,1.766,0.993,3.347,2.558,4.122v3.233h1.023L13.978,9.434z"/>
		</g>
	</g>
</g>
</svg>
