<?xml version="1.0" encoding="utf-8"?>
<!-- Generator: Adobe Illustrator 16.0.4, SVG Export Plug-In . SVG Version: 6.00 Build 0)  -->
<!DOCTYPE svg PUBLIC "-//W3C//DTD SVG 1.1//EN" "http://www.w3.org/Graphics/SVG/1.1/DTD/svg11.dtd">
<svg version="1.1" id="Layer_1" xmlns="http://www.w3.org/2000/svg" xmlns:xlink="http://www.w3.org/1999/xlink" x="0px" y="0px"
	 width="30px" height="30px" viewBox="0 0 30 30" enable-background="new 0 0 30 30" xml:space="preserve">
<g>
	<g>
		
			<path fill="none" stroke="#EC127E" stroke-width="1.1893" stroke-linecap="round" stroke-linejoin="round" stroke-miterlimit="10" d="
			M8.566,22.26H5.048c-0.984,0-1.783-0.799-1.783-1.783V2.934c0-0.985,0.799-1.784,1.783-1.784h19.903
			c0.985,0,1.784,0.799,1.784,1.784v17.542c0,0.984-0.799,1.783-1.784,1.783h-9.663L8.52,28.85L8.566,22.26z"/>
	</g>
	<g>
		<path fill="#EC127E" d="M16.126,14.497c0,0.622-0.505,1.126-1.126,1.126l0,0c-0.622,0-1.126-0.504-1.126-1.126V4.805
			c0-0.621,0.504-1.125,1.126-1.125l0,0c0.621,0,1.126,0.504,1.126,1.125V14.497z"/>
		<circle fill="#EC127E" cx="15" cy="18.666" r="1.17"/>
	</g>
</g>
</svg>
