<?xml version="1.0" encoding="utf-8"?>
<!-- Generator: Adobe Illustrator 16.0.4, SVG Export Plug-In . SVG Version: 6.00 Build 0)  -->
<!DOCTYPE svg PUBLIC "-//W3C//DTD SVG 1.1//EN" "http://www.w3.org/Graphics/SVG/1.1/DTD/svg11.dtd">
<svg version="1.1" id="Layer_1" xmlns="http://www.w3.org/2000/svg" xmlns:xlink="http://www.w3.org/1999/xlink" x="0px" y="0px"
	 width="30px" height="30px" viewBox="0 0 30 30" enable-background="new 0 0 30 30" xml:space="preserve">
<g id="Expanded_35_">
	<g>
		<g>
			<circle fill="#EC127E" cx="15" cy="18.39" r="1.131"/>
		</g>
		<g>
			<path fill="#EC127E" d="M15,22.91c-0.312,0-0.564-0.253-0.564-0.566v-3.39c0-0.312,0.252-0.563,0.564-0.563
				s0.564,0.252,0.564,0.563v3.39C15.564,22.657,15.312,22.91,15,22.91z"/>
		</g>
		<g>
			<path fill="#EC127E" d="M25.17,28.561H4.83V11.609h20.34V28.561z M5.96,27.429h18.08v-14.69H5.96V27.429z"/>
		</g>
		<g>
			<path fill="#EC127E" d="M21.78,12.174h-1.131V8.22c0-3.114-2.534-5.651-5.649-5.651c-3.116,0-5.649,2.537-5.649,5.651H8.22
				c0-3.739,3.041-6.78,6.78-6.78s6.78,3.041,6.78,6.78V12.174z"/>
		</g>
	</g>
</g>
</svg>
