<?xml version="1.0" encoding="utf-8"?>
<!-- Generator: Adobe Illustrator 16.0.4, SVG Export Plug-In . SVG Version: 6.00 Build 0)  -->
<!DOCTYPE svg PUBLIC "-//W3C//DTD SVG 1.1//EN" "http://www.w3.org/Graphics/SVG/1.1/DTD/svg11.dtd">
<svg version="1.1" id="Layer_1" xmlns="http://www.w3.org/2000/svg" xmlns:xlink="http://www.w3.org/1999/xlink" x="0px" y="0px"
	 width="30px" height="30px" viewBox="0 0 30 30" enable-background="new 0 0 30 30" xml:space="preserve">
<g>
	<g id="Expanded_40_">
		<g>
			<g>
				<path fill="#EC127E" d="M15.025,18.687c-4.389,0-7.959-4.135-7.959-9.215c0-5.081,3.57-9.214,7.959-9.214
					c4.39,0,7.961,4.133,7.961,9.214C22.986,14.552,19.415,18.687,15.025,18.687z M15.025,1.485c-3.711,0-6.731,3.582-6.731,7.986
					c0,4.403,3.021,7.984,6.731,7.984c3.712,0,6.731-3.581,6.731-7.984C21.757,5.067,18.737,1.485,15.025,1.485z"/>
			</g>
			<g>
				<path fill="#EC127E" d="M1.496,28.515v-2.932c0-1.295,0.82-2.457,1.995-2.879l8.438-2.322v-3.488h-1.229v2.553l-7.577,2.088
					c-1.706,0.609-2.854,2.236-2.854,4.049v4.159h7.966c0,0,0.473-0.097,0.473-0.617s-0.473-0.61-0.473-0.61H1.496z"/>
				<path fill="#EC127E" d="M29.732,25.583c0-1.812-1.148-3.438-2.898-4.063L19.3,19.446V16.92h-1.229v3.462l8.394,2.309
					c1.219,0.436,2.039,1.598,2.039,2.893v2.932h-6.551c0,0-0.589-0.019-0.589,0.61c0,0.628,0.589,0.617,0.589,0.617h7.779V25.583z"
					/>
			</g>
			<g>
				<path fill="#EC127E" d="M20.404,8.377c-0.041,0-0.083-0.001-0.125-0.003c-1.383-0.05-2.995-0.924-4.02-2.107
					c-0.715,0.913-1.738,1.5-3.004,1.715c-2.215,0.38-4.748-0.469-5.519-1.217l0.855-0.883c0.371,0.36,2.479,1.225,4.456,0.889
					c1.228-0.209,2.113-0.84,2.63-1.873l0.514-1.027l0.569,0.996c0.68,1.191,2.312,2.234,3.562,2.28
					c0.557,0.015,0.952-0.151,1.205-0.527l1.02,0.687C22.081,8,21.324,8.377,20.404,8.377z"/>
			</g>
		</g>
	</g>
</g>
</svg>
