<?xml version="1.0" encoding="utf-8"?>
<!-- Generator: Adobe Illustrator 16.0.4, SVG Export Plug-In . SVG Version: 6.00 Build 0)  -->
<!DOCTYPE svg PUBLIC "-//W3C//DTD SVG 1.1//EN" "http://www.w3.org/Graphics/SVG/1.1/DTD/svg11.dtd">
<svg version="1.1" id="Layer_1" xmlns="http://www.w3.org/2000/svg" xmlns:xlink="http://www.w3.org/1999/xlink" x="0px" y="0px"
	 width="30px" height="30px" viewBox="0 0 30 30" enable-background="new 0 0 30 30" xml:space="preserve">
<g id="Expanded_38_">
	<g>
		<g>
			<path fill="#EC127E" d="M27.369,29.115H2.633c-0.326,0-0.59-0.266-0.59-0.588v-2.355c0-0.328,0.264-0.59,0.59-0.59
				c0.324,0,0.59,0.262,0.59,0.59v1.766h23.557v-1.766c0-0.328,0.264-0.59,0.59-0.59s0.59,0.262,0.59,0.59v2.355
				C27.959,28.85,27.695,29.115,27.369,29.115z"/>
		</g>
		<g>
			<path fill="#EC127E" d="M28.545,26.758H1.455c-0.324,0-0.59-0.264-0.59-0.586v-3.535c0-1.625,1.32-2.947,2.945-2.947h5.707
				c3.879-2.697,2.098-6.613,0.666-9.766c-0.6-1.315-1.074-2.357-1.074-3.188c0-3.84,2.963-5.851,5.889-5.851
				c2.928,0,5.893,2.011,5.893,5.851c0,0.827-0.471,1.866-1.068,3.182c-1.434,3.157-3.209,7.083,0.658,9.773h5.711
				c1.621,0,2.943,1.322,2.943,2.947v3.535C29.135,26.494,28.869,26.758,28.545,26.758z M2.043,25.582h25.916v-2.945
				c0-0.975-0.797-1.768-1.768-1.768h-5.891c-0.115,0-0.229-0.033-0.326-0.098c-4.893-3.25-2.682-8.123-1.225-11.344
				c0.496-1.089,0.961-2.117,0.961-2.692c0-3.211-2.443-4.671-4.713-4.671c-2.268,0-4.709,1.46-4.709,4.671
				c0,0.575,0.469,1.606,0.965,2.7c1.465,3.218,3.674,8.079-1.227,11.336c-0.098,0.064-0.213,0.098-0.328,0.098H3.811
				c-0.975,0-1.768,0.793-1.768,1.768V25.582z"/>
		</g>
	</g>
</g>
</svg>
