<?xml version="1.0" encoding="utf-8"?>
<!-- Generator: Adobe Illustrator 16.0.4, SVG Export Plug-In . SVG Version: 6.00 Build 0)  -->
<!DOCTYPE svg PUBLIC "-//W3C//DTD SVG 1.1//EN" "http://www.w3.org/Graphics/SVG/1.1/DTD/svg11.dtd">
<svg version="1.1" id="Layer_1" xmlns="http://www.w3.org/2000/svg" xmlns:xlink="http://www.w3.org/1999/xlink" x="0px" y="0px"
	 width="30px" height="30px" viewBox="0 0 30 30" enable-background="new 0 0 30 30" xml:space="preserve">
<g>
	<g>
		<g id="Expanded_42_">
			<g>
				<g>
					<path fill="#EC127E" d="M20.199,14.51c-2.783,0-5.049-2.622-5.049-5.846c0-3.223,2.266-5.846,5.049-5.846
						c2.785,0,5.051,2.623,5.051,5.846C25.25,11.888,22.984,14.51,20.199,14.51z M20.199,3.598c-2.354,0-4.27,2.272-4.27,5.066
						s1.916,5.064,4.27,5.064c2.355,0,4.27-2.271,4.27-5.064S22.555,3.598,20.199,3.598z"/>
				</g>
				<g>
					<path fill="#EC127E" d="M18.234,13.372h-0.779v1.619l-1.957,0.541c0,0,0.152,0.392,0.396,0.496c0.242,0.106,0.73,0,0.73,0
						l1.609-0.441V13.372z"/>
					<path fill="#EC127E" d="M29.529,18.887c0-1.151-0.727-2.183-1.838-2.58l-4.779-1.315V13.39h-0.781v2.197l5.326,1.465
						c0.773,0.275,1.293,1.014,1.293,1.835v1.858h-4.156c0,0-0.373-0.012-0.373,0.387c0,0.399,0.373,0.394,0.373,0.394h4.936V18.887
						z"/>
				</g>
				<g>
					<path fill="#EC127E" d="M23.611,7.971c-0.025,0-0.051-0.001-0.078-0.002c-0.877-0.032-1.898-0.588-2.549-1.338
						c-0.455,0.579-1.104,0.951-1.906,1.088c-1.406,0.241-3.012-0.297-3.502-0.771l0.543-0.561c0.234,0.228,1.572,0.777,2.828,0.565
						c0.777-0.135,1.34-0.535,1.668-1.19l0.324-0.651l0.361,0.632c0.432,0.756,1.467,1.418,2.26,1.447
						c0.354,0.008,0.605-0.097,0.766-0.334l0.646,0.435C24.676,7.73,24.195,7.971,23.611,7.971z"/>
				</g>
			</g>
		</g>
	</g>
	<g>
		<g id="Expanded_41_">
			<g>
				<g>
					<path fill="#EC127E" d="M9.834,20.166c-2.785,0-5.051-2.622-5.051-5.846c0-3.223,2.266-5.846,5.051-5.846
						c2.783,0,5.049,2.623,5.049,5.846C14.883,17.544,12.617,20.166,9.834,20.166z M9.834,9.254c-2.355,0-4.271,2.272-4.271,5.066
						s1.916,5.065,4.271,5.065c2.354,0,4.27-2.271,4.27-5.065S12.188,9.254,9.834,9.254z"/>
				</g>
				<g>
					<path fill="#EC127E" d="M1.25,26.401v-1.858c0-0.823,0.52-1.56,1.266-1.828l5.352-1.472v-2.215H7.088v1.619l-4.807,1.326
						c-1.084,0.385-1.811,1.418-1.811,2.569v2.639h5.053c0,0,0.301-0.062,0.301-0.394c0-0.33-0.301-0.387-0.301-0.387H1.25z"/>
					<path fill="#EC127E" d="M19.162,24.543c0-1.151-0.729-2.183-1.838-2.58l-4.779-1.315v-1.601h-0.779v2.196l5.324,1.465
						c0.773,0.275,1.293,1.015,1.293,1.835v1.858h-4.154c0,0-0.375-0.012-0.375,0.387c0,0.399,0.375,0.394,0.375,0.394h4.934V24.543
						z"/>
				</g>
				<g>
					<path fill="#EC127E" d="M13.246,13.627c-0.027,0-0.055-0.001-0.08-0.002c-0.879-0.032-1.9-0.588-2.551-1.338
						c-0.453,0.579-1.104,0.951-1.906,1.088c-1.404,0.242-3.012-0.297-3.498-0.771l0.543-0.562c0.232,0.229,1.57,0.777,2.824,0.565
						c0.779-0.135,1.34-0.534,1.668-1.19l0.326-0.651l0.363,0.632c0.43,0.756,1.467,1.418,2.258,1.447
						c0.354,0.008,0.604-0.097,0.766-0.334l0.646,0.435C14.309,13.387,13.828,13.627,13.246,13.627z"/>
				</g>
			</g>
		</g>
	</g>
</g>
</svg>
