<?xml version="1.0" encoding="utf-8"?>
<!-- Generator: Adobe Illustrator 16.0.4, SVG Export Plug-In . SVG Version: 6.00 Build 0)  -->
<!DOCTYPE svg PUBLIC "-//W3C//DTD SVG 1.0//EN" "http://www.w3.org/TR/2001/REC-SVG-20010904/DTD/svg10.dtd">
<svg version="1.0" id="Layer_1" xmlns="http://www.w3.org/2000/svg" xmlns:xlink="http://www.w3.org/1999/xlink" x="0px" y="0px"
	 width="89.743px" height="40.955px" viewBox="0 0 89.743 40.955" enable-background="new 0 0 89.743 40.955" xml:space="preserve">
<g>
	<g>
		<path fill="#F2F2F3" d="M11.148,19.779c0-1.465,0.539-2.725,1.612-3.775c1.07-1.053,2.355-1.579,3.855-1.579
			c1.485,0,2.758,0.53,3.819,1.591c1.062,1.061,1.597,2.336,1.597,3.823c0,1.498-0.535,2.767-1.604,3.81
			c-1.075,1.047-2.373,1.571-3.89,1.571c-1.346,0-2.554-0.466-3.62-1.396C11.738,22.796,11.148,21.446,11.148,19.779z
			 M12.734,19.796c0,1.15,0.388,2.095,1.159,2.836c0.769,0.742,1.657,1.112,2.664,1.112c1.092,0,2.013-0.378,2.763-1.132
			c0.752-0.764,1.127-1.694,1.127-2.79c0-1.109-0.371-2.037-1.111-2.788c-0.739-0.755-1.65-1.132-2.738-1.132
			c-1.082,0-2,0.377-2.744,1.132C13.107,17.779,12.734,18.7,12.734,19.796z"/>
		<path fill="#F2F2F3" d="M25.578,20.804v4.228h-1.57V14.622h1.779c0.873,0,1.53,0.06,1.975,0.181
			c0.45,0.122,0.846,0.352,1.188,0.689c0.598,0.584,0.896,1.322,0.896,2.211c0,0.953-0.316,1.708-0.957,2.265
			c-0.638,0.557-1.498,0.836-2.581,0.836H25.578z M25.578,19.347h0.587c1.444,0,2.166-0.554,2.166-1.664
			c0-1.074-0.747-1.612-2.233-1.612h-0.52V19.347z"/>
		<path fill="#F2F2F3" d="M37.21,16.097h-4.175v2.502h4.052v1.478h-4.052v3.479h4.175v1.477h-5.745V14.622h5.745V16.097z"/>
		<path fill="#F2F2F3" d="M39.271,25.032v-11.12l7.592,7.943v-7.234h1.57v11.043l-7.59-7.922v7.29H39.271z"/>
		<path fill="#F2F2F3" d="M52.5,18.694h4.491v-4.073h1.571v10.411h-1.571V20.17H52.5v4.862h-1.571V14.622H52.5V18.694z"/>
		<path fill="#F2F2F3" d="M62.628,14.622v6.265c0,0.895,0.147,1.548,0.437,1.96c0.439,0.599,1.053,0.897,1.842,0.897
			c0.796,0,1.411-0.299,1.848-0.897c0.293-0.398,0.439-1.053,0.439-1.96v-6.265h1.571v6.703c0,1.096-0.342,2-1.024,2.71
			c-0.77,0.791-1.713,1.187-2.834,1.187c-1.12,0-2.06-0.396-2.824-1.187c-0.683-0.71-1.026-1.614-1.026-2.71v-6.703H62.628z"/>
		<path fill="#F2F2F3" d="M71.259,25.032V14.622h1.563c0.697,0,1.252,0.054,1.666,0.161c0.418,0.109,0.771,0.291,1.058,0.546
			c0.294,0.266,0.524,0.597,0.695,0.991c0.176,0.401,0.262,0.805,0.262,1.214c0,0.747-0.284,1.378-0.856,1.895
			c0.553,0.188,0.989,0.519,1.309,0.991c0.324,0.467,0.486,1.011,0.486,1.632c0,0.812-0.289,1.501-0.862,2.062
			c-0.348,0.347-0.735,0.587-1.168,0.722c-0.472,0.13-1.063,0.196-1.773,0.196H71.259z M72.829,19.091h0.491
			c0.585,0,1.015-0.128,1.286-0.387c0.273-0.259,0.408-0.641,0.408-1.143c0-0.491-0.141-0.862-0.42-1.116
			c-0.278-0.254-0.683-0.382-1.212-0.382h-0.554V19.091z M72.829,23.556H73.8c0.712,0,1.231-0.141,1.565-0.418
			c0.35-0.303,0.525-0.684,0.525-1.146c0-0.45-0.169-0.828-0.506-1.133c-0.326-0.301-0.913-0.452-1.761-0.452h-0.795V23.556z"/>
	</g>
	<polyline fill="none" stroke="#F2F2F3" stroke-width="2.5106" stroke-miterlimit="10" points="87.378,25.166 87.378,37.895 
		2.717,37.895 2.717,2.895 87.378,2.895 87.378,14.495 	"/>
</g>
</svg>
